if (_typeface_js && _typeface_js.loadFace) _typeface_js.loadFace({"glyphs":{"0":{"ha":793,"x_min":0,"x_max":0,"o":"m 397 918 b 50 446 219 918 50 740 b 397 -25 50 136 219 -25 b 744 446 574 -25 744 135 b 397 918 744 740 575 918 z m 149 446 b 397 818 149 700 288 818 b 644 446 511 818 644 694 b 397 75 644 179 508 75 b 149 446 288 75 149 181 z "},"1":{"ha":347,"x_min":0,"x_max":0,"o":"m 149 729 l 149 0 l 249 0 l 249 893 l 164 893 l 25 740 l 99 674 z "},"2":{"ha":644,"x_min":0,"x_max":0,"o":"m 596 136 l 496 136 l 496 99 l 175 99 l 400 319 b 596 643 533 451 596 544 l 596 644 b 322 918 596 794 472 918 b 50 644 172 918 50 794 l 149 644 b 322 818 149 740 226 818 b 496 644 418 818 496 740 l 496 643 b 331 392 496 589 465 525 l 25 90 l 25 0 l 596 0 z "},"3":{"ha":644,"x_min":0,"x_max":0,"o":"m 149 272 l 50 267 b 347 -25 50 122 156 -25 b 644 267 539 -25 644 122 b 469 525 644 375 586 482 b 571 701 538 563 571 632 b 347 918 571 808 492 918 b 124 701 203 918 124 808 l 224 694 b 347 818 224 763 279 818 b 471 694 415 818 471 763 b 347 571 471 626 415 571 l 347 471 b 546 272 457 471 546 382 b 347 75 546 163 457 75 b 149 272 238 75 149 163 z "},"4":{"ha":644,"x_min":0,"x_max":0,"o":"m 446 596 l 446 249 l 181 249 b 394 893 368 546 394 701 l 294 893 b 58 239 294 701 267 553 l 50 226 l 50 149 l 446 149 l 446 0 l 546 0 l 546 149 l 596 149 l 596 249 l 546 249 l 546 596 z "},"5":{"ha":644,"x_min":0,"x_max":0,"o":"m 446 793 l 446 757 l 546 757 l 546 893 l 79 893 l 46 389 l 138 389 b 322 546 172 535 310 546 b 496 310 392 546 496 481 b 313 75 496 135 392 75 b 149 156 250 75 182 110 l 149 174 l 50 174 l 50 126 l 57 115 b 313 -25 110 25 224 -25 b 596 310 442 -25 596 75 b 322 644 596 535 447 644 b 157 588 275 644 211 625 l 171 793 z "},"6":{"ha":644,"x_min":0,"x_max":0,"o":"m 446 768 l 446 733 l 546 733 l 546 804 l 535 817 b 322 918 485 879 408 918 b 50 403 86 918 50 665 l 50 310 b 335 -25 50 85 210 -25 b 596 310 463 -25 596 88 b 353 644 596 524 465 644 b 129 508 272 644 183 597 b 322 818 146 749 224 818 b 446 768 371 818 415 800 z m 149 310 b 335 546 149 479 264 546 b 496 310 400 546 496 483 b 335 75 496 136 400 75 b 149 310 264 75 149 140 z "},"7":{"ha":594,"x_min":0,"x_max":0,"o":"m 424 793 l 389 747 b 199 0 217 522 199 225 l 297 0 b 469 688 297 222 321 486 l 571 825 l 571 893 l 25 893 l 25 757 l 124 757 l 124 793 z "},"8":{"ha":694,"x_min":0,"x_max":0,"o":"m 224 694 b 347 818 224 763 279 818 b 471 694 415 818 471 763 b 347 571 471 626 415 571 b 224 694 279 571 224 626 z m 347 918 b 124 701 203 918 124 808 b 225 525 124 632 157 563 b 50 267 107 482 50 375 b 347 -25 50 122 156 -25 b 644 267 539 -25 644 122 b 469 525 644 375 586 482 b 571 701 538 563 571 632 b 347 918 571 808 492 918 z m 347 75 b 149 272 238 75 149 163 b 347 471 149 382 238 471 b 546 272 457 471 546 382 b 347 75 546 163 457 75 z "},"9":{"ha":644,"x_min":0,"x_max":0,"o":"m 199 125 l 199 160 l 99 160 l 99 89 l 110 75 b 322 -25 160 13 236 -25 b 596 490 558 -25 596 228 l 596 583 b 310 918 596 808 435 918 b 50 583 182 918 50 806 b 292 249 50 369 179 249 b 515 385 372 249 461 296 b 322 75 499 144 421 75 b 199 125 274 75 229 93 z m 496 583 b 310 347 496 414 381 347 b 149 583 244 347 149 410 b 310 818 149 757 244 818 b 496 583 381 818 496 753 z "}," ":{"ha":496,"x_min":0,"x_max":0,"o":""},"!":{"ha":297,"x_min":0,"x_max":0,"o":"m 99 943 l 99 249 l 199 249 l 199 843 l 224 843 l 224 943 z m 75 38 b 136 -25 75 3 101 -25 b 199 38 171 -25 199 3 b 136 99 199 72 171 99 b 75 38 101 99 75 72 z "},"\"":{"ha":396,"x_min":0,"x_max":0,"o":"m 186 896 b 179 961 186 919 185 940 l 83 939 b 86 896 86 928 86 914 b 75 788 86 875 86 829 l 64 749 l 157 722 l 168 760 b 186 896 183 813 186 868 z m 347 896 b 342 961 347 919 347 940 l 244 939 b 249 896 247 928 249 914 b 236 788 249 875 247 829 l 225 749 l 318 722 l 331 760 b 347 896 346 813 347 868 z "},"#":{"ha":594,"x_min":0,"x_max":0,"o":"m 233 249 l 332 249 l 319 99 l 418 99 l 432 249 l 529 249 l 539 347 l 440 347 l 453 496 l 551 496 l 561 596 l 461 596 l 475 744 l 375 744 l 361 596 l 263 596 l 276 744 l 176 744 l 164 596 l 65 596 l 56 496 l 156 496 l 142 347 l 44 347 l 35 249 l 135 249 l 121 99 l 219 99 z m 340 347 l 242 347 l 254 496 l 354 496 z "},"$":{"ha":892,"x_min":0,"x_max":0,"o":"m 496 419 b 744 236 629 386 744 346 b 496 100 744 196 679 113 z m 397 546 b 199 669 288 574 199 601 b 397 792 199 731 293 779 z m 397 967 l 397 890 b 99 669 236 875 99 792 b 397 443 99 526 244 481 l 397 103 b 149 196 300 115 199 161 l 149 224 l 50 224 l 50 150 l 65 135 b 397 3 119 83 264 18 l 397 -99 l 496 -99 l 496 1 b 843 236 703 15 843 114 b 496 521 843 421 664 479 l 496 792 b 694 722 569 783 646 757 l 694 696 l 793 694 l 794 767 l 779 781 b 496 890 706 847 586 882 l 496 967 z "},"%":{"ha":942,"x_min":0,"x_max":0,"o":"m 893 174 b 719 347 893 261 835 347 b 546 174 610 347 546 267 b 719 0 546 85 606 0 b 893 174 832 0 893 85 z m 719 249 b 793 174 789 249 793 190 b 719 99 793 139 778 99 b 644 174 663 99 644 139 b 719 249 644 206 661 249 z m 397 719 b 224 893 397 807 339 893 b 50 719 114 893 50 813 b 224 546 50 631 110 546 b 397 719 336 546 397 631 z m 224 793 b 297 719 293 793 297 736 b 224 644 297 685 282 644 b 149 719 167 644 149 685 b 224 793 149 751 165 793 z m 788 892 l 93 99 l 168 33 l 863 828 z "},"&":{"ha":942,"x_min":0,"x_max":0,"o":"m 290 438 b 393 321 318 404 351 367 l 596 106 b 450 75 549 86 497 75 b 174 254 254 75 174 163 b 290 438 174 324 219 394 z m 561 744 l 546 744 l 546 644 l 679 644 l 679 700 b 446 893 679 782 606 885 b 199 644 310 893 199 781 b 243 501 199 592 210 553 b 75 249 136 442 75 346 b 450 -25 75 118 189 -25 b 667 29 524 -25 600 -7 b 750 0 704 0 733 3 l 893 0 l 893 99 l 763 99 b 868 353 826 161 868 246 b 700 546 868 469 786 546 l 619 546 l 619 424 l 719 424 l 719 444 b 769 353 735 439 769 410 b 681 158 769 268 733 204 l 465 389 b 297 644 314 553 297 588 b 446 793 297 726 364 793 b 561 744 507 789 543 768 z "},"'":{"ha":247,"x_min":0,"x_max":0,"o":"m 186 896 b 179 961 186 919 185 940 l 83 939 b 86 896 86 928 86 914 b 75 788 86 875 86 829 l 64 749 l 157 722 l 168 760 b 186 896 183 813 186 868 z "},"(":{"ha":347,"x_min":0,"x_max":0,"o":"m 149 360 b 336 957 149 665 242 900 l 283 1042 b 50 360 119 943 50 619 l 50 358 b 283 -297 50 96 121 -199 l 336 -214 b 149 358 238 -156 149 64 z "},")":{"ha":347,"x_min":0,"x_max":0,"o":"m 199 360 b 11 -214 199 65 110 -156 l 64 -297 b 297 360 226 -199 297 97 b 64 1042 297 619 228 943 l 11 957 b 199 360 106 900 199 665 z "},"*":{"ha":496,"x_min":0,"x_max":0,"o":"m 419 832 l 297 789 l 297 918 l 199 918 l 199 789 l 76 832 l 42 740 l 168 694 l 90 588 l 169 528 l 249 635 l 326 528 l 406 588 l 328 694 l 454 740 z "},"+":{"ha":694,"x_min":0,"x_max":0,"o":"m 397 496 l 397 744 l 297 744 l 297 496 l 50 496 l 50 397 l 297 397 l 297 149 l 397 149 l 397 397 l 644 397 l 644 496 z "},",":{"ha":297,"x_min":0,"x_max":0,"o":"m 114 -21 b 67 -119 114 -46 94 -92 l 103 -156 b 199 38 157 -104 199 -39 b 136 99 199 72 171 99 b 75 38 101 99 75 72 b 114 -21 75 11 90 -12 z "},"-":{"ha":496,"x_min":0,"x_max":0,"o":"m 446 297 l 446 397 l 50 397 l 50 297 z "},".":{"ha":297,"x_min":0,"x_max":0,"o":"m 75 38 b 136 -25 75 3 101 -25 b 199 38 171 -25 199 3 b 136 99 199 72 171 99 b 75 38 101 99 75 72 z "},"/":{"ha":793,"x_min":0,"x_max":0,"o":"m 685 994 l 32 -25 l 117 -79 l 769 940 z "},":":{"ha":297,"x_min":0,"x_max":0,"o":"m 75 533 b 136 471 75 499 101 471 b 199 533 171 471 199 499 b 136 596 199 568 171 596 b 75 533 101 596 75 568 z m 75 38 b 136 -25 75 3 101 -25 b 199 38 171 -25 199 3 b 136 99 199 72 171 99 b 75 38 101 99 75 72 z "},";":{"ha":297,"x_min":0,"x_max":0,"o":"m 114 -21 b 67 -119 114 -46 94 -92 l 103 -156 b 199 38 157 -104 199 -39 b 136 99 199 72 171 99 b 75 38 101 99 75 72 b 114 -21 75 11 90 -12 z m 75 533 b 136 471 75 499 101 471 b 199 533 171 471 199 499 b 136 596 199 568 171 596 b 75 533 101 596 75 568 z "},"<":{"ha":496,"x_min":0,"x_max":0,"o":"m 182 446 l 449 626 l 394 708 l 50 475 l 50 418 l 393 175 l 450 257 z "},"=":{"ha":644,"x_min":0,"x_max":0,"o":"m 596 546 l 596 644 l 50 644 l 50 546 z m 596 249 l 596 347 l 50 347 l 50 249 z "},">":{"ha":496,"x_min":0,"x_max":0,"o":"m 314 446 l 46 257 l 103 175 l 446 418 l 446 475 l 101 708 l 47 626 z "},"?":{"ha":594,"x_min":0,"x_max":0,"o":"m 249 344 l 249 249 l 347 249 l 347 344 b 546 694 347 481 546 469 b 297 943 546 831 433 943 b 50 694 161 943 50 831 l 149 694 b 297 843 149 776 215 843 b 446 694 379 843 446 776 b 249 344 446 521 249 547 z m 236 38 b 297 -25 236 3 263 -25 b 360 38 332 -25 360 3 b 297 99 360 72 332 99 b 236 38 263 99 236 72 z "},"@":{"ha":1239,"x_min":0,"x_max":0,"o":"m 50 272 b 544 -211 50 17 224 -211 b 847 -139 667 -211 767 -179 l 869 -128 l 826 -64 l 804 -75 b 544 -136 710 -122 622 -136 b 149 272 274 -136 149 75 b 676 779 149 535 369 779 b 1067 418 942 779 1067 593 b 839 65 1067 149 906 65 b 776 144 813 65 776 83 b 779 171 776 151 778 161 l 874 653 l 651 653 b 315 246 511 653 315 497 b 539 -10 315 74 436 -10 b 697 79 592 -10 663 35 b 826 -3 710 42 764 -3 b 1165 418 968 -3 1165 140 b 676 878 1165 644 1001 878 b 50 272 314 878 50 590 z m 682 194 l 678 186 b 539 89 646 118 578 89 b 414 246 489 89 414 131 b 651 553 414 438 561 553 l 753 553 z "},"A":{"ha":843,"x_min":0,"x_max":0,"o":"m 435 778 l 607 322 l 265 322 z m 76 99 l 50 99 l 50 0 l 146 0 l 229 224 l 643 224 l 735 -17 l 826 17 l 469 967 l 400 967 z "},"B":{"ha":843,"x_min":0,"x_max":0,"o":"m 199 446 l 465 446 b 694 261 621 446 694 342 b 478 99 694 179 632 99 l 199 99 z m 571 510 b 694 693 653 550 694 617 b 378 943 694 826 592 943 l 63 943 l 63 842 l 99 842 l 99 0 l 478 0 b 793 261 688 0 793 124 b 571 510 793 374 714 476 z m 596 693 b 378 546 596 631 538 546 l 199 546 l 199 843 l 378 843 b 596 693 536 843 596 769 z "},"C":{"ha":892,"x_min":0,"x_max":0,"o":"m 744 815 l 744 781 l 843 781 l 843 868 l 821 883 b 546 967 743 936 647 967 b 50 471 272 967 50 744 b 546 -25 50 197 272 -25 b 832 65 653 -25 751 7 l 775 147 b 546 75 710 101 632 75 b 149 471 326 75 149 251 b 546 868 149 690 326 868 b 744 815 618 868 686 849 z "},"D":{"ha":942,"x_min":0,"x_max":0,"o":"m 199 99 l 199 843 l 422 843 b 793 471 628 843 793 676 b 422 99 793 265 628 99 z m 63 943 l 63 843 l 99 843 l 99 0 l 422 0 b 893 471 683 0 893 210 b 422 943 893 732 683 943 z "},"E":{"ha":793,"x_min":0,"x_max":0,"o":"m 596 843 l 596 806 l 694 806 l 694 943 l 63 943 l 63 843 l 99 843 l 99 0 l 744 0 l 744 136 l 644 136 l 644 99 l 199 99 l 199 397 l 446 397 l 446 496 l 199 496 l 199 843 z "},"F":{"ha":793,"x_min":0,"x_max":0,"o":"m 99 843 l 99 0 l 199 0 l 199 397 l 496 397 l 496 496 l 199 496 l 199 843 l 644 843 l 644 806 l 744 806 l 744 943 l 63 943 l 63 843 z "},"G":{"ha":942,"x_min":0,"x_max":0,"o":"m 644 347 l 793 347 l 793 178 b 546 75 729 115 632 75 b 149 471 326 75 149 251 b 546 868 149 690 326 868 b 744 815 618 868 686 849 l 744 781 l 843 781 l 843 868 l 833 875 b 546 967 753 933 653 967 b 50 471 272 967 50 744 b 533 -25 50 188 286 -25 b 793 72 622 -25 713 13 l 793 0 l 893 0 l 893 446 l 644 446 z "},"H":{"ha":892,"x_min":0,"x_max":0,"o":"m 99 943 l 99 0 l 199 0 l 199 397 l 694 397 l 694 0 l 793 0 l 793 943 l 694 943 l 694 496 l 199 496 l 199 943 z "},"I":{"ha":297,"x_min":0,"x_max":0,"o":"m 199 0 l 199 943 l 99 943 l 99 0 z "},"J":{"ha":544,"x_min":0,"x_max":0,"o":"m 124 106 l 124 131 l 25 131 l 25 71 l 33 58 b 218 -25 74 1 154 -25 b 446 199 336 -25 446 57 l 446 943 l 99 943 l 99 843 l 347 843 l 347 199 b 218 75 347 114 282 75 b 124 106 172 75 140 90 z "},"K":{"ha":843,"x_min":0,"x_max":0,"o":"m 724 126 l 413 492 l 713 843 l 769 843 l 769 943 l 667 943 l 199 392 l 199 943 l 99 943 l 99 0 l 199 0 l 199 238 l 349 414 l 647 63 b 793 0 679 26 707 0 l 793 99 b 724 126 743 99 740 107 z "},"L":{"ha":793,"x_min":0,"x_max":0,"o":"m 199 99 l 199 943 l 99 943 l 99 0 l 744 0 l 744 136 l 644 136 l 644 99 z "},"M":{"ha":1339,"x_min":0,"x_max":0,"o":"m 669 85 l 279 967 l 190 967 l 75 99 l 50 99 l 50 0 l 163 0 l 263 760 l 610 -25 l 731 -25 l 1078 760 l 1178 -6 l 1278 6 l 1151 967 l 1061 967 z "},"N":{"ha":942,"x_min":0,"x_max":0,"o":"m 843 943 l 744 943 l 744 183 l 186 943 l 63 943 l 63 843 l 99 843 l 99 0 l 199 0 l 199 758 l 757 0 l 843 0 z "},"O":{"ha":1090,"x_min":0,"x_max":0,"o":"m 546 967 b 50 471 272 967 50 744 b 546 -25 50 197 272 -25 b 1042 471 819 -25 1042 197 b 546 967 1042 744 819 967 z m 149 471 b 546 868 149 690 326 868 b 943 471 765 868 943 690 b 546 75 943 251 765 75 b 149 471 326 75 149 251 z "},"P":{"ha":843,"x_min":0,"x_max":0,"o":"m 199 843 l 471 843 b 694 619 593 843 694 742 b 471 397 694 497 593 397 l 199 397 z m 63 943 l 63 843 l 99 843 l 99 0 l 199 0 l 199 297 l 471 297 b 793 619 650 297 793 440 b 471 943 793 799 650 943 z "},"Q":{"ha":1090,"x_min":0,"x_max":0,"o":"m 546 967 b 50 471 272 967 50 744 b 369 7 50 258 182 78 b 140 -146 197 -33 143 -142 l 256 -275 l 293 -229 b 400 -189 318 -199 361 -189 b 771 -272 511 -189 664 -272 b 886 -221 783 -271 838 -271 b 924 -136 904 -203 924 -169 l 825 -136 b 771 -172 825 -143 801 -172 b 400 -89 693 -172 526 -89 b 272 -142 350 -89 300 -111 l 257 -126 b 546 -25 301 -74 396 -25 b 1042 471 819 -25 1042 197 b 546 967 1042 744 819 967 z m 149 471 b 546 868 149 690 326 868 b 943 471 765 868 943 690 b 546 75 943 251 765 75 b 149 471 326 75 149 251 z "},"R":{"ha":843,"x_min":0,"x_max":0,"o":"m 428 496 l 199 496 l 199 843 l 428 843 b 644 669 581 843 644 754 b 428 496 644 585 581 496 z m 599 285 b 494 401 564 338 535 375 b 744 669 660 428 744 547 b 428 943 744 807 638 943 l 63 943 l 63 843 l 99 843 l 99 0 l 199 0 l 199 397 l 272 397 b 474 296 399 397 413 392 l 618 72 b 736 0 656 15 689 0 l 793 0 l 793 99 l 736 99 b 701 125 721 99 718 99 z "},"S":{"ha":843,"x_min":0,"x_max":0,"o":"m 149 169 l 149 204 l 50 204 l 50 125 l 65 110 b 422 -25 125 56 271 -25 b 793 211 650 -25 793 76 b 199 744 793 560 199 522 b 422 868 199 819 303 868 b 644 797 500 868 586 842 l 644 763 l 744 763 l 744 840 l 728 856 b 422 967 642 942 511 967 b 99 744 243 967 99 878 b 694 211 99 426 694 476 b 422 75 694 150 614 75 b 149 169 318 75 206 126 z "},"T":{"ha":892,"x_min":0,"x_max":0,"o":"m 50 943 l 50 806 l 149 806 l 149 843 l 397 843 l 397 0 l 496 0 l 496 843 l 744 843 l 744 806 l 843 806 l 843 943 z "},"U":{"ha":892,"x_min":0,"x_max":0,"o":"m 63 943 l 63 843 l 99 843 l 99 322 b 446 -25 99 131 254 -25 b 793 322 638 -25 793 131 l 793 943 l 694 943 l 694 322 b 446 75 694 186 582 75 b 199 322 310 75 199 186 l 199 943 z "},"V":{"ha":843,"x_min":0,"x_max":0,"o":"m 53 844 l 388 -24 l 457 -24 l 826 926 l 735 961 l 422 161 l 122 943 l 25 943 l 25 844 z "},"W":{"ha":1389,"x_min":0,"x_max":0,"o":"m 1364 925 l 1271 960 l 967 160 l 744 718 l 744 843 l 644 843 l 644 718 l 422 160 l 125 943 l 25 943 l 25 843 l 56 843 l 386 -24 l 457 -24 l 694 574 l 932 -24 l 1003 -24 z "},"X":{"ha":843,"x_min":0,"x_max":0,"o":"m 717 956 l 422 569 l 136 943 l 50 943 l 50 843 l 88 843 l 360 488 l 22 46 l 101 -14 l 422 406 l 742 -14 l 821 46 l 483 488 l 796 897 z "},"Y":{"ha":892,"x_min":0,"x_max":0,"o":"m 868 943 l 769 943 l 769 936 l 446 436 l 118 943 l 25 943 l 25 843 l 64 843 l 397 331 l 397 0 l 496 0 l 496 331 l 868 908 z "},"Z":{"ha":793,"x_min":0,"x_max":0,"o":"m 50 99 l 50 0 l 744 0 l 744 136 l 644 136 l 644 99 l 172 99 l 719 843 l 719 943 l 75 943 l 75 806 l 174 806 l 174 843 l 596 843 z "},"[":{"ha":297,"x_min":0,"x_max":0,"o":"m 199 943 l 249 943 l 249 1042 l 99 1042 l 99 -297 l 249 -297 l 249 -199 l 199 -199 z "},"\\":{"ha":793,"x_min":0,"x_max":0,"o":"m 29 928 l 681 -92 l 765 -39 l 113 981 z "},"]":{"ha":297,"x_min":0,"x_max":0,"o":"m 99 -199 l 50 -199 l 50 -297 l 199 -297 l 199 1042 l 50 1042 l 50 943 l 99 943 z "},"^":{"ha":710,"x_min":0,"x_max":0,"o":"m 364 967 l 322 967 l 40 614 l 117 551 l 342 832 l 556 554 l 635 614 z "},"_":{"ha":992,"x_min":0,"x_max":0,"o":"m 906 -297 l 906 -199 l 50 -199 l 50 -297 z "},"`":{"ha":297,"x_min":0,"x_max":0,"o":"m 189 757 l 249 817 l 110 956 l 50 896 z "},"a":{"ha":743,"x_min":0,"x_max":0,"o":"m 322 297 l 546 297 l 546 168 b 322 75 513 118 419 75 b 149 193 219 75 149 121 b 322 297 149 233 189 297 z m 682 0 l 682 99 l 644 99 l 644 446 b 378 669 644 622 497 669 b 178 628 307 669 232 654 l 149 613 l 149 515 l 249 515 l 249 550 b 378 571 283 563 329 571 b 546 446 458 571 546 547 l 546 397 l 322 397 b 50 193 144 397 50 300 b 297 -25 50 47 193 -25 b 546 75 388 -25 482 13 l 546 0 z "},"b":{"ha":793,"x_min":0,"x_max":0,"o":"m 199 322 b 422 571 199 460 288 571 b 644 322 556 571 644 463 b 422 75 644 185 557 75 b 199 322 289 75 199 182 z m 744 322 b 433 669 744 547 576 669 b 199 532 342 669 251 625 l 199 943 l 63 943 l 63 843 l 99 843 l 99 0 l 199 0 l 199 113 b 433 -25 251 19 342 -25 b 744 322 576 -25 744 97 z "},"c":{"ha":694,"x_min":0,"x_max":0,"o":"m 546 521 l 546 496 l 644 496 l 644 567 l 628 582 b 397 669 565 636 485 669 b 50 322 206 669 50 514 b 397 -25 50 131 206 -25 b 651 86 496 -25 588 18 l 579 153 b 397 75 533 104 469 75 b 149 322 261 75 149 186 b 397 571 149 458 261 571 b 546 521 453 571 504 551 z "},"d":{"ha":793,"x_min":0,"x_max":0,"o":"m 596 322 b 372 75 596 182 506 75 b 149 322 238 75 149 185 b 372 571 149 463 239 571 b 596 322 507 571 596 460 z m 732 0 l 732 99 l 694 99 l 694 943 l 558 943 l 558 843 l 596 843 l 596 532 b 360 669 543 625 451 669 b 50 322 217 669 50 547 b 360 -25 50 97 217 -25 b 596 113 451 -25 543 19 l 596 0 z "},"e":{"ha":743,"x_min":0,"x_max":0,"o":"m 150 297 l 353 297 b 663 469 476 297 592 408 l 699 500 l 669 539 b 397 669 606 619 507 669 b 50 322 206 669 50 514 b 397 -25 50 131 206 -25 b 651 86 497 -25 588 18 l 578 154 b 397 75 532 106 469 75 b 150 297 269 75 163 172 z m 353 397 l 160 397 b 397 571 192 497 288 571 b 560 510 460 571 517 547 b 353 397 507 463 421 397 z "},"f":{"ha":496,"x_min":0,"x_max":0,"o":"m 446 826 l 446 793 l 546 793 l 546 856 l 539 868 b 360 967 501 928 435 967 b 149 757 243 967 149 874 l 149 644 l 50 644 l 50 546 l 149 546 l 149 0 l 249 0 l 249 546 l 397 546 l 397 644 l 249 644 l 249 757 b 360 868 249 819 297 868 b 446 826 394 868 426 853 z "},"g":{"ha":694,"x_min":0,"x_max":0,"o":"m 136 49 b 188 29 150 42 168 35 l 482 -42 b 583 -137 557 -58 583 -107 b 493 -199 583 -174 547 -199 l 240 -199 b 110 -53 147 -199 110 -126 b 136 49 110 -17 119 19 z m 210 125 b 168 174 190 131 168 144 b 196 243 168 190 176 214 b 347 199 238 214 290 199 b 596 433 471 199 596 278 b 569 546 596 476 586 515 l 669 546 l 669 644 l 464 644 b 347 669 428 661 388 669 b 99 433 224 669 99 589 b 154 281 99 371 119 321 b 85 129 125 242 85 182 b 96 86 85 114 89 100 b 25 -94 51 36 25 -31 b 240 -297 25 -207 101 -297 l 493 -297 b 682 -137 611 -297 682 -225 b 504 54 682 -51 613 28 z m 199 433 b 347 571 199 528 272 571 b 496 433 422 571 496 529 b 347 297 496 339 422 297 b 199 433 272 297 199 339 z "},"h":{"ha":793,"x_min":0,"x_max":0,"o":"m 99 843 l 99 0 l 199 0 l 199 297 b 446 571 199 458 315 571 b 596 446 518 571 596 544 l 596 0 l 732 0 l 732 99 l 694 99 l 694 446 b 458 669 694 589 583 669 b 199 514 361 669 258 622 l 199 943 l 63 943 l 63 843 z "},"i":{"ha":297,"x_min":0,"x_max":0,"o":"m 99 546 l 99 0 l 199 0 l 199 644 l 63 644 l 63 546 z m 149 918 b 81 850 111 918 81 888 b 149 781 81 813 111 781 b 217 850 186 781 217 813 b 149 918 217 888 186 918 z "},"j":{"ha":272,"x_min":0,"x_max":0,"o":"m -50 -172 l -50 -149 l -149 -149 l -149 -206 l -140 -218 b 13 -297 -107 -265 -51 -297 b 199 -111 115 -297 199 -214 l 199 644 l 63 644 l 63 546 l 99 546 l 99 -111 b 13 -199 99 -160 61 -199 b -50 -172 -11 -199 -33 -189 z m 149 918 b 81 850 111 918 81 888 b 149 781 81 813 111 781 b 217 850 186 781 217 813 b 149 918 217 888 186 918 z "},"k":{"ha":743,"x_min":0,"x_max":0,"o":"m 635 128 l 432 354 l 611 546 l 644 546 l 644 644 l 569 644 l 199 253 l 199 943 l 63 943 l 63 843 l 99 843 l 99 0 l 199 0 l 199 110 l 364 283 l 561 63 b 694 0 604 14 653 0 l 694 99 b 635 128 674 99 657 103 z "},"l":{"ha":297,"x_min":0,"x_max":0,"o":"m 63 943 l 63 843 l 99 843 l 99 0 l 199 0 l 199 943 z "},"m":{"ha":1190,"x_min":0,"x_max":0,"o":"m 546 446 l 546 0 l 644 0 l 644 297 b 868 571 644 453 735 571 b 992 446 949 571 992 542 l 992 0 l 1128 0 l 1128 99 l 1092 99 l 1092 446 b 893 669 1092 607 992 669 b 640 503 800 669 697 614 b 446 669 621 624 532 669 b 199 510 356 669 257 617 l 199 644 l 63 644 l 63 546 l 99 546 l 99 0 l 199 0 l 199 297 b 422 571 199 453 289 571 b 546 446 503 571 546 542 z "},"n":{"ha":793,"x_min":0,"x_max":0,"o":"m 99 546 l 99 0 l 199 0 l 199 297 b 446 571 199 458 315 571 b 596 446 518 571 596 544 l 596 0 l 732 0 l 732 99 l 694 99 l 694 446 b 471 669 694 601 569 669 b 199 503 369 669 261 613 l 199 644 l 63 644 l 63 546 z "},"o":{"ha":793,"x_min":0,"x_max":0,"o":"m 397 669 b 50 322 206 669 50 514 b 397 -25 50 131 206 -25 b 744 322 589 -25 744 131 b 397 669 744 514 589 669 z m 149 322 b 397 571 149 458 261 571 b 644 322 533 571 644 458 b 397 75 644 186 533 75 b 149 322 261 75 149 186 z "},"p":{"ha":793,"x_min":0,"x_max":0,"o":"m 199 322 b 422 571 199 460 288 571 b 644 322 556 571 644 463 b 422 75 644 185 557 75 b 199 322 289 75 199 182 z m 744 322 b 433 669 744 547 576 669 b 199 532 342 669 251 625 l 199 644 l 63 644 l 63 546 l 99 546 l 99 -297 l 199 -297 l 199 113 b 433 -25 251 19 342 -25 b 744 322 576 -25 744 97 z "},"q":{"ha":793,"x_min":0,"x_max":0,"o":"m 596 322 b 372 75 596 182 506 75 b 149 322 238 75 149 185 b 372 571 149 463 239 571 b 596 322 507 571 596 460 z m 732 -297 l 732 -199 l 694 -199 l 694 644 l 596 644 l 596 532 b 360 669 543 625 451 669 b 50 322 217 669 50 547 b 360 -25 50 97 217 -25 b 596 113 451 -25 543 19 l 596 -297 z "},"r":{"ha":496,"x_min":0,"x_max":0,"o":"m 424 669 b 199 490 325 669 246 593 l 199 644 l 63 644 l 63 546 l 99 546 l 99 0 l 199 0 l 199 261 b 347 543 199 399 278 497 l 347 521 l 446 521 l 446 669 z "},"s":{"ha":644,"x_min":0,"x_max":0,"o":"m 446 536 l 446 504 l 546 504 l 546 582 l 529 596 b 322 669 472 649 397 669 b 99 496 196 669 99 589 b 496 161 99 269 496 304 b 322 75 496 108 421 75 b 149 128 228 75 176 103 l 149 156 l 50 156 l 50 89 l 63 75 b 322 -25 92 40 167 -25 b 596 161 486 -25 596 50 b 199 496 596 386 199 374 b 322 571 199 515 224 565 b 446 536 371 571 413 560 z "},"t":{"ha":594,"x_min":0,"x_max":0,"o":"m 149 793 l 149 644 l 50 644 l 50 546 l 149 546 l 149 186 b 360 -25 149 69 243 -25 b 539 75 435 -25 501 15 l 546 86 l 546 136 l 446 136 l 446 117 b 360 75 426 90 394 75 b 249 186 297 75 249 124 l 249 546 l 496 546 l 496 644 l 249 644 l 249 793 z "},"u":{"ha":793,"x_min":0,"x_max":0,"o":"m 694 99 l 694 644 l 596 644 l 596 347 b 347 75 596 186 478 75 b 199 199 275 75 199 100 l 199 644 l 63 644 l 63 546 l 99 546 l 99 199 b 322 -25 99 43 224 -25 b 596 142 424 -25 533 32 l 596 0 l 732 0 l 732 99 z "},"v":{"ha":743,"x_min":0,"x_max":0,"o":"m 719 644 l 619 644 l 619 631 l 365 132 l 104 644 l 18 644 l 18 546 l 44 546 l 335 -24 l 397 -24 l 719 607 z "},"w":{"ha":1140,"x_min":0,"x_max":0,"o":"m 1117 644 l 1017 644 l 1017 631 l 793 142 l 614 518 l 614 619 l 515 619 l 515 518 l 336 142 l 106 644 l 18 644 l 18 546 l 40 546 l 301 -24 l 368 -24 l 564 392 l 760 -24 l 828 -24 l 1117 608 z "},"x":{"ha":694,"x_min":0,"x_max":0,"o":"m 571 664 l 347 411 l 142 644 l 63 644 l 63 546 l 97 546 l 282 336 l 25 46 l 99 -18 l 347 261 l 596 -18 l 669 46 l 413 336 l 644 599 z "},"y":{"ha":743,"x_min":0,"x_max":0,"o":"m 344 -164 l 719 614 l 719 644 l 619 644 l 619 636 l 360 96 l 115 644 l 25 644 l 25 546 l 51 546 l 303 -22 l 256 -122 b 179 -199 239 -156 214 -199 b 124 -168 160 -199 138 -183 l 124 -150 l 25 -150 l 25 -203 l 33 -214 b 179 -297 65 -261 121 -297 b 344 -164 278 -297 328 -194 z "},"z":{"ha":694,"x_min":0,"x_max":0,"o":"m 619 550 l 619 644 l 75 644 l 75 508 l 174 508 l 174 546 l 481 546 l 50 96 l 50 0 l 644 0 l 644 136 l 546 136 l 546 99 l 190 99 z "},"{":{"ha":297,"x_min":0,"x_max":0,"o":"m 199 868 b 201 906 199 886 200 899 b 249 943 207 943 218 942 l 249 1042 b 103 921 215 1040 121 1043 b 99 868 100 904 99 888 l 99 533 b 53 431 99 479 78 443 l 0 404 l 0 340 l 53 314 b 99 211 75 303 99 265 l 99 -124 b 103 -178 100 -149 99 -157 b 249 -297 119 -282 188 -297 l 249 -199 b 201 -161 211 -199 207 -192 b 199 -124 199 -146 200 -139 l 199 211 b 124 361 199 297 160 333 l 124 383 b 199 533 167 415 199 457 z "},"|":{"ha":297,"x_min":0,"x_max":0,"o":"m 99 893 l 99 -249 l 199 -249 l 199 893 z "},"}":{"ha":297,"x_min":0,"x_max":0,"o":"m 99 868 l 99 533 b 174 383 99 457 131 415 l 174 361 b 99 211 138 333 99 297 l 99 -124 b 97 -161 97 -139 100 -146 b 50 -199 92 -192 88 -199 l 50 -297 b 194 -178 111 -297 178 -282 b 199 -124 199 -157 197 -149 l 199 211 b 246 314 199 265 224 303 l 297 340 l 297 404 l 246 431 b 199 533 221 443 199 479 l 199 868 b 194 921 199 888 197 904 b 50 1042 176 1043 83 1040 l 50 943 b 97 906 81 942 92 943 b 99 868 99 899 99 886 z "},"~":{"ha":496,"x_min":0,"x_max":0,"o":"m 206 532 b 142 549 185 543 164 549 b 29 449 89 549 40 515 l 28 436 l 101 425 l 104 436 b 142 474 110 458 118 474 b 174 465 154 474 165 469 l 290 411 b 356 394 311 400 333 394 b 467 493 421 394 457 440 l 469 506 l 394 518 l 392 507 b 356 469 389 494 385 469 b 322 478 349 469 336 472 z "},"¡":{"ha":297,"x_min":0,"x_max":0,"o":"m 199 -297 l 199 397 l 99 397 l 99 -199 l 75 -199 l 75 -297 z m 224 608 b 161 669 224 643 196 669 b 99 608 126 669 99 643 b 161 546 99 574 126 546 b 224 608 196 546 224 574 z "},"¢":{"ha":694,"x_min":0,"x_max":0,"o":"m 322 135 b 149 372 222 167 149 263 b 322 608 149 482 222 576 z m 422 -99 l 422 26 b 651 135 511 32 593 72 l 579 203 b 422 125 539 161 485 131 l 422 619 b 546 571 468 614 510 597 l 546 546 l 644 546 l 644 617 l 628 631 b 422 718 572 681 500 713 l 422 818 l 322 818 l 322 711 b 50 372 167 676 50 538 b 322 33 50 207 167 68 l 322 -99 z "},"£":{"ha":743,"x_min":0,"x_max":0,"o":"m 297 211 l 297 397 l 446 397 l 446 496 l 297 496 l 297 707 b 410 818 297 769 347 818 b 496 776 444 818 476 803 l 496 757 l 596 757 l 596 806 l 588 818 b 410 918 550 878 485 918 b 199 707 293 918 199 824 l 199 496 l 97 496 l 97 397 l 199 397 l 199 211 b 117 99 199 161 157 99 l 50 99 l 50 0 l 694 0 l 694 124 l 596 124 l 596 99 l 272 99 b 297 211 289 132 297 171 z "},"¤":{"ha":544,"x_min":0,"x_max":0,"o":"m 200 499 b 272 528 206 504 229 528 b 346 499 315 528 340 504 b 376 425 351 493 376 468 b 346 353 376 382 351 358 b 272 322 340 347 315 322 b 200 353 229 322 206 347 b 169 425 194 358 169 382 b 200 499 169 468 194 493 z m 378 597 b 272 628 344 618 308 628 b 174 603 229 628 197 617 l 113 661 l 39 596 l 101 533 b 71 425 82 503 71 467 b 100 319 71 389 79 353 l 46 267 l 110 192 l 169 250 b 272 224 199 233 235 224 b 381 254 314 224 350 235 l 433 201 l 508 265 l 450 326 b 475 425 464 350 475 382 b 447 526 475 463 464 497 l 508 588 l 442 663 z "},"¥":{"ha":892,"x_min":0,"x_max":0,"o":"m 199 347 l 386 347 l 397 331 l 397 249 l 199 249 l 199 149 l 397 149 l 397 0 l 496 0 l 496 149 l 694 149 l 694 249 l 496 249 l 496 331 l 507 347 l 694 347 l 694 446 l 571 446 l 868 908 l 868 943 l 769 943 l 769 936 l 453 446 l 440 446 l 118 943 l 25 943 l 25 843 l 64 843 l 321 446 l 199 446 z "},"¦":{"ha":297,"x_min":0,"x_max":0,"o":"m 199 199 l 99 199 l 99 -297 l 199 -297 z m 99 446 l 199 446 l 199 943 l 99 943 z "},"§":{"ha":793,"x_min":0,"x_max":0,"o":"m 576 111 b 124 411 421 225 124 218 b 217 533 124 457 153 503 b 669 233 372 419 669 426 b 576 111 669 188 640 142 z m 397 843 b 571 669 493 843 571 765 l 669 669 b 397 943 669 819 547 943 b 124 714 208 943 124 835 b 149 608 124 674 133 638 b 25 411 63 557 25 483 b 571 -69 25 60 571 157 b 397 -199 571 -172 479 -199 b 224 -25 301 -199 224 -121 l 124 -25 b 397 -297 124 -175 247 -297 b 669 -69 586 -297 669 -190 b 644 36 669 -29 660 7 b 769 233 731 88 769 160 b 224 714 769 585 224 488 b 397 843 224 817 315 843 z "},"¨":{"ha":496,"x_min":0,"x_max":0,"o":"m 378 918 b 310 850 340 918 310 888 b 378 781 310 813 340 781 b 446 850 415 781 446 813 b 378 918 446 888 415 918 z m 118 918 b 50 850 81 918 50 888 b 118 781 50 813 81 781 b 186 850 156 781 186 813 b 118 918 186 888 156 918 z "},"©":{"ha":1190,"x_min":0,"x_max":0,"o":"m 707 650 l 707 632 l 806 632 l 806 700 l 788 714 b 596 781 738 753 672 781 b 285 471 425 781 285 642 b 596 161 285 300 425 161 b 822 260 679 161 760 194 l 750 328 b 596 261 708 283 653 261 b 385 471 479 261 385 354 b 596 682 385 588 479 682 b 707 650 636 682 675 671 z m 989 274 b 826 122 943 200 886 154 b 596 67 747 79 669 67 b 364 122 526 67 444 79 b 201 274 304 154 247 200 b 143 474 167 328 143 393 b 201 674 143 554 167 619 b 364 825 247 747 304 793 b 596 883 444 868 524 883 b 826 825 668 883 746 868 b 989 674 886 793 943 747 b 1047 474 1024 619 1047 554 b 989 274 1047 393 1024 328 z m 874 35 b 1074 221 944 74 1018 132 b 1147 474 1100 261 1147 349 b 1074 726 1147 599 1100 686 b 874 913 1018 815 944 874 b 596 982 776 965 682 982 b 317 913 510 982 414 965 b 117 726 246 874 172 815 b 43 474 90 686 43 599 b 117 221 43 349 90 261 b 318 35 172 132 247 74 b 596 -32 417 -18 515 -32 b 874 35 681 -32 775 -18 z "},"ª":{"ha":544,"x_min":0,"x_max":0,"o":"m 521 446 l 521 546 l 496 546 l 496 793 b 478 879 493 828 493 850 b 433 929 469 896 454 914 b 297 967 392 961 338 967 b 122 924 222 967 161 947 l 99 908 l 99 818 l 199 818 l 199 850 b 297 868 222 858 257 868 b 375 850 314 868 351 867 b 389 833 381 844 385 840 b 397 793 396 819 397 807 l 397 744 l 263 744 b 50 589 97 744 50 651 b 228 422 50 489 132 422 b 397 497 285 422 346 444 l 397 446 z m 263 644 l 397 644 l 397 576 b 263 521 376 547 326 521 b 149 589 188 521 149 551 b 263 644 149 611 169 644 z "},"«":{"ha":544,"x_min":0,"x_max":0,"o":"m 150 322 l 286 490 l 210 551 l 38 342 l 38 303 l 210 93 l 286 157 z m 374 322 l 510 490 l 433 551 l 261 342 l 261 303 l 433 93 l 510 157 z "},"¬":{"ha":793,"x_min":0,"x_max":0,"o":"m 50 496 l 50 397 l 596 397 l 596 149 l 694 149 l 694 496 z "},"­":{"ha":496,"x_min":0,"x_max":0,"o":"m 446 297 l 446 397 l 50 397 l 50 297 z "},"®":{"ha":1190,"x_min":0,"x_max":0,"o":"m 989 274 b 826 122 943 200 886 154 b 596 67 747 79 669 67 b 364 122 526 67 444 79 b 201 274 304 154 247 200 b 143 474 167 328 143 393 b 201 674 143 554 167 619 b 364 825 247 747 304 793 b 596 883 444 868 524 883 b 826 825 668 883 746 868 b 989 674 886 793 943 747 b 1047 474 1024 619 1047 554 b 989 274 1047 393 1024 328 z m 874 35 b 1074 221 944 74 1018 132 b 1147 474 1100 261 1147 349 b 1074 726 1147 599 1100 686 b 874 913 1018 815 944 874 b 596 982 776 965 682 982 b 317 913 510 982 414 965 b 117 726 246 874 172 815 b 43 474 90 686 43 599 b 117 221 43 349 90 261 b 318 35 172 132 247 74 b 596 -32 417 -18 515 -32 b 874 35 681 -32 775 -18 z m 778 199 l 808 199 l 808 297 l 778 297 b 767 307 772 297 772 299 l 690 425 b 817 596 774 453 817 522 b 610 781 817 689 743 781 l 397 781 l 397 199 l 496 199 l 496 413 l 526 413 l 536 413 b 607 375 578 413 582 413 l 683 254 b 778 199 718 200 757 199 z m 610 526 l 526 526 l 496 526 l 496 694 l 610 694 b 718 610 686 694 718 650 b 610 526 718 569 685 526 z "},"¯":{"ha":496,"x_min":0,"x_max":0,"o":"m 446 843 l 446 918 l 50 918 l 50 843 z "},"°":{"ha":347,"x_min":0,"x_max":0,"o":"m 174 943 b 50 818 111 943 50 885 b 174 694 50 751 111 694 b 297 818 236 694 297 751 b 174 943 297 885 236 943 z m 174 868 b 224 818 196 868 224 843 b 174 769 224 793 196 769 b 124 818 151 769 124 793 b 174 868 124 843 151 868 z "},"±":{"ha":694,"x_min":0,"x_max":0,"o":"m 397 546 l 397 793 l 297 793 l 297 546 l 50 546 l 50 446 l 297 446 l 297 199 l 397 199 l 397 446 l 644 446 l 644 546 z m 644 0 l 644 99 l 50 99 l 50 0 z "},"²":{"ha":446,"x_min":0,"x_max":0,"o":"m 397 596 l 397 694 l 322 694 l 322 669 l 157 669 l 282 800 b 385 992 368 892 385 938 b 224 1154 385 1081 313 1154 b 63 992 135 1154 63 1081 l 136 992 b 224 1079 136 1039 176 1079 b 310 992 271 1079 310 1039 b 226 853 310 957 300 929 l 38 651 l 38 596 z "},"³":{"ha":471,"x_min":0,"x_max":0,"o":"m 124 760 l 50 760 b 236 583 50 664 140 583 b 422 760 332 583 422 664 b 325 903 422 822 382 875 b 379 1007 358 928 379 965 b 236 1154 379 1086 317 1154 b 92 1007 156 1154 92 1086 l 167 1007 b 236 1079 167 1046 199 1079 b 306 1007 274 1079 306 1046 b 236 935 306 968 274 935 l 236 861 b 347 760 289 861 347 817 b 236 657 347 708 294 657 b 124 760 176 657 124 708 z "},"´":{"ha":297,"x_min":0,"x_max":0,"o":"m 110 757 l 249 896 l 188 956 l 50 817 z "},"µ":{"ha":793,"x_min":0,"x_max":0,"o":"m 694 99 l 694 644 l 596 644 l 596 347 b 347 75 596 186 478 75 b 199 199 275 75 199 100 l 199 644 l 75 644 l 75 546 l 99 546 l 99 214 l 99 199 l 99 36 b 113 -121 99 -28 113 -89 b 100 -172 113 -136 111 -156 l 183 -225 b 211 -121 189 -217 211 -183 b 174 29 211 -75 176 -31 b 322 -25 217 -7 272 -25 b 596 142 424 -25 533 32 l 596 0 l 719 0 l 719 99 z "},"¶":{"ha":644,"x_min":0,"x_max":0,"o":"m 347 -249 l 347 793 l 446 793 l 446 -249 l 546 -249 l 546 893 l 249 893 b 108 835 193 893 149 875 b 50 694 68 794 50 750 b 108 554 50 639 68 594 b 249 496 149 514 193 496 l 249 -249 z m 249 596 b 179 625 219 596 199 606 b 149 694 160 644 149 665 b 179 764 149 724 160 744 b 249 793 199 783 219 793 z "},"·":{"ha":247,"x_min":0,"x_max":0,"o":"m 75 322 b 136 261 75 288 101 261 b 199 322 171 261 199 288 b 136 385 199 357 171 385 b 75 322 101 385 75 357 z "},"¸":{"ha":557,"x_min":0,"x_max":0,"o":"m 211 -112 b 253 -94 221 -100 236 -94 b 310 -158 282 -94 310 -114 b 249 -224 310 -201 279 -224 b 185 -187 224 -224 199 -210 l 179 -176 l 124 -207 l 131 -218 b 251 -285 157 -261 204 -285 b 385 -164 318 -285 385 -240 b 256 -32 385 -99 338 -32 b 235 -33 250 -32 242 -32 l 249 17 l 189 32 l 151 -99 z "},"¹":{"ha":272,"x_min":0,"x_max":0,"o":"m 25 1039 l 79 990 l 99 1015 l 99 596 l 174 596 l 174 1142 l 113 1142 z "},"º":{"ha":644,"x_min":0,"x_max":0,"o":"m 596 694 b 322 967 596 844 472 967 b 50 694 172 967 50 844 b 322 422 50 544 172 422 b 596 694 472 422 596 544 z m 322 868 b 496 694 418 868 496 790 b 322 521 496 599 418 521 b 149 694 226 521 149 599 b 322 868 149 790 226 868 z "},"»":{"ha":544,"x_min":0,"x_max":0,"o":"m 396 322 l 260 157 l 336 93 l 508 303 l 508 342 l 336 551 l 260 490 z m 174 322 l 38 157 l 114 93 l 286 303 l 286 342 l 114 551 l 38 490 z "},"¼":{"ha":942,"x_min":0,"x_max":0,"o":"m 50 853 l 104 804 l 124 829 l 124 410 l 199 410 l 199 956 l 138 956 z m 768 299 l 768 125 l 596 125 b 740 497 696 281 740 379 l 665 497 b 501 115 665 389 624 301 l 496 107 l 496 50 l 768 50 l 768 -49 l 843 -49 l 843 50 l 893 50 l 893 125 l 843 125 l 843 299 z m 86 17 l 781 810 l 707 875 l 13 82 z "},"½":{"ha":992,"x_min":0,"x_max":0,"o":"m 50 853 l 104 804 l 124 829 l 124 410 l 199 410 l 199 956 l 138 956 z m 906 -49 l 906 50 l 831 50 l 831 25 l 665 25 l 790 156 b 893 347 876 247 893 293 b 732 510 893 436 821 510 b 571 347 643 510 571 436 l 644 347 b 732 435 644 394 685 435 b 818 347 779 435 818 394 b 735 208 818 313 808 285 l 546 7 l 546 -49 z m 86 17 l 781 810 l 707 875 l 13 82 z "},"¾":{"ha":1090,"x_min":0,"x_max":0,"o":"m 124 574 l 50 574 b 236 397 50 478 140 397 b 422 574 332 397 422 478 b 325 717 422 636 382 689 b 379 821 358 742 379 779 b 236 968 379 900 317 968 b 92 821 156 968 92 900 l 167 821 b 236 893 167 860 199 893 b 306 821 274 893 306 860 b 236 749 306 782 274 749 l 236 675 b 347 574 289 675 347 631 b 236 471 347 522 294 471 b 124 574 176 471 124 522 z m 917 299 l 917 125 l 744 125 b 889 497 844 281 889 379 l 814 497 b 650 115 814 389 772 301 l 644 107 l 644 50 l 917 50 l 917 -49 l 992 -49 l 992 50 l 1042 50 l 1042 125 l 992 125 l 992 299 z m 236 17 l 931 810 l 856 875 l 161 82 z "},"¿":{"ha":594,"x_min":0,"x_max":0,"o":"m 347 300 l 347 397 l 249 397 l 249 300 b 50 -50 249 164 50 175 b 297 -297 50 -186 161 -297 b 546 -50 433 -297 546 -186 l 446 -50 b 297 -199 446 -132 379 -199 b 149 -50 215 -199 149 -132 b 347 300 149 124 347 97 z m 360 608 b 297 669 360 643 332 669 b 236 608 263 669 236 643 b 297 546 236 574 263 546 b 360 608 332 546 360 574 z "},"À":{"ha":843,"x_min":0,"x_max":0,"o":"m 464 1042 l 524 1101 l 386 1240 l 325 1181 z m 435 778 l 607 322 l 265 322 z m 76 99 l 50 99 l 50 0 l 146 0 l 229 224 l 643 224 l 735 -17 l 826 17 l 469 967 l 400 967 z "},"Á":{"ha":843,"x_min":0,"x_max":0,"o":"m 404 1042 l 543 1181 l 482 1240 l 344 1101 z m 435 778 l 607 322 l 265 322 z m 76 99 l 50 99 l 50 0 l 146 0 l 229 224 l 643 224 l 735 -17 l 826 17 l 469 967 l 400 967 z "},"Â":{"ha":843,"x_min":0,"x_max":0,"o":"m 436 1154 l 608 1032 l 651 1083 l 454 1240 l 414 1240 l 217 1083 l 261 1032 l 432 1154 z m 435 778 l 607 322 l 265 322 z m 76 99 l 50 99 l 50 0 l 146 0 l 229 224 l 643 224 l 735 -17 l 826 17 l 469 967 l 400 967 z "},"Ã":{"ha":843,"x_min":0,"x_max":0,"o":"m 553 1194 b 522 1161 547 1165 535 1161 b 488 1172 515 1161 504 1164 l 410 1214 b 344 1229 389 1225 365 1229 b 240 1136 297 1229 253 1203 l 232 1090 l 304 1076 l 314 1122 b 344 1156 319 1151 332 1156 b 381 1144 351 1156 364 1153 l 457 1103 b 522 1088 478 1092 501 1088 b 628 1181 569 1088 615 1114 l 636 1226 l 563 1240 z m 435 778 l 607 322 l 265 322 z m 76 99 l 50 99 l 50 0 l 146 0 l 229 224 l 643 224 l 735 -17 l 826 17 l 469 967 l 400 967 z "},"Ä":{"ha":843,"x_min":0,"x_max":0,"o":"m 571 1215 b 503 1147 533 1215 503 1185 b 571 1078 503 1110 533 1078 b 639 1147 608 1078 639 1110 b 571 1215 639 1185 608 1215 z m 304 1215 b 236 1147 267 1215 236 1185 b 304 1078 236 1110 267 1078 b 372 1147 342 1078 372 1110 b 304 1215 372 1185 342 1215 z m 435 778 l 607 322 l 265 322 z m 76 99 l 50 99 l 50 0 l 146 0 l 229 224 l 643 224 l 735 -17 l 826 17 l 469 967 l 400 967 z "},"Å":{"ha":843,"x_min":0,"x_max":0,"o":"m 433 1133 b 468 1117 440 1133 451 1133 b 483 1083 478 1108 483 1097 b 468 1051 483 1069 478 1060 b 433 1035 451 1035 440 1035 b 400 1050 426 1035 417 1033 b 385 1083 383 1067 385 1076 b 400 1117 385 1097 390 1108 b 433 1133 417 1133 426 1133 z m 433 1208 b 350 1171 404 1208 376 1196 b 310 1083 324 1146 310 1115 b 350 999 310 1051 324 1024 b 400 967 367 983 383 972 l 76 99 l 50 99 l 50 0 l 146 0 l 229 224 l 643 224 l 735 -17 l 826 17 l 469 967 b 518 997 486 972 503 982 b 558 1083 544 1022 558 1051 b 518 1171 558 1115 544 1146 b 433 1208 492 1196 463 1208 z m 435 778 l 607 322 l 265 322 z "},"Æ":{"ha":1190,"x_min":0,"x_max":0,"o":"m 546 843 l 546 347 l 267 347 l 515 843 z m 992 843 l 992 806 l 1092 806 l 1092 943 l 608 943 l 546 943 l 456 943 l 31 99 l 13 99 l 13 0 l 93 0 l 217 249 l 546 249 l 546 0 l 1140 0 l 1140 136 l 1042 136 l 1042 99 l 644 99 l 644 397 l 843 397 l 843 496 l 644 496 l 644 843 z "},"Ç":{"ha":892,"x_min":0,"x_max":0,"o":"m 442 -140 b 483 -122 451 -128 467 -122 b 540 -183 513 -122 540 -139 b 481 -249 540 -226 511 -249 b 415 -212 456 -249 429 -235 l 410 -203 l 356 -233 l 363 -243 b 482 -310 389 -286 435 -310 b 615 -189 549 -310 615 -265 b 486 -60 615 -124 568 -60 b 467 -61 481 -60 474 -60 l 478 -19 b 546 -25 500 -22 522 -25 b 832 65 653 -25 751 7 l 775 147 b 546 75 710 101 632 75 b 149 471 326 75 149 251 b 546 868 149 690 326 868 b 744 815 618 868 686 849 l 744 793 l 843 793 l 843 868 l 821 883 b 546 967 743 936 647 967 b 50 471 272 967 50 744 b 417 -7 50 242 206 50 l 382 -126 z "},"È":{"ha":793,"x_min":0,"x_max":0,"o":"m 428 1042 l 488 1101 l 350 1240 l 289 1181 z m 596 843 l 596 806 l 694 806 l 694 943 l 63 943 l 63 843 l 99 843 l 99 0 l 744 0 l 744 136 l 644 136 l 644 99 l 199 99 l 199 397 l 446 397 l 446 496 l 199 496 l 199 843 z "},"É":{"ha":793,"x_min":0,"x_max":0,"o":"m 368 1042 l 507 1181 l 446 1240 l 308 1101 z m 596 843 l 596 806 l 694 806 l 694 943 l 63 943 l 63 843 l 99 843 l 99 0 l 744 0 l 744 136 l 644 136 l 644 99 l 199 99 l 199 397 l 446 397 l 446 496 l 199 496 l 199 843 z "},"Ê":{"ha":793,"x_min":0,"x_max":0,"o":"m 399 1154 l 571 1032 l 614 1083 l 417 1240 l 376 1240 l 179 1083 l 224 1032 l 394 1154 z m 596 843 l 596 806 l 694 806 l 694 943 l 63 943 l 63 843 l 99 843 l 99 0 l 744 0 l 744 136 l 644 136 l 644 99 l 199 99 l 199 397 l 446 397 l 446 496 l 199 496 l 199 843 z "},"Ë":{"ha":793,"x_min":0,"x_max":0,"o":"m 533 1215 b 465 1147 496 1215 465 1185 b 533 1078 465 1110 496 1078 b 601 1147 571 1078 601 1110 b 533 1215 601 1185 571 1215 z m 267 1215 b 199 1147 229 1215 199 1185 b 267 1078 199 1110 229 1078 b 335 1147 304 1078 335 1110 b 267 1215 335 1185 304 1215 z m 596 843 l 596 806 l 694 806 l 694 943 l 63 943 l 63 843 l 99 843 l 99 0 l 744 0 l 744 136 l 644 136 l 644 99 l 199 99 l 199 397 l 446 397 l 446 496 l 199 496 l 199 843 z "},"Ì":{"ha":297,"x_min":0,"x_max":0,"o":"m 179 1042 l 239 1101 l 101 1240 l 40 1181 z m 199 0 l 199 943 l 99 943 l 99 0 z "},"Í":{"ha":297,"x_min":0,"x_max":0,"o":"m 119 1042 l 258 1181 l 197 1240 l 60 1101 z m 199 0 l 199 943 l 99 943 l 99 0 z "},"Î":{"ha":297,"x_min":0,"x_max":0,"o":"m 151 1153 l 292 1057 l 335 1107 l 168 1240 l 129 1240 l -37 1107 l 6 1057 l 146 1153 z m 199 0 l 199 943 l 99 943 l 99 0 z "},"Ï":{"ha":297,"x_min":0,"x_max":0,"o":"m 285 1215 b 217 1147 247 1215 217 1185 b 285 1079 217 1110 247 1079 b 353 1147 322 1079 353 1110 b 285 1215 353 1185 322 1215 z m 18 1215 b -50 1147 -19 1215 -50 1185 b 18 1079 -50 1110 -19 1079 b 86 1147 56 1079 86 1110 b 18 1215 86 1185 56 1215 z m 199 0 l 199 943 l 99 943 l 99 0 z "},"Ð":{"ha":942,"x_min":0,"x_max":0,"o":"m 99 843 l 99 496 l 50 496 l 50 397 l 99 397 l 99 0 l 422 0 b 893 471 683 0 893 210 b 422 943 893 732 683 943 l 63 943 l 63 843 z m 199 99 l 199 397 l 446 397 l 446 496 l 199 496 l 199 843 l 422 843 b 793 471 628 843 793 676 b 422 99 793 265 628 99 z "},"Ñ":{"ha":942,"x_min":0,"x_max":0,"o":"m 590 1189 b 560 1156 585 1160 572 1156 b 525 1167 553 1156 542 1158 l 447 1208 b 382 1224 426 1219 403 1224 b 278 1131 335 1224 290 1197 l 269 1085 l 342 1071 l 351 1117 b 382 1150 357 1146 369 1150 b 418 1139 389 1150 401 1147 l 494 1097 b 560 1082 515 1086 539 1082 b 665 1175 607 1082 653 1108 l 674 1221 l 600 1235 z m 843 943 l 744 943 l 744 183 l 186 943 l 63 943 l 63 843 l 99 843 l 99 0 l 199 0 l 199 758 l 757 0 l 843 0 z "},"Ò":{"ha":1090,"x_min":0,"x_max":0,"o":"m 576 1042 l 636 1101 l 499 1240 l 438 1181 z m 546 967 b 50 471 272 967 50 744 b 546 -25 50 197 272 -25 b 1042 471 819 -25 1042 197 b 546 967 1042 744 819 967 z m 149 471 b 546 868 149 690 326 868 b 943 471 765 868 943 690 b 546 75 943 251 765 75 b 149 471 326 75 149 251 z "},"Ó":{"ha":1090,"x_min":0,"x_max":0,"o":"m 517 1042 l 656 1181 l 594 1240 l 457 1101 z m 546 967 b 50 471 272 967 50 744 b 546 -25 50 197 272 -25 b 1042 471 819 -25 1042 197 b 546 967 1042 744 819 967 z m 149 471 b 546 868 149 690 326 868 b 943 471 765 868 943 690 b 546 75 943 251 765 75 b 149 471 326 75 149 251 z "},"Ô":{"ha":1090,"x_min":0,"x_max":0,"o":"m 547 1154 l 719 1032 l 763 1083 l 565 1240 l 525 1240 l 328 1083 l 372 1032 l 543 1154 z m 546 967 b 50 471 272 967 50 744 b 546 -25 50 197 272 -25 b 1042 471 819 -25 1042 197 b 546 967 1042 744 819 967 z m 149 471 b 546 868 149 690 326 868 b 943 471 765 868 943 690 b 546 75 943 251 765 75 b 149 471 326 75 149 251 z "},"Õ":{"ha":1090,"x_min":0,"x_max":0,"o":"m 665 1189 b 635 1156 660 1160 647 1156 b 600 1167 628 1156 617 1158 l 522 1208 b 457 1224 501 1219 478 1224 b 353 1131 410 1224 365 1197 l 344 1085 l 417 1071 l 426 1117 b 457 1150 432 1146 444 1150 b 493 1139 464 1150 476 1147 l 569 1097 b 635 1082 590 1086 614 1082 b 740 1175 682 1082 728 1108 l 749 1221 l 675 1235 z m 546 967 b 50 471 272 967 50 744 b 546 -25 50 197 272 -25 b 1042 471 819 -25 1042 197 b 546 967 1042 744 819 967 z m 149 471 b 546 868 149 690 326 868 b 943 471 765 868 943 690 b 546 75 943 251 765 75 b 149 471 326 75 149 251 z "},"Ö":{"ha":1090,"x_min":0,"x_max":0,"o":"m 682 1215 b 614 1147 644 1215 614 1185 b 682 1079 614 1110 644 1079 b 750 1147 719 1079 750 1110 b 682 1215 750 1185 719 1215 z m 415 1215 b 347 1147 378 1215 347 1185 b 415 1079 347 1110 378 1079 b 483 1147 453 1079 483 1110 b 415 1215 483 1185 453 1215 z m 546 967 b 50 471 272 967 50 744 b 546 -25 50 197 272 -25 b 1042 471 819 -25 1042 197 b 546 967 1042 744 819 967 z m 149 471 b 546 868 149 690 326 868 b 943 471 765 868 943 690 b 546 75 943 251 765 75 b 149 471 326 75 149 251 z "},"×":{"ha":496,"x_min":0,"x_max":0,"o":"m 249 515 l 108 657 l 38 586 l 179 446 l 38 307 l 108 236 l 249 376 l 388 236 l 458 307 l 318 446 l 457 586 l 388 658 z "},"Ø":{"ha":1090,"x_min":0,"x_max":0,"o":"m 860 714 b 943 471 913 647 943 563 b 546 75 943 251 765 75 b 303 157 454 75 369 104 z m 790 785 l 232 228 b 149 471 179 294 149 379 b 546 868 149 690 326 868 b 790 785 638 868 724 838 z m 957 951 l 861 854 b 546 967 775 925 665 967 b 50 471 272 967 50 744 b 161 157 50 351 92 243 l 64 60 l 133 -10 l 232 86 b 546 -25 318 17 426 -25 b 1042 471 819 -25 1042 197 b 931 785 1042 590 1000 699 l 1026 882 z "},"Ù":{"ha":892,"x_min":0,"x_max":0,"o":"m 476 1042 l 536 1101 l 399 1240 l 338 1181 z m 63 943 l 63 843 l 99 843 l 99 322 b 446 -25 99 131 254 -25 b 793 322 638 -25 793 131 l 793 943 l 694 943 l 694 322 b 446 75 694 186 582 75 b 199 322 310 75 199 186 l 199 943 z "},"Ú":{"ha":892,"x_min":0,"x_max":0,"o":"m 417 1042 l 556 1181 l 494 1240 l 357 1101 z m 63 943 l 63 843 l 99 843 l 99 322 b 446 -25 99 131 254 -25 b 793 322 638 -25 793 131 l 793 943 l 694 943 l 694 322 b 446 75 694 186 582 75 b 199 322 310 75 199 186 l 199 943 z "},"Û":{"ha":892,"x_min":0,"x_max":0,"o":"m 449 1154 l 621 1032 l 664 1083 l 467 1240 l 426 1240 l 229 1083 l 274 1032 l 444 1154 z m 63 943 l 63 843 l 99 843 l 99 322 b 446 -25 99 131 254 -25 b 793 322 638 -25 793 131 l 793 943 l 694 943 l 694 322 b 446 75 694 186 582 75 b 199 322 310 75 199 186 l 199 943 z "},"Ü":{"ha":892,"x_min":0,"x_max":0,"o":"m 583 1215 b 515 1147 546 1215 515 1185 b 583 1078 515 1110 546 1078 b 651 1147 621 1078 651 1110 b 583 1215 651 1185 621 1215 z m 317 1215 b 249 1147 279 1215 249 1185 b 317 1078 249 1110 279 1078 b 385 1147 354 1078 385 1110 b 317 1215 385 1185 354 1215 z m 63 943 l 63 843 l 99 843 l 99 322 b 446 -25 99 131 254 -25 b 793 322 638 -25 793 131 l 793 943 l 694 943 l 694 322 b 446 75 694 186 582 75 b 199 322 310 75 199 186 l 199 943 z "},"Ý":{"ha":892,"x_min":0,"x_max":0,"o":"m 417 1042 l 556 1181 l 494 1240 l 357 1101 z m 868 943 l 769 943 l 769 936 l 446 436 l 118 943 l 25 943 l 25 843 l 64 843 l 397 331 l 397 0 l 496 0 l 496 331 l 868 908 z "},"Þ":{"ha":843,"x_min":0,"x_max":0,"o":"m 199 744 l 471 744 b 694 521 593 744 694 643 b 471 297 694 399 593 297 l 199 297 z m 99 943 l 99 0 l 199 0 l 199 199 l 471 199 b 793 521 650 199 793 342 b 471 843 793 700 650 843 l 199 843 l 199 943 z "},"ß":{"ha":743,"x_min":0,"x_max":0,"o":"m 272 596 l 272 494 l 294 486 b 596 164 458 418 596 289 b 471 75 596 111 558 75 b 347 126 418 75 381 92 l 347 168 l 249 168 l 249 90 l 260 76 b 471 -25 322 1 393 -25 b 694 161 613 -25 694 56 b 331 542 694 282 589 465 l 331 543 b 521 744 463 557 521 647 b 310 967 521 854 443 967 b 99 757 194 967 99 874 l 99 644 l 63 644 l 63 546 l 99 546 l 99 0 l 199 0 l 199 757 b 310 868 199 819 249 868 b 422 740 386 868 422 806 b 297 596 422 667 376 596 z "},"à":{"ha":743,"x_min":0,"x_max":0,"o":"m 408 757 l 468 817 l 331 956 l 269 896 z m 322 297 l 546 297 l 546 168 b 322 75 513 118 419 75 b 149 193 219 75 149 121 b 322 297 149 233 189 297 z m 682 0 l 682 99 l 644 99 l 644 446 b 378 669 644 622 497 669 b 178 628 307 669 232 654 l 149 613 l 149 515 l 249 515 l 249 550 b 378 571 283 563 329 571 b 546 446 458 571 546 547 l 546 397 l 322 397 b 50 193 144 397 50 300 b 297 -25 50 47 193 -25 b 546 75 388 -25 482 13 l 546 0 z "},"á":{"ha":743,"x_min":0,"x_max":0,"o":"m 349 757 l 488 896 l 426 956 l 289 817 z m 322 297 l 546 297 l 546 168 b 322 75 513 118 419 75 b 149 193 219 75 149 121 b 322 297 149 233 189 297 z m 682 0 l 682 99 l 644 99 l 644 446 b 378 669 644 622 497 669 b 178 628 307 669 232 654 l 149 613 l 149 515 l 249 515 l 249 550 b 378 571 283 563 329 571 b 546 446 458 571 546 547 l 546 397 l 322 397 b 50 193 144 397 50 300 b 297 -25 50 47 193 -25 b 546 75 388 -25 482 13 l 546 0 z "},"â":{"ha":743,"x_min":0,"x_max":0,"o":"m 381 893 l 553 771 l 596 822 l 399 979 l 358 979 l 161 822 l 206 771 l 376 893 z m 322 297 l 546 297 l 546 168 b 322 75 513 118 419 75 b 149 193 219 75 149 121 b 322 297 149 233 189 297 z m 682 0 l 682 99 l 644 99 l 644 446 b 378 669 644 622 497 669 b 178 628 307 669 232 654 l 149 613 l 149 515 l 249 515 l 249 550 b 378 571 283 563 329 571 b 546 446 458 571 546 547 l 546 397 l 322 397 b 50 193 144 397 50 300 b 297 -25 50 47 193 -25 b 546 75 388 -25 482 13 l 546 0 z "},"ã":{"ha":743,"x_min":0,"x_max":0,"o":"m 497 904 b 467 871 492 875 479 871 b 432 882 460 871 449 874 l 354 924 b 289 939 333 935 310 939 b 185 846 242 939 197 913 l 176 800 l 249 786 l 258 832 b 289 865 264 861 276 865 b 325 854 296 865 308 863 l 401 813 b 467 797 422 801 446 797 b 572 890 514 797 560 824 l 581 936 l 507 950 z m 322 297 l 546 297 l 546 168 b 322 75 513 118 419 75 b 149 193 219 75 149 121 b 322 297 149 233 189 297 z m 682 0 l 682 99 l 644 99 l 644 446 b 378 669 644 622 497 669 b 178 628 307 669 232 654 l 149 613 l 149 515 l 249 515 l 249 550 b 378 571 283 563 329 571 b 546 446 458 571 546 547 l 546 397 l 322 397 b 50 193 144 397 50 300 b 297 -25 50 47 193 -25 b 546 75 388 -25 482 13 l 546 0 z "},"ä":{"ha":743,"x_min":0,"x_max":0,"o":"m 515 918 b 447 850 478 918 447 888 b 515 781 447 813 478 781 b 583 850 553 781 583 813 b 515 918 583 888 553 918 z m 249 918 b 181 850 211 918 181 888 b 249 781 181 813 211 781 b 317 850 286 781 317 813 b 249 918 317 888 286 918 z m 322 297 l 546 297 l 546 168 b 322 75 513 118 419 75 b 149 193 219 75 149 121 b 322 297 149 233 189 297 z m 682 0 l 682 99 l 644 99 l 644 446 b 378 669 644 622 497 669 b 178 628 307 669 232 654 l 149 613 l 149 515 l 249 515 l 249 550 b 378 571 283 563 329 571 b 546 446 458 571 546 547 l 546 397 l 322 397 b 50 193 144 397 50 300 b 297 -25 50 47 193 -25 b 546 75 388 -25 482 13 l 546 0 z "},"å":{"ha":743,"x_min":0,"x_max":0,"o":"m 378 868 b 411 850 385 868 394 867 b 428 818 421 842 428 832 b 411 786 428 804 421 794 b 378 769 394 769 385 769 b 344 785 371 769 361 768 b 328 818 328 801 328 811 b 344 850 328 832 335 842 b 378 868 361 867 371 868 z m 378 943 b 293 906 349 943 319 931 b 254 818 267 881 254 850 b 293 733 254 786 267 758 b 378 694 319 708 349 694 b 463 732 407 694 436 707 b 501 818 489 757 501 786 b 463 906 501 850 489 881 b 378 943 436 931 407 943 z m 322 297 l 546 297 l 546 168 b 322 75 513 118 419 75 b 149 193 219 75 149 121 b 322 297 149 233 189 297 z m 682 0 l 682 99 l 644 99 l 644 446 b 378 669 644 622 497 669 b 178 628 307 669 232 654 l 149 613 l 149 515 l 249 515 l 249 550 b 378 571 283 563 329 571 b 546 446 458 571 546 547 l 546 397 l 322 397 b 50 193 144 397 50 300 b 297 -25 50 47 193 -25 b 546 75 388 -25 482 13 l 546 0 z "},"æ":{"ha":1239,"x_min":0,"x_max":0,"o":"m 850 397 l 656 397 b 893 571 688 497 783 571 b 1056 510 956 571 1013 547 b 850 397 1003 463 918 397 z m 322 297 l 546 297 l 546 168 b 322 75 513 118 419 75 b 149 193 219 75 149 121 b 322 297 149 233 189 297 z m 644 0 l 644 79 b 893 -25 708 15 796 -25 b 1147 86 993 -25 1083 18 l 1074 154 b 893 75 1028 106 965 75 b 646 297 765 75 658 172 l 849 297 l 850 297 b 1158 469 974 297 1088 408 l 1194 500 l 1165 539 b 893 669 1101 619 1003 669 b 625 544 786 669 689 621 b 378 669 582 642 471 669 b 178 628 307 669 232 654 l 149 615 l 149 515 l 249 515 l 249 550 b 378 571 283 563 329 571 b 546 446 458 571 546 547 l 546 397 l 322 397 b 50 193 144 397 50 300 b 297 -25 50 47 193 -25 b 546 75 388 -25 482 13 l 546 0 z "},"ç":{"ha":694,"x_min":0,"x_max":0,"o":"m 372 -137 b 415 -118 382 -125 399 -118 b 472 -183 444 -118 472 -139 b 410 -247 472 -226 440 -247 b 347 -211 385 -247 361 -233 l 340 -200 l 286 -231 l 292 -243 b 414 -310 318 -286 367 -310 b 546 -187 481 -310 546 -264 b 417 -57 546 -122 499 -57 b 396 -57 411 -57 403 -56 l 406 -25 b 651 86 501 -22 590 19 l 579 153 b 397 75 533 104 469 75 b 149 322 261 75 149 186 b 397 571 149 458 261 571 b 546 521 453 571 504 551 l 546 496 l 644 496 l 644 567 l 628 582 b 397 669 565 636 485 669 b 50 322 206 669 50 514 b 342 -21 50 150 176 6 l 313 -124 z "},"è":{"ha":743,"x_min":0,"x_max":0,"o":"m 428 757 l 488 817 l 350 956 l 289 896 z m 150 297 l 353 297 b 663 469 476 297 592 408 l 699 500 l 669 539 b 397 669 606 619 507 669 b 50 322 206 669 50 514 b 397 -25 50 131 206 -25 b 651 86 497 -25 588 18 l 578 154 b 397 75 532 106 469 75 b 150 297 269 75 163 172 z m 353 397 l 160 397 b 397 571 192 497 288 571 b 560 510 460 571 517 547 b 353 397 507 463 421 397 z "},"é":{"ha":743,"x_min":0,"x_max":0,"o":"m 368 757 l 507 896 l 446 956 l 308 817 z m 150 297 l 353 297 b 663 469 476 297 592 408 l 699 500 l 669 539 b 397 669 606 619 507 669 b 50 322 206 669 50 514 b 397 -25 50 131 206 -25 b 651 86 497 -25 588 18 l 578 154 b 397 75 532 106 469 75 b 150 297 269 75 163 172 z m 353 397 l 160 397 b 397 571 192 497 288 571 b 560 510 460 571 517 547 b 353 397 507 463 421 397 z "},"ê":{"ha":743,"x_min":0,"x_max":0,"o":"m 399 893 l 571 771 l 614 822 l 417 979 l 376 979 l 179 822 l 224 771 l 394 893 z m 150 297 l 353 297 b 663 469 476 297 592 408 l 699 500 l 669 539 b 397 669 606 619 507 669 b 50 322 206 669 50 514 b 397 -25 50 131 206 -25 b 651 86 497 -25 588 18 l 578 154 b 397 75 532 106 469 75 b 150 297 269 75 163 172 z m 353 397 l 160 397 b 397 571 192 497 288 571 b 560 510 460 571 517 547 b 353 397 507 463 421 397 z "},"ë":{"ha":743,"x_min":0,"x_max":0,"o":"m 533 918 b 465 850 496 918 465 888 b 533 781 465 813 496 781 b 601 850 571 781 601 813 b 533 918 601 888 571 918 z m 267 918 b 199 850 229 918 199 888 b 267 781 199 813 229 781 b 335 850 304 781 335 813 b 267 918 335 888 304 918 z m 150 297 l 353 297 b 663 469 476 297 592 408 l 699 500 l 669 539 b 397 669 606 619 507 669 b 50 322 206 669 50 514 b 397 -25 50 131 206 -25 b 651 86 497 -25 588 18 l 578 154 b 397 75 532 106 469 75 b 150 297 269 75 163 172 z m 353 397 l 160 397 b 397 571 192 497 288 571 b 560 510 460 571 517 547 b 353 397 507 463 421 397 z "},"ì":{"ha":297,"x_min":0,"x_max":0,"o":"m 179 757 l 239 817 l 101 956 l 40 896 z m 99 546 l 99 0 l 199 0 l 199 644 l 63 644 l 63 546 z "},"í":{"ha":297,"x_min":0,"x_max":0,"o":"m 119 757 l 258 896 l 197 956 l 60 817 z m 99 546 l 99 0 l 199 0 l 199 644 l 63 644 l 63 546 z "},"î":{"ha":297,"x_min":0,"x_max":0,"o":"m 151 893 l 292 796 l 335 847 l 168 979 l 129 979 l -37 847 l 6 796 l 146 893 z m 99 546 l 99 0 l 199 0 l 199 644 l 63 644 l 63 546 z "},"ï":{"ha":297,"x_min":0,"x_max":0,"o":"m 99 546 l 99 0 l 199 0 l 199 644 l 63 644 l 63 546 z m 261 918 b 192 850 224 918 192 888 b 261 781 192 813 224 781 b 329 850 299 781 329 813 b 261 918 329 888 299 918 z m 43 918 b -25 850 6 918 -25 888 b 43 781 -25 813 6 781 b 111 850 81 781 111 813 b 43 918 111 888 81 918 z "},"ð":{"ha":644,"x_min":0,"x_max":0,"o":"m 310 571 b 496 311 350 571 496 531 b 310 75 496 311 482 75 b 149 322 247 75 149 143 b 310 571 149 503 250 571 z m 596 308 b 492 782 596 581 543 708 l 592 810 l 567 881 l 446 836 b 307 917 406 874 360 899 l 272 824 b 336 797 293 817 317 807 l 257 769 l 283 724 l 397 756 b 503 576 442 717 478 661 l 501 576 b 310 669 449 642 363 669 b 50 322 183 669 50 546 b 310 -25 50 100 182 -25 b 596 308 576 -25 596 308 z "},"ñ":{"ha":793,"x_min":0,"x_max":0,"o":"m 517 904 b 486 871 511 875 499 871 b 451 882 479 871 468 874 l 374 924 b 308 939 353 935 329 939 b 204 846 261 939 217 913 l 196 800 l 268 786 l 278 832 b 308 865 283 861 296 865 b 344 854 315 865 328 863 l 421 813 b 486 797 442 801 465 797 b 592 890 533 797 579 824 l 600 936 l 526 950 z m 99 546 l 99 0 l 199 0 l 199 297 b 446 571 199 458 315 571 b 596 446 518 571 596 544 l 596 0 l 732 0 l 732 99 l 694 99 l 694 446 b 471 669 694 601 569 669 b 199 503 369 669 261 613 l 199 644 l 63 644 l 63 546 z "},"ò":{"ha":793,"x_min":0,"x_max":0,"o":"m 428 757 l 488 817 l 350 956 l 289 896 z m 397 669 b 50 322 206 669 50 514 b 397 -25 50 131 206 -25 b 744 322 589 -25 744 131 b 397 669 744 514 589 669 z m 149 322 b 397 571 149 458 261 571 b 644 322 533 571 644 458 b 397 75 644 186 533 75 b 149 322 261 75 149 186 z "},"ó":{"ha":793,"x_min":0,"x_max":0,"o":"m 367 757 l 506 896 l 446 956 l 307 817 z m 397 669 b 50 322 206 669 50 514 b 397 -25 50 131 206 -25 b 744 322 589 -25 744 131 b 397 669 744 514 589 669 z m 149 322 b 397 571 149 458 261 571 b 644 322 533 571 644 458 b 397 75 644 186 533 75 b 149 322 261 75 149 186 z "},"ô":{"ha":793,"x_min":0,"x_max":0,"o":"m 400 893 l 571 771 l 614 822 l 417 979 l 376 979 l 179 822 l 224 771 l 394 893 z m 397 669 b 50 322 206 669 50 514 b 397 -25 50 131 206 -25 b 744 322 589 -25 744 131 b 397 669 744 514 589 669 z m 149 322 b 397 571 149 458 261 571 b 644 322 533 571 644 458 b 397 75 644 186 533 75 b 149 322 261 75 149 186 z "},"õ":{"ha":793,"x_min":0,"x_max":0,"o":"m 517 904 b 486 871 511 875 499 871 b 451 882 479 871 468 874 l 374 924 b 308 939 353 935 329 939 b 204 846 261 939 217 913 l 196 800 l 268 786 l 278 832 b 308 865 283 861 296 865 b 344 854 315 865 328 863 l 421 813 b 486 797 442 801 465 797 b 592 890 533 797 579 824 l 600 936 l 526 950 z m 397 669 b 50 322 206 669 50 514 b 397 -25 50 131 206 -25 b 744 322 589 -25 744 131 b 397 669 744 514 589 669 z m 149 322 b 397 571 149 458 261 571 b 644 322 533 571 644 458 b 397 75 644 186 533 75 b 149 322 261 75 149 186 z "},"ö":{"ha":793,"x_min":0,"x_max":0,"o":"m 533 918 b 465 850 496 918 465 888 b 533 781 465 813 496 781 b 601 850 571 781 601 813 b 533 918 601 888 571 918 z m 267 918 b 199 850 229 918 199 888 b 267 781 199 813 229 781 b 335 850 304 781 335 813 b 267 918 335 888 304 918 z m 397 669 b 50 322 206 669 50 514 b 397 -25 50 131 206 -25 b 744 322 589 -25 744 131 b 397 669 744 514 589 669 z m 149 322 b 397 571 149 458 261 571 b 644 322 533 571 644 458 b 397 75 644 186 533 75 b 149 322 261 75 149 186 z "},"÷":{"ha":544,"x_min":0,"x_max":0,"o":"m 496 397 l 496 496 l 50 496 l 50 397 z m 211 236 b 272 174 211 201 238 174 b 335 236 307 174 335 201 b 272 297 335 271 307 297 b 211 236 238 297 211 271 z m 211 657 b 272 596 211 622 238 596 b 335 657 307 596 335 622 b 272 719 335 692 307 719 b 211 657 238 719 211 692 z "},"ø":{"ha":793,"x_min":0,"x_max":0,"o":"m 533 528 l 192 186 b 149 322 165 226 149 271 b 397 571 149 458 261 571 b 533 528 449 571 493 554 z m 603 458 b 644 322 629 418 644 374 b 397 75 644 186 533 75 b 261 117 346 75 301 90 z m 110 -35 l 189 44 b 397 -25 247 1 319 -25 b 744 322 589 -25 744 131 b 675 531 744 400 718 472 l 754 610 l 685 679 l 606 600 b 397 669 547 643 475 669 b 50 322 206 669 50 514 b 119 114 50 244 76 172 l 40 35 z "},"ù":{"ha":793,"x_min":0,"x_max":0,"o":"m 428 757 l 488 817 l 350 956 l 289 896 z m 694 99 l 694 644 l 596 644 l 596 347 b 347 75 596 186 478 75 b 199 199 275 75 199 100 l 199 644 l 63 644 l 63 546 l 99 546 l 99 199 b 322 -25 99 43 224 -25 b 596 142 424 -25 533 32 l 596 0 l 732 0 l 732 99 z "},"ú":{"ha":793,"x_min":0,"x_max":0,"o":"m 368 757 l 507 896 l 446 956 l 308 817 z m 694 99 l 694 644 l 596 644 l 596 347 b 347 75 596 186 478 75 b 199 199 275 75 199 100 l 199 644 l 63 644 l 63 546 l 99 546 l 99 199 b 322 -25 99 43 224 -25 b 596 142 424 -25 533 32 l 596 0 l 732 0 l 732 99 z "},"û":{"ha":793,"x_min":0,"x_max":0,"o":"m 399 893 l 571 771 l 614 822 l 417 979 l 376 979 l 179 822 l 224 771 l 394 893 z m 694 99 l 694 644 l 596 644 l 596 347 b 347 75 596 186 478 75 b 199 199 275 75 199 100 l 199 644 l 63 644 l 63 546 l 99 546 l 99 199 b 322 -25 99 43 224 -25 b 596 142 424 -25 533 32 l 596 0 l 732 0 l 732 99 z "},"ü":{"ha":793,"x_min":0,"x_max":0,"o":"m 533 918 b 465 850 496 918 465 888 b 533 781 465 813 496 781 b 601 850 571 781 601 813 b 533 918 601 888 571 918 z m 267 918 b 199 850 229 918 199 888 b 267 781 199 813 229 781 b 335 850 304 781 335 813 b 267 918 335 888 304 918 z m 694 99 l 694 644 l 596 644 l 596 347 b 347 75 596 186 478 75 b 199 199 275 75 199 100 l 199 644 l 63 644 l 63 546 l 99 546 l 99 199 b 322 -25 99 43 224 -25 b 596 142 424 -25 533 32 l 596 0 l 732 0 l 732 99 z "},"ý":{"ha":743,"x_min":0,"x_max":0,"o":"m 342 757 l 481 896 l 421 956 l 283 817 z m 344 -164 l 719 614 l 719 644 l 619 644 l 619 636 l 360 96 l 115 644 l 25 644 l 25 546 l 51 546 l 303 -22 l 256 -122 b 179 -199 239 -156 214 -199 b 124 -168 160 -199 138 -183 l 124 -150 l 25 -150 l 25 -203 l 33 -214 b 179 -297 65 -261 121 -297 b 344 -164 278 -297 328 -194 z "},"þ":{"ha":793,"x_min":0,"x_max":0,"o":"m 744 322 b 433 669 744 547 576 669 b 199 532 342 669 251 625 l 199 943 l 63 943 l 63 843 l 99 843 l 99 -297 l 199 -297 l 199 113 b 433 -25 251 19 342 -25 b 744 322 576 -25 744 97 z m 199 322 b 422 571 199 460 288 571 b 644 322 556 571 644 463 b 422 75 644 185 557 75 b 199 322 289 75 199 182 z "},"ÿ":{"ha":743,"x_min":0,"x_max":0,"o":"m 508 918 b 440 850 471 918 440 888 b 508 781 440 813 471 781 b 576 850 546 781 576 813 b 508 918 576 888 546 918 z m 242 918 b 174 850 204 918 174 888 b 242 781 174 813 204 781 b 310 850 279 781 310 813 b 242 918 310 888 279 918 z m 344 -164 l 719 614 l 719 644 l 619 644 l 619 636 l 360 96 l 115 644 l 25 644 l 25 546 l 51 546 l 303 -22 l 256 -122 b 179 -199 239 -156 214 -199 b 124 -168 160 -199 138 -183 l 124 -150 l 25 -150 l 25 -203 l 33 -214 b 179 -297 65 -261 121 -297 b 344 -164 278 -297 328 -194 z "},"Ā":{"ha":843,"x_min":0,"x_max":0,"o":"m 632 1140 l 632 1215 l 236 1215 l 236 1140 z m 435 778 l 607 322 l 265 322 z m 76 99 l 50 99 l 50 0 l 146 0 l 229 224 l 643 224 l 735 -17 l 826 17 l 469 967 l 400 967 z "},"ā":{"ha":743,"x_min":0,"x_max":0,"o":"m 576 843 l 576 918 l 181 918 l 181 843 z m 322 297 l 546 297 l 546 168 b 322 75 513 118 419 75 b 149 193 219 75 149 121 b 322 297 149 233 189 297 z m 682 0 l 682 99 l 644 99 l 644 446 b 378 669 644 622 497 669 b 178 628 307 669 232 654 l 149 613 l 149 515 l 249 515 l 249 550 b 378 571 283 563 329 571 b 546 446 458 571 546 547 l 546 397 l 322 397 b 50 193 144 397 50 300 b 297 -25 50 47 193 -25 b 546 75 388 -25 482 13 l 546 0 z "},"Ă":{"ha":843,"x_min":0,"x_max":0,"o":"m 574 1231 b 433 1160 542 1182 494 1160 b 293 1231 372 1160 325 1182 l 288 1240 l 225 1199 l 232 1188 b 433 1085 256 1153 313 1085 b 635 1188 554 1085 611 1153 l 642 1199 l 579 1240 z m 435 778 l 607 322 l 265 322 z m 76 99 l 50 99 l 50 0 l 146 0 l 229 224 l 643 224 l 735 -17 l 826 17 l 469 967 l 400 967 z "},"ă":{"ha":743,"x_min":0,"x_max":0,"o":"m 518 939 b 378 868 486 890 439 868 b 238 939 317 868 269 890 l 232 949 l 169 907 l 176 896 b 378 793 200 861 257 793 b 579 896 499 793 556 861 l 586 907 l 524 949 z m 322 297 l 546 297 l 546 168 b 322 75 513 118 419 75 b 149 193 219 75 149 121 b 322 297 149 233 189 297 z m 682 0 l 682 99 l 644 99 l 644 446 b 378 669 644 622 497 669 b 178 628 307 669 232 654 l 149 613 l 149 515 l 249 515 l 249 550 b 378 571 283 563 329 571 b 546 446 458 571 546 547 l 546 397 l 322 397 b 50 193 144 397 50 300 b 297 -25 50 47 193 -25 b 546 75 388 -25 482 13 l 546 0 z "},"Ą":{"ha":843,"x_min":0,"x_max":0,"o":"m 435 778 l 607 322 l 265 322 z m 708 -149 b 678 -122 688 -149 678 -135 b 789 4 678 -69 719 -40 l 826 17 l 469 967 l 400 967 l 76 99 l 50 99 l 50 0 l 146 0 l 229 224 l 643 224 l 718 25 b 636 -32 678 0 654 -15 b 588 -137 589 -75 588 -117 b 708 -249 588 -196 638 -249 b 786 -226 732 -249 758 -243 l 736 -140 b 708 -149 726 -146 717 -149 z "},"ą":{"ha":743,"x_min":0,"x_max":0,"o":"m 322 297 l 546 297 l 546 168 b 322 75 513 118 419 75 b 149 193 219 75 149 121 b 322 297 149 233 189 297 z m 588 0 b 479 -137 501 -42 479 -83 b 599 -249 479 -196 528 -249 b 678 -226 622 -249 650 -243 l 628 -140 b 599 -149 618 -146 607 -149 b 569 -122 578 -149 569 -135 b 682 6 569 -69 614 -35 l 682 99 l 644 99 l 644 446 b 378 669 644 622 497 669 b 178 628 307 669 232 654 l 149 615 l 149 515 l 249 515 l 249 550 b 378 571 283 563 329 571 b 546 446 458 571 546 547 l 546 397 l 322 397 b 50 193 144 397 50 300 b 297 -25 50 47 193 -25 b 546 75 388 -25 482 13 l 546 10 l 588 4 z "},"Ć":{"ha":892,"x_min":0,"x_max":0,"o":"m 492 1042 l 631 1181 l 569 1240 l 432 1101 z m 744 815 l 744 781 l 843 781 l 843 868 l 821 883 b 546 967 743 936 647 967 b 50 471 272 967 50 744 b 546 -25 50 197 272 -25 b 832 65 653 -25 751 7 l 775 147 b 546 75 710 101 632 75 b 149 471 326 75 149 251 b 546 868 149 690 326 868 b 744 815 618 868 686 849 z "},"ć":{"ha":694,"x_min":0,"x_max":0,"o":"m 367 757 l 506 896 l 446 956 l 307 817 z m 546 521 l 546 496 l 644 496 l 644 567 l 628 582 b 397 669 565 636 485 669 b 50 322 206 669 50 514 b 397 -25 50 131 206 -25 b 651 86 496 -25 588 18 l 579 153 b 397 75 533 104 469 75 b 149 322 261 75 149 186 b 397 571 149 458 261 571 b 546 521 453 571 504 551 z "},"Ĉ":{"ha":892,"x_min":0,"x_max":0,"o":"m 522 1154 l 694 1032 l 738 1083 l 540 1240 l 500 1240 l 303 1083 l 347 1032 l 518 1154 z m 744 815 l 744 781 l 843 781 l 843 868 l 821 883 b 546 967 743 936 647 967 b 50 471 272 967 50 744 b 546 -25 50 197 272 -25 b 832 65 653 -25 751 7 l 775 147 b 546 75 710 101 632 75 b 149 471 326 75 149 251 b 546 868 149 690 326 868 b 744 815 618 868 686 849 z "},"ĉ":{"ha":694,"x_min":0,"x_max":0,"o":"m 400 893 l 571 771 l 614 822 l 417 979 l 376 979 l 179 822 l 224 771 l 394 893 z m 546 521 l 546 496 l 644 496 l 644 567 l 628 582 b 397 669 565 636 485 669 b 50 322 206 669 50 514 b 397 -25 50 131 206 -25 b 651 86 496 -25 588 18 l 579 153 b 397 75 533 104 469 75 b 149 322 261 75 149 186 b 397 571 149 458 261 571 b 546 521 453 571 504 551 z "},"Ċ":{"ha":892,"x_min":0,"x_max":0,"o":"m 521 1215 b 451 1147 483 1215 451 1185 b 521 1078 451 1110 483 1078 b 589 1147 558 1078 589 1110 b 521 1215 589 1185 558 1215 z m 744 815 l 744 781 l 843 781 l 843 868 l 821 883 b 546 967 743 936 647 967 b 50 471 272 967 50 744 b 546 -25 50 197 272 -25 b 832 65 653 -25 751 7 l 775 147 b 546 75 710 101 632 75 b 149 471 326 75 149 251 b 546 868 149 690 326 868 b 744 815 618 868 686 849 z "},"ċ":{"ha":694,"x_min":0,"x_max":0,"o":"m 397 918 b 329 850 360 918 329 888 b 397 781 329 813 360 781 b 465 850 435 781 465 813 b 397 918 465 888 435 918 z m 546 521 l 546 496 l 644 496 l 644 567 l 628 582 b 397 669 565 636 485 669 b 50 322 206 669 50 514 b 397 -25 50 131 206 -25 b 651 86 496 -25 588 18 l 579 153 b 397 75 533 104 469 75 b 149 322 261 75 149 186 b 397 571 149 458 261 571 b 546 521 453 571 504 551 z "},"Č":{"ha":892,"x_min":0,"x_max":0,"o":"m 522 1118 l 518 1118 l 347 1240 l 303 1189 l 500 1032 l 540 1032 l 738 1189 l 694 1240 z m 744 815 l 744 781 l 843 781 l 843 868 l 821 883 b 546 967 743 936 647 967 b 50 471 272 967 50 744 b 546 -25 50 197 272 -25 b 832 65 653 -25 751 7 l 775 147 b 546 75 710 101 632 75 b 149 471 326 75 149 251 b 546 868 149 690 326 868 b 744 815 618 868 686 849 z "},"č":{"ha":694,"x_min":0,"x_max":0,"o":"m 400 843 l 394 843 l 224 965 l 179 914 l 376 757 l 417 757 l 614 914 l 571 965 z m 546 521 l 546 496 l 644 496 l 644 567 l 628 582 b 397 669 565 636 485 669 b 50 322 206 669 50 514 b 397 -25 50 131 206 -25 b 651 86 496 -25 588 18 l 579 153 b 397 75 533 104 469 75 b 149 322 261 75 149 186 b 397 571 149 458 261 571 b 546 521 453 571 504 551 z "},"Ď":{"ha":942,"x_min":0,"x_max":0,"o":"m 424 1118 l 419 1118 l 249 1240 l 204 1189 l 401 1032 l 442 1032 l 639 1189 l 596 1240 z m 199 99 l 199 843 l 422 843 b 793 471 628 843 793 676 b 422 99 793 265 628 99 z m 63 943 l 63 843 l 99 843 l 99 0 l 422 0 b 893 471 683 0 893 210 b 422 943 893 732 683 943 z "},"ď":{"ha":942,"x_min":0,"x_max":0,"o":"m 808 822 b 761 724 808 797 789 751 l 797 688 b 893 881 851 739 893 804 b 831 942 893 915 865 942 b 769 881 796 942 769 915 b 808 822 769 854 785 831 z m 596 322 b 372 75 596 182 506 75 b 149 322 238 75 149 185 b 372 571 149 463 239 571 b 596 322 507 571 596 460 z m 732 0 l 732 99 l 694 99 l 694 943 l 558 943 l 558 843 l 596 843 l 596 532 b 360 669 543 625 451 669 b 50 322 217 669 50 547 b 360 -25 50 97 217 -25 b 596 113 451 -25 543 19 l 596 0 z "},"Đ":{"ha":942,"x_min":0,"x_max":0,"o":"m 99 843 l 99 496 l 50 496 l 50 397 l 99 397 l 99 0 l 422 0 b 893 471 683 0 893 210 b 422 943 893 732 683 943 l 63 943 l 63 843 z m 199 99 l 199 397 l 446 397 l 446 496 l 199 496 l 199 843 l 422 843 b 793 471 628 843 793 676 b 422 99 793 265 628 99 z "},"đ":{"ha":793,"x_min":0,"x_max":0,"o":"m 744 818 l 694 818 l 694 943 l 571 943 l 571 868 l 596 868 l 596 818 l 347 818 l 347 744 l 596 744 l 596 532 b 360 669 543 625 451 669 b 50 322 217 669 50 547 b 360 -25 50 97 217 -25 b 596 113 451 -25 543 19 l 596 0 l 732 0 l 732 99 l 694 99 l 694 744 l 744 744 z m 596 322 b 372 75 596 182 506 75 b 149 322 238 75 149 185 b 372 571 149 463 239 571 b 596 322 507 571 596 460 z "},"Ē":{"ha":793,"x_min":0,"x_max":0,"o":"m 594 1140 l 594 1215 l 199 1215 l 199 1140 z m 596 843 l 596 806 l 694 806 l 694 943 l 63 943 l 63 843 l 99 843 l 99 0 l 744 0 l 744 136 l 644 136 l 644 99 l 199 99 l 199 397 l 446 397 l 446 496 l 199 496 l 199 843 z "},"ē":{"ha":743,"x_min":0,"x_max":0,"o":"m 594 843 l 594 918 l 199 918 l 199 843 z m 150 297 l 353 297 b 663 469 476 297 592 408 l 699 500 l 669 539 b 397 669 606 619 507 669 b 50 322 206 669 50 514 b 397 -25 50 131 206 -25 b 651 86 497 -25 588 18 l 578 154 b 397 75 532 106 469 75 b 150 297 269 75 163 172 z m 353 397 l 160 397 b 397 571 192 497 288 571 b 560 510 460 571 517 547 b 353 397 507 463 421 397 z "},"Ĕ":{"ha":793,"x_min":0,"x_max":0,"o":"m 538 1231 b 397 1160 506 1182 458 1160 b 257 1231 336 1160 289 1182 l 251 1240 l 189 1199 l 196 1188 b 397 1085 219 1153 276 1085 b 599 1188 518 1085 575 1153 l 606 1199 l 543 1240 z m 596 843 l 596 806 l 694 806 l 694 943 l 63 943 l 63 843 l 99 843 l 99 0 l 744 0 l 744 136 l 644 136 l 644 99 l 199 99 l 199 397 l 446 397 l 446 496 l 199 496 l 199 843 z "},"ĕ":{"ha":743,"x_min":0,"x_max":0,"o":"m 538 939 b 397 868 506 890 458 868 b 257 939 336 868 289 890 l 251 949 l 189 907 l 196 896 b 397 793 219 861 276 793 b 599 896 518 793 575 861 l 606 907 l 543 949 z m 150 297 l 353 297 b 663 469 476 297 592 408 l 699 500 l 669 539 b 397 669 606 619 507 669 b 50 322 206 669 50 514 b 397 -25 50 131 206 -25 b 651 86 497 -25 588 18 l 578 154 b 397 75 532 106 469 75 b 150 297 269 75 163 172 z m 353 397 l 160 397 b 397 571 192 497 288 571 b 560 510 460 571 517 547 b 353 397 507 463 421 397 z "},"Ė":{"ha":793,"x_min":0,"x_max":0,"o":"m 397 1215 b 328 1147 360 1215 328 1185 b 397 1078 328 1110 360 1078 b 465 1147 435 1078 465 1110 b 397 1215 465 1185 435 1215 z m 596 843 l 596 806 l 694 806 l 694 943 l 63 943 l 63 843 l 99 843 l 99 0 l 744 0 l 744 136 l 644 136 l 644 99 l 199 99 l 199 397 l 446 397 l 446 496 l 199 496 l 199 843 z "},"ė":{"ha":743,"x_min":0,"x_max":0,"o":"m 397 918 b 328 850 360 918 328 888 b 397 781 328 813 360 781 b 465 850 435 781 465 813 b 397 918 465 888 435 918 z m 150 297 l 353 297 b 663 469 476 297 592 408 l 699 500 l 669 539 b 397 669 606 619 507 669 b 50 322 206 669 50 514 b 397 -25 50 131 206 -25 b 651 86 497 -25 588 18 l 578 154 b 397 75 532 106 469 75 b 150 297 269 75 163 172 z m 353 397 l 160 397 b 397 571 192 497 288 571 b 560 510 460 571 517 547 b 353 397 507 463 421 397 z "},"Ę":{"ha":793,"x_min":0,"x_max":0,"o":"m 601 -122 b 744 24 601 -62 654 -33 l 744 136 l 644 136 l 644 99 l 199 99 l 199 397 l 446 397 l 446 496 l 199 496 l 199 843 l 596 843 l 596 806 l 694 806 l 694 943 l 63 943 l 63 843 l 99 843 l 99 0 l 601 0 b 560 -32 585 -11 571 -21 b 511 -137 513 -75 511 -117 b 631 -249 511 -196 560 -249 b 710 -226 654 -249 682 -243 l 660 -140 b 631 -149 650 -146 639 -149 b 601 -122 610 -149 601 -135 z "},"ę":{"ha":743,"x_min":0,"x_max":0,"o":"m 461 -149 b 432 -122 440 -149 432 -135 b 575 25 432 -61 486 -32 b 651 86 603 42 629 63 l 578 154 b 397 75 532 106 469 75 b 150 297 269 75 163 172 l 353 297 b 663 469 476 297 592 408 l 699 500 l 669 539 b 397 669 606 619 507 669 b 50 322 206 669 50 514 b 397 -25 50 131 206 -25 b 417 -24 404 -25 408 -25 l 417 -25 b 342 -137 365 -58 342 -90 b 461 -249 342 -196 390 -249 b 540 -226 485 -249 513 -243 l 492 -140 b 461 -149 482 -146 469 -149 z m 353 397 l 160 397 b 397 571 192 497 288 571 b 560 510 460 571 517 547 b 353 397 507 463 421 397 z "},"Ě":{"ha":793,"x_min":0,"x_max":0,"o":"m 399 1118 l 394 1118 l 224 1240 l 179 1189 l 376 1032 l 417 1032 l 614 1189 l 571 1240 z m 596 843 l 596 806 l 694 806 l 694 943 l 63 943 l 63 843 l 99 843 l 99 0 l 744 0 l 744 136 l 644 136 l 644 99 l 199 99 l 199 397 l 446 397 l 446 496 l 199 496 l 199 843 z "},"ě":{"ha":743,"x_min":0,"x_max":0,"o":"m 399 843 l 394 843 l 224 965 l 179 914 l 376 757 l 417 757 l 614 914 l 571 965 z m 150 297 l 353 297 b 663 469 476 297 592 408 l 699 500 l 669 539 b 397 669 606 619 507 669 b 50 322 206 669 50 514 b 397 -25 50 131 206 -25 b 651 86 497 -25 588 18 l 578 154 b 397 75 532 106 469 75 b 150 297 269 75 163 172 z m 353 397 l 160 397 b 397 571 192 497 288 571 b 560 510 460 571 517 547 b 353 397 507 463 421 397 z "},"Ĝ":{"ha":942,"x_min":0,"x_max":0,"o":"m 522 1154 l 694 1032 l 738 1083 l 540 1240 l 500 1240 l 303 1083 l 347 1032 l 518 1154 z m 644 347 l 793 347 l 793 178 b 546 75 729 115 632 75 b 149 471 326 75 149 251 b 546 868 149 690 326 868 b 744 815 618 868 686 849 l 744 781 l 843 781 l 843 868 l 833 875 b 546 967 753 933 653 967 b 50 471 272 967 50 744 b 533 -25 50 188 286 -25 b 793 72 622 -25 713 13 l 793 0 l 893 0 l 893 446 l 644 446 z "},"ĝ":{"ha":694,"x_min":0,"x_max":0,"o":"m 349 893 l 521 771 l 564 822 l 367 979 l 326 979 l 129 822 l 174 771 l 344 893 z m 136 49 b 188 29 150 42 168 35 l 482 -42 b 583 -137 557 -58 583 -107 b 493 -199 583 -174 547 -199 l 240 -199 b 110 -53 147 -199 110 -126 b 136 49 110 -17 119 19 z m 210 125 b 168 174 190 131 168 144 b 196 243 168 190 176 214 b 347 199 238 214 290 199 b 596 433 471 199 596 278 b 569 546 596 476 586 515 l 669 546 l 669 644 l 464 644 b 347 669 428 661 388 669 b 99 433 224 669 99 589 b 154 281 99 371 119 321 b 85 129 125 242 85 182 b 96 86 85 114 89 100 b 25 -94 51 36 25 -31 b 240 -297 25 -207 101 -297 l 493 -297 b 682 -137 611 -297 682 -225 b 504 54 682 -51 613 28 z m 199 433 b 347 571 199 528 272 571 b 496 433 422 571 496 529 b 347 297 496 339 422 297 b 199 433 272 297 199 339 z "},"Ğ":{"ha":942,"x_min":0,"x_max":0,"o":"m 661 1231 b 521 1160 629 1182 582 1160 b 381 1231 460 1160 413 1182 l 375 1240 l 313 1199 l 319 1188 b 521 1085 343 1153 400 1085 b 722 1188 642 1085 699 1153 l 729 1199 l 667 1240 z m 644 347 l 793 347 l 793 178 b 546 75 729 115 632 75 b 149 471 326 75 149 251 b 546 868 149 690 326 868 b 744 815 618 868 686 849 l 744 781 l 843 781 l 843 868 l 833 875 b 546 967 753 933 653 967 b 50 471 272 967 50 744 b 533 -25 50 188 286 -25 b 793 72 622 -25 713 13 l 793 0 l 893 0 l 893 446 l 644 446 z "},"ğ":{"ha":694,"x_min":0,"x_max":0,"o":"m 486 939 b 346 868 454 890 407 868 b 206 939 285 868 238 890 l 200 949 l 138 907 l 144 896 b 346 793 168 861 225 793 b 547 896 467 793 524 861 l 554 907 l 492 949 z m 136 49 b 188 29 150 42 168 35 l 482 -42 b 583 -137 557 -58 583 -107 b 493 -199 583 -174 547 -199 l 240 -199 b 110 -53 147 -199 110 -126 b 136 49 110 -17 119 19 z m 210 125 b 168 174 190 131 168 144 b 196 243 168 190 176 214 b 347 199 238 214 290 199 b 596 433 471 199 596 278 b 569 546 596 476 586 515 l 669 546 l 669 644 l 464 644 b 347 669 428 661 388 669 b 99 433 224 669 99 589 b 154 281 99 371 119 321 b 85 129 125 242 85 182 b 96 86 85 114 89 100 b 25 -94 51 36 25 -31 b 240 -297 25 -207 101 -297 l 493 -297 b 682 -137 611 -297 682 -225 b 504 54 682 -51 613 28 z m 199 433 b 347 571 199 528 272 571 b 496 433 422 571 496 529 b 347 297 496 339 422 297 b 199 433 272 297 199 339 z "},"Ġ":{"ha":942,"x_min":0,"x_max":0,"o":"m 521 1215 b 451 1147 483 1215 451 1185 b 521 1078 451 1110 483 1078 b 589 1147 558 1078 589 1110 b 521 1215 589 1185 558 1215 z m 644 347 l 793 347 l 793 178 b 546 75 729 115 632 75 b 149 471 326 75 149 251 b 546 868 149 690 326 868 b 744 815 618 868 686 849 l 744 781 l 843 781 l 843 868 l 833 875 b 546 967 753 933 653 967 b 50 471 272 967 50 744 b 533 -25 50 188 286 -25 b 793 72 622 -25 713 13 l 793 0 l 893 0 l 893 446 l 644 446 z "},"ġ":{"ha":694,"x_min":0,"x_max":0,"o":"m 347 918 b 278 850 310 918 278 888 b 347 781 278 813 310 781 b 415 850 385 781 415 813 b 347 918 415 888 385 918 z m 136 49 b 188 29 150 42 168 35 l 482 -42 b 583 -137 557 -58 583 -107 b 493 -199 583 -174 547 -199 l 240 -199 b 110 -53 147 -199 110 -126 b 136 49 110 -17 119 19 z m 210 125 b 168 174 190 131 168 144 b 196 243 168 190 176 214 b 347 199 238 214 290 199 b 596 433 471 199 596 278 b 569 546 596 476 586 515 l 669 546 l 669 644 l 464 644 b 347 669 428 661 388 669 b 99 433 224 669 99 589 b 154 281 99 371 119 321 b 85 129 125 242 85 182 b 96 86 85 114 89 100 b 25 -94 51 36 25 -31 b 240 -297 25 -207 101 -297 l 493 -297 b 682 -137 611 -297 682 -225 b 504 54 682 -51 613 28 z m 199 433 b 347 571 199 528 272 571 b 496 433 422 571 496 529 b 347 297 496 339 422 297 b 199 433 272 297 199 339 z "},"Ģ":{"ha":942,"x_min":0,"x_max":0,"o":"m 425 -279 l 468 -310 b 550 -132 515 -261 550 -201 b 488 -69 550 -97 522 -69 b 425 -132 453 -69 425 -97 b 465 -190 425 -158 442 -182 b 425 -279 465 -212 449 -251 z m 644 347 l 793 347 l 793 178 b 546 75 729 115 632 75 b 149 471 326 75 149 251 b 546 868 149 690 326 868 b 744 815 618 868 686 849 l 744 781 l 843 781 l 843 868 l 833 875 b 546 967 753 933 653 967 b 50 471 272 967 50 744 b 533 -25 50 188 286 -25 b 793 72 622 -25 713 13 l 793 0 l 893 0 l 893 446 l 644 446 z "},"ģ":{"ha":694,"x_min":0,"x_max":0,"o":"m 382 883 b 429 982 382 908 401 954 l 393 1018 b 297 825 339 967 297 901 b 360 764 297 790 325 764 b 421 825 394 764 421 790 b 382 883 421 851 406 875 z m 136 49 b 188 29 150 42 168 35 l 482 -42 b 583 -137 557 -58 583 -107 b 493 -199 583 -174 547 -199 l 240 -199 b 110 -53 147 -199 110 -126 b 136 49 110 -17 119 19 z m 210 125 b 168 174 190 131 168 144 b 196 243 168 190 176 214 b 347 199 238 214 290 199 b 596 433 471 199 596 278 b 569 546 596 476 586 515 l 669 546 l 669 644 l 464 644 b 347 669 428 661 388 669 b 99 433 224 669 99 589 b 154 281 99 371 119 321 b 85 129 125 242 85 182 b 96 86 85 114 89 100 b 25 -94 51 36 25 -31 b 240 -297 25 -207 101 -297 l 493 -297 b 682 -137 611 -297 682 -225 b 504 54 682 -51 613 28 z m 199 433 b 347 571 199 528 272 571 b 496 433 422 571 496 529 b 347 297 496 339 422 297 b 199 433 272 297 199 339 z "},"Ĥ":{"ha":892,"x_min":0,"x_max":0,"o":"m 449 1154 l 621 1032 l 664 1083 l 467 1240 l 426 1240 l 229 1083 l 274 1032 l 444 1154 z m 99 943 l 99 0 l 199 0 l 199 397 l 694 397 l 694 0 l 793 0 l 793 943 l 694 943 l 694 496 l 199 496 l 199 943 z "},"ĥ":{"ha":793,"x_min":0,"x_max":0,"o":"m 399 1142 l 571 1019 l 614 1071 l 417 1228 l 376 1228 l 179 1071 l 224 1019 l 394 1142 z m 99 843 l 99 0 l 199 0 l 199 297 b 446 571 199 458 315 571 b 596 446 518 571 596 544 l 596 0 l 732 0 l 732 99 l 694 99 l 694 446 b 458 669 694 589 583 669 b 199 514 361 669 258 622 l 199 943 l 63 943 l 63 843 z "},"Ħ":{"ha":892,"x_min":0,"x_max":0,"o":"m 843 793 l 793 793 l 793 943 l 694 943 l 694 793 l 199 793 l 199 943 l 99 943 l 99 793 l 50 793 l 50 719 l 99 719 l 99 0 l 199 0 l 199 397 l 694 397 l 694 0 l 793 0 l 793 719 l 843 719 z m 694 719 l 694 496 l 199 496 l 199 719 z "},"ħ":{"ha":793,"x_min":0,"x_max":0,"o":"m 446 818 l 199 818 l 199 943 l 75 943 l 75 868 l 99 868 l 99 818 l 50 818 l 50 744 l 99 744 l 99 0 l 199 0 l 199 297 b 446 571 199 458 315 571 b 596 446 518 571 596 544 l 596 0 l 732 0 l 732 99 l 694 99 l 694 446 b 458 669 694 589 583 669 b 199 514 361 669 258 622 l 199 744 l 446 744 z "},"Ĩ":{"ha":297,"x_min":0,"x_max":0,"o":"m 199 0 l 199 943 l 99 943 l 99 0 z m 68 1238 b -11 1164 50 1238 3 1233 l -19 1118 l 53 1104 l 63 1151 b 74 1163 64 1160 68 1163 b 90 1156 81 1163 88 1157 l 169 1111 b 229 1094 196 1096 217 1094 b 308 1168 293 1094 307 1156 l 318 1215 l 244 1226 l 236 1183 b 225 1171 235 1175 231 1171 b 207 1176 219 1171 214 1172 l 128 1221 b 68 1238 111 1229 92 1238 z "},"ĩ":{"ha":297,"x_min":0,"x_max":0,"o":"m 99 546 l 99 0 l 199 0 l 199 644 l 63 644 l 63 546 z m 68 928 b -11 853 50 928 3 922 l -19 808 l 53 793 l 63 840 b 74 851 64 849 68 851 b 90 846 81 851 88 847 l 169 801 b 229 783 196 786 217 783 b 308 858 293 783 307 846 l 318 906 l 244 917 l 236 874 b 207 867 233 858 224 857 l 128 911 b 68 928 111 919 92 928 z "},"Ī":{"ha":297,"x_min":0,"x_max":0,"o":"m 199 0 l 199 943 l 99 943 l 99 0 z m 297 1140 l 297 1215 l 0 1215 l 0 1140 z "},"ī":{"ha":297,"x_min":0,"x_max":0,"o":"m 99 546 l 99 0 l 199 0 l 199 644 l 63 644 l 63 546 z m 297 843 l 297 918 l 0 918 l 0 843 z "},"Ĭ":{"ha":297,"x_min":0,"x_max":0,"o":"m 199 0 l 199 943 l 99 943 l 99 0 z m 249 1203 b 149 1153 224 1165 190 1153 b 50 1203 107 1153 75 1165 l 43 1213 l -18 1171 l -11 1160 b 149 1079 26 1104 78 1079 b 308 1160 219 1079 271 1104 l 317 1171 l 254 1213 z "},"ĭ":{"ha":297,"x_min":0,"x_max":0,"o":"m 99 546 l 99 0 l 199 0 l 199 644 l 63 644 l 63 546 z m 224 956 b 124 906 199 918 165 906 b 25 956 82 906 50 918 l 18 965 l -43 922 l -36 911 b 124 831 1 856 53 831 b 283 911 194 831 246 856 l 292 922 l 229 965 z "},"Į":{"ha":297,"x_min":0,"x_max":0,"o":"m 99 11 b -29 -149 29 -29 -29 -65 b 92 -260 -29 -207 21 -260 b 169 -237 115 -260 142 -254 l 121 -151 b 92 -160 111 -157 100 -160 b 58 -133 71 -160 58 -146 b 168 0 58 -82 104 -40 l 199 0 l 199 943 l 99 943 z "},"į":{"ha":297,"x_min":0,"x_max":0,"o":"m 92 -160 b 58 -133 71 -160 58 -146 b 168 0 58 -82 104 -40 l 199 0 l 199 644 l 63 644 l 63 546 l 99 546 l 99 11 b -29 -149 29 -29 -29 -65 b 92 -260 -29 -207 21 -260 b 169 -237 115 -260 142 -254 l 121 -151 b 92 -160 111 -157 100 -160 z m 149 918 b 81 850 111 918 81 888 b 149 781 81 813 111 781 b 217 850 186 781 217 813 b 149 918 217 888 186 918 z "},"İ":{"ha":297,"x_min":0,"x_max":0,"o":"m 149 1215 b 81 1147 111 1215 81 1185 b 149 1079 81 1110 111 1079 b 217 1147 186 1079 217 1110 b 149 1215 217 1185 186 1215 z m 199 0 l 199 943 l 99 943 l 99 0 z "},"ı":{"ha":297,"x_min":0,"x_max":0,"o":"m 99 546 l 99 0 l 199 0 l 199 644 l 63 644 l 63 546 z "},"Ĳ":{"ha":843,"x_min":0,"x_max":0,"o":"m 422 106 l 422 124 l 322 124 l 322 71 l 331 58 b 515 -25 371 1 451 -25 b 744 199 633 -25 744 57 l 744 943 l 397 943 l 397 843 l 644 843 l 644 199 b 515 75 644 114 579 75 b 422 106 469 75 439 90 z m 199 0 l 199 943 l 99 943 l 99 0 z "},"ĳ":{"ha":569,"x_min":0,"x_max":0,"o":"m 247 -172 l 247 -149 l 149 -149 l 149 -206 l 157 -218 b 310 -297 190 -265 246 -297 b 496 -111 413 -297 496 -214 l 496 644 l 360 644 l 360 546 l 396 546 l 396 -111 b 310 -199 396 -160 358 -199 b 247 -172 286 -199 264 -189 z m 446 918 b 378 850 408 918 378 888 b 446 781 378 813 408 781 b 514 850 483 781 514 813 b 446 918 514 888 483 918 z m 99 546 l 99 0 l 199 0 l 199 644 l 63 644 l 63 546 z m 149 918 b 81 850 111 918 81 888 b 149 781 81 813 111 781 b 217 850 186 781 217 813 b 149 918 217 888 186 918 z "},"Ĵ":{"ha":544,"x_min":0,"x_max":0,"o":"m 275 1153 l 446 1032 l 490 1082 l 293 1240 l 253 1240 l 56 1082 l 99 1032 l 271 1153 z m 124 106 l 124 124 l 25 124 l 25 71 l 33 58 b 218 -25 74 1 154 -25 b 446 199 336 -25 446 57 l 446 943 l 99 943 l 99 843 l 347 843 l 347 199 b 218 75 347 114 282 75 b 124 106 172 75 140 90 z "},"ĵ":{"ha":297,"x_min":0,"x_max":0,"o":"m 151 893 l 292 796 l 335 847 l 168 979 l 129 979 l -37 847 l 6 796 l 146 893 z m -50 -172 l -50 -149 l -149 -149 l -149 -206 l -140 -218 b 13 -297 -107 -265 -51 -297 b 199 -111 115 -297 199 -214 l 199 644 l 50 644 l 50 546 l 99 546 l 99 -111 b 13 -199 99 -160 61 -199 b -50 -172 -11 -199 -33 -189 z "},"Ķ":{"ha":843,"x_min":0,"x_max":0,"o":"m 388 -279 l 431 -310 b 513 -132 478 -261 513 -201 b 450 -69 513 -97 485 -69 b 388 -132 415 -69 388 -97 b 428 -190 388 -158 404 -182 b 388 -279 428 -212 411 -251 z m 724 126 l 413 492 l 713 843 l 769 843 l 769 943 l 667 943 l 199 392 l 199 943 l 99 943 l 99 0 l 199 0 l 199 238 l 349 414 l 647 63 b 793 0 679 26 707 0 l 793 99 b 724 126 743 99 740 107 z "},"ķ":{"ha":743,"x_min":0,"x_max":0,"o":"m 319 -279 l 363 -310 b 444 -132 410 -261 444 -201 b 382 -69 444 -97 417 -69 b 319 -132 347 -69 319 -97 b 360 -190 319 -158 336 -182 b 319 -279 360 -212 343 -251 z m 635 128 l 432 354 l 611 546 l 644 546 l 644 644 l 569 644 l 199 253 l 199 943 l 63 943 l 63 843 l 99 843 l 99 0 l 199 0 l 199 110 l 364 283 l 561 63 b 694 0 604 14 653 0 l 694 99 b 635 128 674 99 657 103 z "},"ĸ":{"ha":743,"x_min":0,"x_max":0,"o":"m 199 110 l 364 283 l 561 63 b 694 0 604 14 653 0 l 694 99 b 635 128 674 99 657 103 l 432 354 l 611 546 l 644 546 l 644 644 l 569 644 l 199 253 l 199 644 l 63 644 l 63 546 l 99 546 l 99 0 l 199 0 z "},"Ĺ":{"ha":793,"x_min":0,"x_max":0,"o":"m 393 1042 l 532 1181 l 471 1240 l 333 1101 z m 199 99 l 199 943 l 99 943 l 99 0 l 744 0 l 744 136 l 644 136 l 644 99 z "},"ĺ":{"ha":297,"x_min":0,"x_max":0,"o":"m 94 1042 l 233 1181 l 172 1240 l 35 1101 z m 63 943 l 63 843 l 99 843 l 99 0 l 199 0 l 199 943 z "},"Ļ":{"ha":793,"x_min":0,"x_max":0,"o":"m 369 -279 l 411 -310 b 493 -132 458 -261 493 -201 b 432 -69 493 -97 467 -69 b 369 -132 397 -69 369 -97 b 410 -190 369 -158 386 -182 b 369 -279 410 -212 393 -251 z m 199 99 l 199 943 l 99 943 l 99 0 l 744 0 l 744 136 l 644 136 l 644 99 z "},"ļ":{"ha":297,"x_min":0,"x_max":0,"o":"m 78 -279 l 121 -310 b 203 -132 168 -261 203 -201 b 140 -69 203 -97 175 -69 b 78 -132 106 -69 78 -97 b 118 -190 78 -158 94 -182 b 78 -279 118 -212 101 -251 z m 63 943 l 63 843 l 99 843 l 99 0 l 199 0 l 199 943 z "},"Ľ":{"ha":818,"x_min":0,"x_max":0,"o":"m 685 847 b 638 749 685 822 665 776 l 674 713 b 769 906 728 764 769 829 b 707 967 769 940 742 967 b 646 906 672 967 646 940 b 685 847 646 879 661 856 z m 199 99 l 199 943 l 99 943 l 99 0 l 744 0 l 744 136 l 644 136 l 644 99 z "},"ľ":{"ha":446,"x_min":0,"x_max":0,"o":"m 313 822 b 265 724 313 797 293 751 l 301 688 b 397 881 356 739 397 804 b 335 942 397 915 369 942 b 274 881 300 942 274 915 b 313 822 274 854 289 831 z m 63 943 l 63 843 l 99 843 l 99 0 l 199 0 l 199 943 z "},"Ŀ":{"ha":793,"x_min":0,"x_max":0,"o":"m 521 483 b 583 422 521 449 549 422 b 644 483 618 422 644 449 b 583 546 644 518 618 546 b 521 483 549 546 521 518 z m 199 99 l 199 943 l 99 943 l 99 0 l 744 0 l 744 136 l 644 136 l 644 99 z "},"ŀ":{"ha":446,"x_min":0,"x_max":0,"o":"m 272 483 b 335 422 272 449 300 422 b 397 483 369 422 397 449 b 335 546 397 518 369 546 b 272 483 300 546 272 518 z m 63 943 l 63 843 l 99 843 l 99 0 l 199 0 l 199 943 z "},"Ł":{"ha":793,"x_min":0,"x_max":0,"o":"m 67 249 l 99 274 l 99 0 l 744 0 l 744 136 l 644 136 l 644 99 l 199 99 l 199 351 l 554 628 l 493 706 l 199 476 l 199 943 l 99 943 l 99 400 l 6 328 z "},"ł":{"ha":394,"x_min":0,"x_max":0,"o":"m 308 729 l 249 663 l 249 943 l 111 943 l 111 843 l 149 843 l 149 553 l 25 418 l 99 351 l 149 404 l 149 0 l 249 0 l 249 514 l 383 663 z "},"Ń":{"ha":942,"x_min":0,"x_max":0,"o":"m 442 1042 l 581 1181 l 519 1240 l 382 1101 z m 843 943 l 744 943 l 744 183 l 186 943 l 63 943 l 63 843 l 99 843 l 99 0 l 199 0 l 199 758 l 757 0 l 843 0 z "},"ń":{"ha":793,"x_min":0,"x_max":0,"o":"m 368 757 l 507 896 l 446 956 l 308 817 z m 99 546 l 99 0 l 199 0 l 199 297 b 446 571 199 458 315 571 b 596 446 518 571 596 544 l 596 0 l 732 0 l 732 99 l 694 99 l 694 446 b 471 669 694 601 569 669 b 199 503 369 669 261 613 l 199 644 l 63 644 l 63 546 z "},"Ņ":{"ha":942,"x_min":0,"x_max":0,"o":"m 394 -279 l 436 -310 b 518 -132 483 -261 518 -201 b 457 -69 518 -97 492 -69 b 394 -132 422 -69 394 -97 b 433 -190 394 -158 410 -182 b 394 -279 433 -212 418 -251 z m 843 943 l 744 943 l 744 183 l 186 943 l 63 943 l 63 843 l 99 843 l 99 0 l 199 0 l 199 758 l 757 0 l 843 0 z "},"ņ":{"ha":793,"x_min":0,"x_max":0,"o":"m 339 -279 l 381 -310 b 463 -132 428 -261 463 -201 b 400 -69 463 -97 435 -69 b 339 -132 365 -69 339 -97 b 378 -190 339 -158 354 -182 b 339 -279 378 -212 363 -251 z m 99 546 l 99 0 l 199 0 l 199 297 b 446 571 199 458 315 571 b 596 446 518 571 596 544 l 596 0 l 732 0 l 732 99 l 694 99 l 694 446 b 471 669 694 601 569 669 b 199 503 369 669 261 613 l 199 644 l 63 644 l 63 546 z "},"Ň":{"ha":942,"x_min":0,"x_max":0,"o":"m 474 1118 l 469 1118 l 299 1240 l 254 1189 l 451 1032 l 492 1032 l 689 1189 l 646 1240 z m 843 943 l 744 943 l 744 183 l 186 943 l 63 943 l 63 843 l 99 843 l 99 0 l 199 0 l 199 758 l 757 0 l 843 0 z "},"ň":{"ha":793,"x_min":0,"x_max":0,"o":"m 399 843 l 394 843 l 224 965 l 179 914 l 376 757 l 417 757 l 614 914 l 571 965 z m 99 546 l 99 0 l 199 0 l 199 297 b 446 571 199 458 315 571 b 596 446 518 571 596 544 l 596 0 l 732 0 l 732 99 l 694 99 l 694 446 b 471 669 694 601 569 669 b 199 503 369 669 261 613 l 199 644 l 63 644 l 63 546 z "},"ŉ":{"ha":942,"x_min":0,"x_max":0,"o":"m 108 822 b 49 736 99 799 76 764 l 97 689 b 192 881 151 740 192 804 b 131 943 192 915 165 943 b 68 881 96 943 68 915 b 108 822 68 854 85 831 z m 249 546 l 249 0 l 347 0 l 347 297 b 596 571 347 458 465 571 b 744 446 668 571 744 544 l 744 0 l 881 0 l 881 99 l 843 99 l 843 446 b 619 669 843 601 718 669 b 347 503 518 669 410 613 l 347 644 l 211 644 l 211 546 z "},"Ŋ":{"ha":768,"x_min":0,"x_max":0,"o":"m 694 199 l 694 744 b 471 967 694 900 569 967 b 199 801 369 967 261 911 l 199 943 l 63 943 l 63 843 l 99 843 l 99 0 l 199 0 l 199 596 b 446 868 199 757 315 868 b 596 744 518 868 596 843 l 596 199 b 529 75 596 165 588 108 l 508 75 l 508 -25 l 553 -25 l 564 -19 b 694 199 644 19 694 94 z "},"ŋ":{"ha":768,"x_min":0,"x_max":0,"o":"m 694 -75 l 694 446 b 471 669 694 601 569 669 b 199 503 369 669 261 613 l 199 644 l 63 644 l 63 546 l 99 546 l 99 0 l 199 0 l 199 297 b 446 571 199 458 315 571 b 596 446 518 571 596 544 l 596 -75 b 529 -199 596 -108 588 -165 l 508 -199 l 508 -297 l 553 -297 l 564 -293 b 694 -75 644 -254 694 -179 z "},"Ō":{"ha":1090,"x_min":0,"x_max":0,"o":"m 744 1140 l 744 1215 l 347 1215 l 347 1140 z m 546 967 b 50 471 272 967 50 744 b 546 -25 50 197 272 -25 b 1042 471 819 -25 1042 197 b 546 967 1042 744 819 967 z m 149 471 b 546 868 149 690 326 868 b 943 471 765 868 943 690 b 546 75 943 251 765 75 b 149 471 326 75 149 251 z "},"ō":{"ha":793,"x_min":0,"x_max":0,"o":"m 596 843 l 596 918 l 199 918 l 199 843 z m 397 669 b 50 322 206 669 50 514 b 397 -25 50 131 206 -25 b 744 322 589 -25 744 131 b 397 669 744 514 589 669 z m 149 322 b 397 571 149 458 261 571 b 644 322 533 571 644 458 b 397 75 644 186 533 75 b 149 322 261 75 149 186 z "},"Ŏ":{"ha":1090,"x_min":0,"x_max":0,"o":"m 686 1231 b 546 1160 654 1182 607 1160 b 406 1231 485 1160 438 1182 l 400 1240 l 338 1199 l 344 1188 b 546 1085 368 1153 425 1085 b 747 1188 667 1085 724 1153 l 754 1199 l 692 1240 z m 546 967 b 50 471 272 967 50 744 b 546 -25 50 197 272 -25 b 1042 471 819 -25 1042 197 b 546 967 1042 744 819 967 z m 149 471 b 546 868 149 690 326 868 b 943 471 765 868 943 690 b 546 75 943 251 765 75 b 149 471 326 75 149 251 z "},"ŏ":{"ha":793,"x_min":0,"x_max":0,"o":"m 538 939 b 397 868 506 890 458 868 b 257 939 336 868 289 890 l 250 949 l 189 907 l 196 896 b 397 793 219 861 276 793 b 597 896 518 793 574 861 l 606 907 l 543 949 z m 397 669 b 50 322 206 669 50 514 b 397 -25 50 131 206 -25 b 744 322 589 -25 744 131 b 397 669 744 514 589 669 z m 149 322 b 397 571 149 458 261 571 b 644 322 533 571 644 458 b 397 75 644 186 533 75 b 149 322 261 75 149 186 z "},"Ő":{"ha":1090,"x_min":0,"x_max":0,"o":"m 671 1042 l 810 1181 l 749 1240 l 611 1101 z m 422 1042 l 561 1181 l 500 1240 l 363 1101 z m 546 967 b 50 471 272 967 50 744 b 546 -25 50 197 272 -25 b 1042 471 819 -25 1042 197 b 546 967 1042 744 819 967 z m 149 471 b 546 868 149 690 326 868 b 943 471 765 868 943 690 b 546 75 943 251 765 75 b 149 471 326 75 149 251 z "},"ő":{"ha":793,"x_min":0,"x_max":0,"o":"m 522 757 l 661 896 l 600 956 l 463 817 z m 272 757 l 411 896 l 351 956 l 214 817 z m 397 669 b 50 322 206 669 50 514 b 397 -25 50 131 206 -25 b 744 322 589 -25 744 131 b 397 669 744 514 589 669 z m 149 322 b 397 571 149 458 261 571 b 644 322 533 571 644 458 b 397 75 644 186 533 75 b 149 322 261 75 149 186 z "},"Œ":{"ha":1190,"x_min":0,"x_max":0,"o":"m 546 843 l 546 99 b 149 471 322 99 149 257 b 546 843 149 685 322 843 z m 992 843 l 992 806 l 1092 806 l 1092 943 l 546 943 b 50 471 267 943 50 740 b 546 0 50 193 275 0 l 1140 0 l 1140 136 l 1042 136 l 1042 99 l 644 99 l 644 397 l 893 397 l 893 496 l 644 496 l 644 843 z "},"œ":{"ha":1339,"x_min":0,"x_max":0,"o":"m 149 322 b 397 571 149 458 261 571 b 644 322 533 571 644 458 b 397 75 644 186 533 75 b 149 322 261 75 149 186 z m 949 397 l 756 397 b 992 571 788 497 882 571 b 1154 510 1054 571 1111 547 b 949 397 1101 463 1017 397 z m 694 501 b 397 669 633 601 524 669 b 50 322 206 669 50 514 b 397 -25 50 131 206 -25 b 694 143 524 -25 633 43 b 992 -25 756 43 865 -25 b 1246 86 1092 -25 1182 18 l 1174 154 b 992 75 1128 106 1064 75 b 746 297 864 75 758 172 l 947 297 l 949 297 b 1257 469 1072 297 1186 408 l 1293 500 l 1265 539 b 992 669 1201 619 1101 669 b 694 501 867 669 756 601 z "},"Ŕ":{"ha":843,"x_min":0,"x_max":0,"o":"m 343 1042 l 482 1181 l 421 1240 l 283 1101 z m 428 496 l 199 496 l 199 843 l 428 843 b 644 669 581 843 644 754 b 428 496 644 585 581 496 z m 599 285 b 494 401 564 338 535 375 b 744 669 660 428 744 547 b 428 943 744 807 638 943 l 63 943 l 63 843 l 99 843 l 99 0 l 199 0 l 199 397 l 272 397 b 474 296 399 397 413 392 l 618 72 b 736 0 656 15 689 0 l 793 0 l 793 99 l 736 99 b 701 125 721 99 718 99 z "},"ŕ":{"ha":496,"x_min":0,"x_max":0,"o":"m 243 757 l 382 896 l 321 956 l 183 817 z m 424 669 b 199 490 325 669 246 593 l 199 644 l 63 644 l 63 546 l 99 546 l 99 0 l 199 0 l 199 261 b 347 543 199 399 278 497 l 347 521 l 446 521 l 446 669 z "},"Ŗ":{"ha":843,"x_min":0,"x_max":0,"o":"m 376 -279 l 418 -310 b 500 -132 465 -261 500 -201 b 438 -69 500 -97 472 -69 b 376 -132 403 -69 376 -97 b 415 -190 376 -158 392 -182 b 376 -279 415 -212 400 -251 z m 428 496 l 199 496 l 199 843 l 428 843 b 644 669 581 843 644 754 b 428 496 644 585 581 496 z m 599 285 b 494 401 564 338 535 375 b 744 669 660 428 744 547 b 428 943 744 807 638 943 l 63 943 l 63 843 l 99 843 l 99 0 l 199 0 l 199 397 l 272 397 b 474 296 399 397 413 392 l 618 72 b 736 0 656 15 689 0 l 793 0 l 793 99 l 736 99 b 701 125 721 99 718 99 z "},"ŗ":{"ha":496,"x_min":0,"x_max":0,"o":"m 203 -279 l 244 -310 b 326 -132 292 -261 326 -201 b 264 -69 326 -97 299 -69 b 203 -132 229 -69 203 -97 b 242 -190 203 -158 218 -182 b 203 -279 242 -212 226 -251 z m 424 669 b 199 490 325 669 246 593 l 199 644 l 63 644 l 63 546 l 99 546 l 99 0 l 199 0 l 199 261 b 347 543 199 399 278 497 l 347 521 l 446 521 l 446 669 z "},"Ř":{"ha":843,"x_min":0,"x_max":0,"o":"m 374 1118 l 369 1118 l 199 1240 l 154 1189 l 351 1032 l 392 1032 l 589 1189 l 546 1240 z m 428 496 l 199 496 l 199 843 l 428 843 b 644 669 581 843 644 754 b 428 496 644 585 581 496 z m 599 285 b 494 401 564 338 535 375 b 744 669 660 428 744 547 b 428 943 744 807 638 943 l 63 943 l 63 843 l 99 843 l 99 0 l 199 0 l 199 397 l 272 397 b 474 296 399 397 413 392 l 618 72 b 736 0 656 15 689 0 l 793 0 l 793 99 l 736 99 b 701 125 721 99 718 99 z "},"ř":{"ha":496,"x_min":0,"x_max":0,"o":"m 275 843 l 271 843 l 100 965 l 56 914 l 253 757 l 293 757 l 490 914 l 447 965 z m 424 669 b 199 490 325 669 246 593 l 199 644 l 63 644 l 63 546 l 99 546 l 99 0 l 199 0 l 199 261 b 347 543 199 399 278 497 l 347 521 l 446 521 l 446 669 z "},"Ś":{"ha":843,"x_min":0,"x_max":0,"o":"m 393 1042 l 532 1181 l 471 1240 l 333 1101 z m 149 169 l 149 204 l 50 204 l 50 125 l 65 110 b 422 -25 125 56 271 -25 b 793 211 650 -25 793 76 b 199 744 793 560 199 522 b 422 868 199 819 303 868 b 644 797 500 868 586 842 l 644 763 l 744 763 l 744 840 l 728 856 b 422 967 642 942 511 967 b 99 744 243 967 99 878 b 694 211 99 426 694 476 b 422 75 694 150 614 75 b 149 169 318 75 206 126 z "},"ś":{"ha":644,"x_min":0,"x_max":0,"o":"m 293 757 l 432 896 l 371 956 l 233 817 z m 446 536 l 446 504 l 546 504 l 546 582 l 529 596 b 322 669 472 649 397 669 b 99 496 196 669 99 589 b 496 161 99 269 496 304 b 322 75 496 108 421 75 b 149 128 228 75 176 103 l 149 156 l 50 156 l 50 89 l 63 75 b 322 -25 92 40 167 -25 b 596 161 486 -25 596 50 b 199 496 596 386 199 374 b 322 571 199 515 224 565 b 446 536 371 571 413 560 z "},"Ŝ":{"ha":843,"x_min":0,"x_max":0,"o":"m 424 1154 l 596 1032 l 639 1083 l 442 1240 l 401 1240 l 204 1083 l 249 1032 l 419 1154 z m 149 169 l 149 204 l 50 204 l 50 125 l 65 110 b 422 -25 125 56 271 -25 b 793 211 650 -25 793 76 b 199 744 793 560 199 522 b 422 868 199 819 303 868 b 644 797 500 868 586 842 l 644 763 l 744 763 l 744 840 l 728 856 b 422 967 642 942 511 967 b 99 744 243 967 99 878 b 694 211 99 426 694 476 b 422 75 694 150 614 75 b 149 169 318 75 206 126 z "},"ŝ":{"ha":644,"x_min":0,"x_max":0,"o":"m 325 893 l 497 771 l 540 822 l 343 979 l 303 979 l 106 822 l 150 771 l 321 893 z m 446 536 l 446 504 l 546 504 l 546 582 l 529 596 b 322 669 472 649 397 669 b 99 496 196 669 99 589 b 496 161 99 269 496 304 b 322 75 496 108 421 75 b 149 128 228 75 176 103 l 149 156 l 50 156 l 50 89 l 63 75 b 322 -25 92 40 167 -25 b 596 161 486 -25 596 50 b 199 496 596 386 199 374 b 322 571 199 515 224 565 b 446 536 371 571 413 560 z "},"Ş":{"ha":843,"x_min":0,"x_max":0,"o":"m 407 -137 b 449 -119 417 -125 432 -119 b 506 -183 478 -119 506 -139 b 444 -249 506 -226 475 -249 b 381 -212 419 -249 394 -235 l 375 -201 l 319 -232 l 326 -243 b 447 -310 353 -286 400 -310 b 581 -189 514 -310 581 -265 b 451 -57 581 -124 533 -57 b 431 -58 446 -57 438 -57 l 439 -25 b 793 211 657 -19 793 79 b 199 744 793 560 199 522 b 422 868 199 819 303 868 b 644 797 500 868 586 842 l 644 763 l 744 763 l 744 840 l 728 856 b 422 967 642 942 511 967 b 99 744 243 967 99 878 b 694 211 99 426 694 476 b 422 75 694 150 614 75 b 149 169 318 75 206 126 l 149 204 l 50 204 l 50 125 l 65 110 b 376 -22 118 60 243 -8 l 347 -124 z "},"ş":{"ha":644,"x_min":0,"x_max":0,"o":"m 294 -137 b 338 -119 304 -125 321 -119 b 394 -183 367 -119 394 -139 b 332 -249 394 -226 363 -249 b 269 -212 307 -249 283 -235 l 263 -201 l 208 -232 l 214 -243 b 336 -310 240 -286 289 -310 b 469 -189 403 -310 469 -265 b 340 -57 469 -124 422 -57 b 318 -58 335 -57 325 -57 l 328 -25 b 596 161 489 -24 596 51 b 199 496 596 386 199 374 b 322 571 199 515 224 565 b 446 536 371 571 413 560 l 446 504 l 546 504 l 546 582 l 529 596 b 322 669 472 649 397 669 b 99 496 196 669 99 589 b 496 161 99 269 496 304 b 322 75 496 108 421 75 b 149 128 228 75 176 103 l 149 156 l 50 156 l 50 89 l 63 75 b 264 -21 89 46 146 -7 l 236 -124 z "},"Š":{"ha":843,"x_min":0,"x_max":0,"o":"m 424 1118 l 419 1118 l 249 1240 l 204 1189 l 401 1032 l 442 1032 l 639 1189 l 596 1240 z m 149 169 l 149 204 l 50 204 l 50 125 l 65 110 b 422 -25 125 56 271 -25 b 793 211 650 -25 793 76 b 199 744 793 560 199 522 b 422 868 199 819 303 868 b 644 797 500 868 586 842 l 644 763 l 744 763 l 744 840 l 728 856 b 422 967 642 942 511 967 b 99 744 243 967 99 878 b 694 211 99 426 694 476 b 422 75 694 150 614 75 b 149 169 318 75 206 126 z "},"š":{"ha":644,"x_min":0,"x_max":0,"o":"m 325 843 l 321 843 l 150 965 l 106 914 l 303 757 l 343 757 l 540 914 l 497 965 z m 446 536 l 446 504 l 546 504 l 546 582 l 529 596 b 322 669 472 649 397 669 b 99 496 196 669 99 589 b 496 161 99 269 496 304 b 322 75 496 108 421 75 b 149 128 228 75 176 103 l 149 156 l 50 156 l 50 89 l 63 75 b 322 -25 92 40 167 -25 b 596 161 486 -25 596 50 b 199 496 596 386 199 374 b 322 571 199 515 224 565 b 446 536 371 571 413 560 z "},"Ţ":{"ha":892,"x_min":0,"x_max":0,"o":"m 428 -137 b 469 -121 438 -125 453 -121 b 526 -185 499 -121 526 -140 b 465 -249 526 -228 496 -249 b 400 -214 440 -249 414 -236 l 394 -203 l 342 -233 l 347 -244 b 469 -310 374 -287 422 -310 b 601 -190 536 -310 601 -267 b 472 -58 601 -125 554 -58 b 451 -60 467 -58 458 -58 l 468 0 l 496 0 l 496 843 l 744 843 l 744 806 l 843 806 l 843 943 l 50 943 l 50 806 l 149 806 l 149 843 l 397 843 l 397 0 l 403 0 l 367 -125 z "},"ţ":{"ha":594,"x_min":0,"x_max":0,"o":"m 319 -137 b 363 -119 329 -125 346 -119 b 419 -183 392 -119 419 -139 b 357 -249 419 -226 388 -249 b 294 -212 332 -249 308 -235 l 288 -201 l 233 -232 l 239 -243 b 361 -310 265 -286 314 -310 b 493 -189 428 -310 493 -265 b 364 -57 493 -124 446 -57 b 343 -58 358 -57 350 -57 l 353 -25 l 360 -25 b 539 75 435 -25 501 15 l 546 86 l 546 136 l 446 136 l 446 117 b 360 75 426 90 394 75 b 249 186 297 75 249 124 l 249 546 l 496 546 l 496 644 l 249 644 l 249 793 l 149 793 l 149 644 l 50 644 l 50 546 l 149 546 l 149 186 b 292 -14 149 93 208 15 l 261 -124 z "},"Ť":{"ha":892,"x_min":0,"x_max":0,"o":"m 449 1118 l 444 1118 l 274 1240 l 229 1189 l 426 1032 l 467 1032 l 664 1189 l 621 1240 z m 50 943 l 50 806 l 149 806 l 149 843 l 397 843 l 397 0 l 496 0 l 496 843 l 744 843 l 744 806 l 843 806 l 843 943 z "},"ť":{"ha":743,"x_min":0,"x_max":0,"o":"m 610 724 b 563 625 610 699 590 653 l 599 589 b 694 782 653 640 694 706 b 632 843 694 817 667 843 b 571 782 597 843 571 817 b 610 724 571 756 586 732 z m 149 793 l 149 644 l 50 644 l 50 546 l 149 546 l 149 186 b 360 -25 149 69 243 -25 b 539 75 435 -25 501 15 l 546 86 l 546 136 l 446 136 l 446 117 b 360 75 426 90 394 75 b 249 186 297 75 249 124 l 249 546 l 496 546 l 496 644 l 249 644 l 249 793 z "},"Ŧ":{"ha":892,"x_min":0,"x_max":0,"o":"m 644 694 l 496 694 l 496 843 l 744 843 l 744 806 l 843 806 l 843 943 l 50 943 l 50 806 l 149 806 l 149 843 l 397 843 l 397 694 l 249 694 l 249 596 l 397 596 l 397 0 l 496 0 l 496 596 l 644 596 z "},"ŧ":{"ha":594,"x_min":0,"x_max":0,"o":"m 99 372 l 149 372 l 149 186 b 360 -25 149 69 243 -25 b 539 75 435 -25 501 15 l 546 86 l 546 136 l 446 136 l 446 117 b 360 75 426 90 394 75 b 249 186 297 75 249 124 l 249 372 l 446 372 l 446 446 l 249 446 l 249 546 l 496 546 l 496 644 l 249 644 l 249 793 l 149 793 l 149 644 l 50 644 l 50 546 l 149 546 l 149 446 l 99 446 z "},"Ũ":{"ha":892,"x_min":0,"x_max":0,"o":"m 565 1194 b 535 1161 560 1165 547 1161 b 500 1172 528 1161 517 1164 l 422 1214 b 357 1229 401 1225 378 1229 b 253 1136 310 1229 265 1203 l 244 1090 l 317 1076 l 326 1122 b 357 1156 332 1151 344 1156 b 393 1144 364 1156 376 1153 l 469 1103 b 535 1088 490 1092 514 1088 b 640 1181 582 1088 628 1114 l 649 1226 l 575 1240 z m 63 943 l 63 843 l 99 843 l 99 322 b 446 -25 99 131 254 -25 b 793 322 638 -25 793 131 l 793 943 l 694 943 l 694 322 b 446 75 694 186 582 75 b 199 322 310 75 199 186 l 199 943 z "},"ũ":{"ha":793,"x_min":0,"x_max":0,"o":"m 517 904 b 486 871 511 875 499 871 b 451 882 479 871 468 874 l 374 924 b 308 939 353 935 329 939 b 204 846 261 939 217 913 l 196 800 l 268 786 l 278 832 b 308 865 283 861 296 865 b 344 854 315 865 328 863 l 421 813 b 486 797 442 801 465 797 b 592 890 533 797 579 824 l 600 936 l 526 950 z m 694 99 l 694 644 l 596 644 l 596 347 b 347 75 596 186 478 75 b 199 199 275 75 199 100 l 199 644 l 63 644 l 63 546 l 99 546 l 99 199 b 322 -25 99 43 224 -25 b 596 142 424 -25 533 32 l 596 0 l 732 0 l 732 99 z "},"Ū":{"ha":892,"x_min":0,"x_max":0,"o":"m 644 1140 l 644 1215 l 249 1215 l 249 1140 z m 63 943 l 63 843 l 99 843 l 99 322 b 446 -25 99 131 254 -25 b 793 322 638 -25 793 131 l 793 943 l 694 943 l 694 322 b 446 75 694 186 582 75 b 199 322 310 75 199 186 l 199 943 z "},"ū":{"ha":793,"x_min":0,"x_max":0,"o":"m 594 843 l 594 918 l 199 918 l 199 843 z m 694 99 l 694 644 l 596 644 l 596 347 b 347 75 596 186 478 75 b 199 199 275 75 199 100 l 199 644 l 63 644 l 63 546 l 99 546 l 99 199 b 322 -25 99 43 224 -25 b 596 142 424 -25 533 32 l 596 0 l 732 0 l 732 99 z "},"Ŭ":{"ha":892,"x_min":0,"x_max":0,"o":"m 586 1231 b 446 1160 554 1182 507 1160 b 306 1231 385 1160 338 1182 l 300 1240 l 238 1199 l 244 1188 b 446 1085 268 1153 325 1085 b 647 1188 567 1085 624 1153 l 654 1199 l 592 1240 z m 63 943 l 63 843 l 99 843 l 99 322 b 446 -25 99 131 254 -25 b 793 322 638 -25 793 131 l 793 943 l 694 943 l 694 322 b 446 75 694 186 582 75 b 199 322 310 75 199 186 l 199 943 z "},"ŭ":{"ha":793,"x_min":0,"x_max":0,"o":"m 538 939 b 397 868 506 890 458 868 b 257 939 336 868 289 890 l 251 949 l 189 907 l 196 896 b 397 793 219 861 276 793 b 599 896 518 793 575 861 l 606 907 l 543 949 z m 694 99 l 694 644 l 596 644 l 596 347 b 347 75 596 186 478 75 b 199 199 275 75 199 100 l 199 644 l 63 644 l 63 546 l 99 546 l 99 199 b 322 -25 99 43 224 -25 b 596 142 424 -25 533 32 l 596 0 l 732 0 l 732 99 z "},"Ů":{"ha":892,"x_min":0,"x_max":0,"o":"m 446 1165 b 479 1147 453 1165 463 1164 b 496 1115 489 1139 496 1129 b 479 1083 496 1101 489 1092 b 446 1067 463 1067 453 1067 b 413 1082 439 1067 429 1065 b 396 1115 396 1099 396 1108 b 413 1147 396 1129 403 1139 b 446 1165 429 1164 439 1165 z m 446 1240 b 361 1203 417 1240 388 1228 b 322 1115 335 1178 322 1147 b 361 1031 322 1083 335 1056 b 446 992 388 1006 417 992 b 531 1029 475 992 504 1004 b 569 1115 557 1054 569 1083 b 531 1203 569 1147 557 1178 b 446 1240 504 1228 475 1240 z m 63 943 l 63 843 l 99 843 l 99 322 b 446 -25 99 131 254 -25 b 793 322 638 -25 793 131 l 793 943 l 694 943 l 694 322 b 446 75 694 186 582 75 b 199 322 310 75 199 186 l 199 943 z "},"ů":{"ha":793,"x_min":0,"x_max":0,"o":"m 397 868 b 431 850 404 868 414 867 b 447 818 440 842 447 832 b 431 786 447 804 440 794 b 397 769 414 769 404 769 b 364 785 390 769 381 768 b 347 818 347 801 347 811 b 364 850 347 832 354 842 b 397 868 381 867 390 868 z m 397 943 b 313 906 368 943 339 931 b 274 818 286 881 274 850 b 313 733 274 786 286 758 b 397 694 339 708 368 694 b 482 732 426 694 456 707 b 521 818 508 757 521 786 b 482 906 521 850 508 881 b 397 943 456 931 426 943 z m 694 99 l 694 644 l 596 644 l 596 347 b 347 75 596 186 478 75 b 199 199 275 75 199 100 l 199 644 l 63 644 l 63 546 l 99 546 l 99 199 b 322 -25 99 43 224 -25 b 596 142 424 -25 533 32 l 596 0 l 732 0 l 732 99 z "},"Ű":{"ha":892,"x_min":0,"x_max":0,"o":"m 572 1042 l 711 1181 l 650 1240 l 513 1101 z m 324 1042 l 463 1181 l 401 1240 l 264 1101 z m 63 943 l 63 843 l 99 843 l 99 322 b 446 -25 99 131 254 -25 b 793 322 638 -25 793 131 l 793 943 l 694 943 l 694 322 b 446 75 694 186 582 75 b 199 322 310 75 199 186 l 199 943 z "},"ű":{"ha":793,"x_min":0,"x_max":0,"o":"m 522 757 l 661 896 l 600 956 l 463 817 z m 274 757 l 413 896 l 351 956 l 214 817 z m 694 99 l 694 644 l 596 644 l 596 347 b 347 75 596 186 478 75 b 199 199 275 75 199 100 l 199 644 l 63 644 l 63 546 l 99 546 l 99 199 b 322 -25 99 43 224 -25 b 596 142 424 -25 533 32 l 596 0 l 732 0 l 732 99 z "},"Ų":{"ha":892,"x_min":0,"x_max":0,"o":"m 510 -149 b 481 -122 489 -149 481 -135 b 614 18 481 -64 531 -35 b 793 322 721 78 793 192 l 793 943 l 694 943 l 694 322 b 446 75 694 186 582 75 b 199 322 310 75 199 186 l 199 943 l 63 943 l 63 843 l 99 843 l 99 322 b 446 -25 99 131 254 -25 l 438 -32 b 389 -137 390 -75 389 -117 b 510 -249 389 -196 439 -249 b 588 -226 533 -249 560 -243 l 539 -140 b 510 -149 529 -146 518 -149 z "},"ų":{"ha":793,"x_min":0,"x_max":0,"o":"m 63 644 l 63 546 l 99 546 l 99 199 b 322 -25 99 43 224 -25 b 596 142 424 -25 533 32 l 596 0 l 619 0 b 528 -137 553 -44 528 -83 b 649 -249 528 -196 578 -249 b 726 -226 672 -249 699 -243 l 678 -140 b 649 -149 668 -146 657 -149 b 619 -122 628 -149 619 -135 b 732 6 619 -72 660 -36 l 732 99 l 694 99 l 694 644 l 596 644 l 596 347 b 347 75 596 186 478 75 b 199 199 275 75 199 100 l 199 644 z "},"Ŵ":{"ha":1389,"x_min":0,"x_max":0,"o":"m 696 1154 l 868 1032 l 911 1083 l 714 1240 l 674 1240 l 476 1083 l 521 1032 l 692 1154 z m 1364 925 l 1271 960 l 967 160 l 744 718 l 744 843 l 644 843 l 644 718 l 422 160 l 125 943 l 25 943 l 25 843 l 56 843 l 386 -24 l 457 -24 l 694 574 l 932 -24 l 1003 -24 z "},"ŵ":{"ha":1140,"x_min":0,"x_max":0,"o":"m 567 893 l 739 771 l 782 822 l 585 979 l 544 979 l 347 822 l 392 771 l 563 893 z m 1117 644 l 1017 644 l 1017 631 l 793 142 l 614 518 l 614 619 l 515 619 l 515 518 l 336 142 l 106 644 l 18 644 l 18 546 l 40 546 l 301 -24 l 368 -24 l 564 392 l 760 -24 l 828 -24 l 1117 608 z "},"Ŷ":{"ha":892,"x_min":0,"x_max":0,"o":"m 449 1154 l 621 1032 l 664 1083 l 467 1240 l 426 1240 l 229 1083 l 274 1032 l 444 1154 z m 868 943 l 769 943 l 769 936 l 446 436 l 118 943 l 25 943 l 25 843 l 64 843 l 397 331 l 397 0 l 496 0 l 496 331 l 868 908 z "},"ŷ":{"ha":743,"x_min":0,"x_max":0,"o":"m 375 893 l 546 771 l 589 822 l 392 979 l 353 979 l 156 822 l 199 771 l 369 893 z m 344 -164 l 719 614 l 719 644 l 619 644 l 619 636 l 360 96 l 115 644 l 25 644 l 25 546 l 51 546 l 303 -22 l 256 -122 b 179 -199 239 -156 214 -199 b 124 -168 160 -199 138 -183 l 124 -150 l 25 -150 l 25 -203 l 33 -214 b 179 -297 65 -261 121 -297 b 344 -164 278 -297 328 -194 z "},"Ÿ":{"ha":892,"x_min":0,"x_max":0,"o":"m 583 1215 b 515 1147 546 1215 515 1185 b 583 1078 515 1110 546 1078 b 651 1147 621 1078 651 1110 b 583 1215 651 1185 621 1215 z m 317 1215 b 249 1147 279 1215 249 1185 b 317 1078 249 1110 279 1078 b 385 1147 354 1078 385 1110 b 317 1215 385 1185 354 1215 z m 868 943 l 769 943 l 769 936 l 446 436 l 118 943 l 25 943 l 25 843 l 64 843 l 397 331 l 397 0 l 496 0 l 496 331 l 868 908 z "},"Ź":{"ha":793,"x_min":0,"x_max":0,"o":"m 368 1042 l 507 1181 l 446 1240 l 308 1101 z m 50 99 l 50 0 l 744 0 l 744 136 l 644 136 l 644 99 l 172 99 l 719 843 l 719 943 l 75 943 l 75 806 l 174 806 l 174 843 l 596 843 z "},"ź":{"ha":694,"x_min":0,"x_max":0,"o":"m 318 757 l 457 896 l 396 956 l 258 817 z m 619 550 l 619 644 l 75 644 l 75 508 l 174 508 l 174 546 l 481 546 l 50 96 l 50 0 l 644 0 l 644 136 l 546 136 l 546 99 l 190 99 z "},"Ż":{"ha":793,"x_min":0,"x_max":0,"o":"m 397 1215 b 328 1147 360 1215 328 1185 b 397 1078 328 1110 360 1078 b 465 1147 435 1078 465 1110 b 397 1215 465 1185 435 1215 z m 50 99 l 50 0 l 744 0 l 744 136 l 644 136 l 644 99 l 172 99 l 719 843 l 719 943 l 75 943 l 75 806 l 174 806 l 174 843 l 596 843 z "},"ż":{"ha":694,"x_min":0,"x_max":0,"o":"m 347 918 b 278 850 310 918 278 888 b 347 781 278 813 310 781 b 415 850 385 781 415 813 b 347 918 415 888 385 918 z m 619 550 l 619 644 l 75 644 l 75 508 l 174 508 l 174 546 l 481 546 l 50 96 l 50 0 l 644 0 l 644 136 l 546 136 l 546 99 l 190 99 z "},"Ž":{"ha":793,"x_min":0,"x_max":0,"o":"m 399 1118 l 394 1118 l 224 1240 l 179 1189 l 376 1032 l 417 1032 l 614 1189 l 571 1240 z m 50 99 l 50 0 l 744 0 l 744 136 l 644 136 l 644 99 l 172 99 l 719 843 l 719 943 l 75 943 l 75 806 l 174 806 l 174 843 l 596 843 z "},"ž":{"ha":694,"x_min":0,"x_max":0,"o":"m 349 843 l 344 843 l 174 965 l 129 914 l 326 757 l 367 757 l 564 914 l 521 965 z m 619 550 l 619 644 l 75 644 l 75 508 l 174 508 l 174 546 l 481 546 l 50 96 l 50 0 l 644 0 l 644 136 l 546 136 l 546 99 l 190 99 z "},"ƒ":{"ha":743,"x_min":0,"x_max":0,"o":"m 186 -249 b 397 -37 303 -249 397 -154 l 397 496 l 596 496 l 596 596 l 397 596 l 397 707 b 508 818 397 769 446 818 b 596 776 543 818 575 801 l 596 744 l 694 744 l 694 808 l 685 821 b 508 918 647 879 583 918 b 297 707 392 918 297 824 l 297 596 l 149 596 l 149 496 l 297 496 l 297 -37 b 186 -149 297 -100 249 -149 b 99 -107 151 -149 119 -132 l 99 -75 l 0 -75 l 0 -137 l 7 -150 b 186 -249 44 -208 111 -249 z "},"Ǎ":{"ha":843,"x_min":0,"x_max":0,"o":"m 436 1118 l 432 1118 l 261 1240 l 217 1189 l 414 1032 l 454 1032 l 651 1189 l 608 1240 z m 435 778 l 607 322 l 265 322 z m 76 99 l 50 99 l 50 0 l 146 0 l 229 224 l 643 224 l 735 -17 l 826 17 l 469 967 l 400 967 z "},"ǎ":{"ha":743,"x_min":0,"x_max":0,"o":"m 381 843 l 376 843 l 206 965 l 161 914 l 358 757 l 399 757 l 596 914 l 553 965 z m 322 297 l 546 297 l 546 168 b 322 75 513 118 419 75 b 149 193 219 75 149 121 b 322 297 149 233 189 297 z m 682 0 l 682 99 l 644 99 l 644 446 b 378 669 644 622 497 669 b 178 628 307 669 232 654 l 149 613 l 149 515 l 249 515 l 249 550 b 378 571 283 563 329 571 b 546 446 458 571 546 547 l 546 397 l 322 397 b 50 193 144 397 50 300 b 297 -25 50 47 193 -25 b 546 75 388 -25 482 13 l 546 0 z "},"Ǐ":{"ha":297,"x_min":0,"x_max":0,"o":"m 151 1128 l 146 1128 l 0 1229 l -43 1178 l 129 1042 l 168 1042 l 342 1178 l 297 1229 z m 199 0 l 199 943 l 99 943 l 99 0 z "},"ǐ":{"ha":297,"x_min":0,"x_max":0,"o":"m 99 546 l 99 0 l 199 0 l 199 644 l 63 644 l 63 546 z m 151 856 l 146 856 l 0 956 l -43 906 l 129 769 l 168 769 l 342 906 l 297 956 z "},"Ǒ":{"ha":1090,"x_min":0,"x_max":0,"o":"m 547 1118 l 543 1118 l 372 1240 l 328 1189 l 525 1032 l 565 1032 l 763 1189 l 719 1240 z m 546 967 b 50 471 272 967 50 744 b 546 -25 50 197 272 -25 b 1042 471 819 -25 1042 197 b 546 967 1042 744 819 967 z m 149 471 b 546 868 149 690 326 868 b 943 471 765 868 943 690 b 546 75 943 251 765 75 b 149 471 326 75 149 251 z "},"ǒ":{"ha":793,"x_min":0,"x_max":0,"o":"m 400 843 l 394 843 l 224 965 l 179 914 l 376 757 l 417 757 l 614 914 l 571 965 z m 397 669 b 50 322 206 669 50 514 b 397 -25 50 131 206 -25 b 744 322 589 -25 744 131 b 397 669 744 514 589 669 z m 149 322 b 397 571 149 458 261 571 b 644 322 533 571 644 458 b 397 75 644 186 533 75 b 149 322 261 75 149 186 z "},"Ǔ":{"ha":892,"x_min":0,"x_max":0,"o":"m 449 1118 l 444 1118 l 274 1240 l 229 1189 l 426 1032 l 467 1032 l 664 1189 l 621 1240 z m 63 943 l 63 843 l 99 843 l 99 322 b 446 -25 99 131 254 -25 b 793 322 638 -25 793 131 l 793 943 l 694 943 l 694 322 b 446 75 694 186 582 75 b 199 322 310 75 199 186 l 199 943 z "},"ǔ":{"ha":793,"x_min":0,"x_max":0,"o":"m 399 843 l 394 843 l 224 965 l 179 914 l 376 757 l 417 757 l 614 914 l 571 965 z m 694 99 l 694 644 l 596 644 l 596 347 b 347 75 596 186 478 75 b 199 199 275 75 199 100 l 199 644 l 63 644 l 63 546 l 99 546 l 99 199 b 322 -25 99 43 224 -25 b 596 142 424 -25 533 32 l 596 0 l 732 0 l 732 99 z "},"Ǧ":{"ha":942,"x_min":0,"x_max":0,"o":"m 522 1118 l 518 1118 l 347 1240 l 303 1189 l 500 1032 l 540 1032 l 738 1189 l 694 1240 z m 644 347 l 793 347 l 793 178 b 546 75 729 115 632 75 b 149 471 326 75 149 251 b 546 868 149 690 326 868 b 744 815 618 868 686 849 l 744 781 l 843 781 l 843 868 l 833 875 b 546 967 753 933 653 967 b 50 471 272 967 50 744 b 533 -25 50 188 286 -25 b 793 72 622 -25 713 13 l 793 0 l 893 0 l 893 446 l 644 446 z "},"ǧ":{"ha":694,"x_min":0,"x_max":0,"o":"m 349 843 l 344 843 l 174 965 l 129 914 l 326 757 l 367 757 l 564 914 l 521 965 z m 136 49 b 188 29 150 42 168 35 l 482 -42 b 583 -137 557 -58 583 -107 b 493 -199 583 -174 547 -199 l 240 -199 b 110 -53 147 -199 110 -126 b 136 49 110 -17 119 19 z m 210 125 b 168 174 190 131 168 144 b 196 243 168 190 176 214 b 347 199 238 214 290 199 b 596 433 471 199 596 278 b 569 546 596 476 586 515 l 669 546 l 669 644 l 464 644 b 347 669 428 661 388 669 b 99 433 224 669 99 589 b 154 281 99 371 119 321 b 85 129 125 242 85 182 b 96 86 85 114 89 100 b 25 -94 51 36 25 -31 b 240 -297 25 -207 101 -297 l 493 -297 b 682 -137 611 -297 682 -225 b 504 54 682 -51 613 28 z m 199 433 b 347 571 199 528 272 571 b 496 433 422 571 496 529 b 347 297 496 339 422 297 b 199 433 272 297 199 339 z "},"Ǩ":{"ha":843,"x_min":0,"x_max":0,"o":"m 424 1118 l 419 1118 l 249 1240 l 204 1189 l 401 1032 l 442 1032 l 639 1189 l 596 1240 z m 724 126 l 413 492 l 713 843 l 769 843 l 769 943 l 667 943 l 199 392 l 199 943 l 99 943 l 99 0 l 199 0 l 199 238 l 349 414 l 647 63 b 793 0 679 26 707 0 l 793 99 b 724 126 743 99 740 107 z "},"ǩ":{"ha":743,"x_min":0,"x_max":0,"o":"m 399 1092 l 394 1092 l 224 1214 l 179 1163 l 376 1006 l 417 1006 l 614 1163 l 571 1214 z m 635 128 l 432 354 l 611 546 l 644 546 l 644 644 l 569 644 l 199 253 l 199 943 l 63 943 l 63 843 l 99 843 l 99 0 l 199 0 l 199 110 l 364 283 l 561 63 b 694 0 604 14 653 0 l 694 99 b 635 128 674 99 657 103 z "},"Ǫ":{"ha":1090,"x_min":0,"x_max":0,"o":"m 597 -149 b 568 -122 576 -149 568 -135 b 653 -14 568 -76 600 -50 b 1042 471 876 35 1042 233 b 546 967 1042 744 819 967 b 50 471 272 967 50 744 b 535 -25 50 200 265 -19 l 526 -32 b 478 -137 479 -75 478 -117 b 597 -249 478 -196 526 -249 b 676 -226 621 -249 649 -243 l 626 -140 b 597 -149 617 -146 606 -149 z m 149 471 b 546 868 149 690 326 868 b 943 471 765 868 943 690 b 546 75 943 251 765 75 b 149 471 326 75 149 251 z "},"ǫ":{"ha":793,"x_min":0,"x_max":0,"o":"m 425 -149 b 396 -122 404 -149 396 -135 b 476 -17 396 -78 425 -51 b 744 322 631 19 744 157 b 397 669 744 514 589 669 b 50 322 206 669 50 514 b 364 -24 50 142 188 -7 b 353 -32 360 -26 357 -29 b 306 -137 306 -75 306 -117 b 425 -249 306 -196 354 -249 b 503 -226 449 -249 475 -243 l 454 -140 b 425 -149 444 -146 433 -149 z m 149 322 b 397 571 149 458 261 571 b 644 322 533 571 644 458 b 397 75 644 186 533 75 b 149 322 261 75 149 186 z "},"Ǭ":{"ha":1090,"x_min":0,"x_max":0,"o":"m 744 1029 l 744 1104 l 347 1104 l 347 1029 z m 597 -149 b 568 -122 576 -149 568 -135 b 653 -14 568 -76 600 -50 b 1042 471 876 35 1042 233 b 546 967 1042 744 819 967 b 50 471 272 967 50 744 b 535 -25 50 200 265 -19 l 526 -32 b 478 -137 479 -75 478 -117 b 597 -249 478 -196 526 -249 b 676 -226 621 -249 649 -243 l 626 -140 b 597 -149 617 -146 606 -149 z m 149 471 b 546 868 149 690 326 868 b 943 471 765 868 943 690 b 546 75 943 251 765 75 b 149 471 326 75 149 251 z "},"ǭ":{"ha":793,"x_min":0,"x_max":0,"o":"m 596 732 l 596 806 l 199 806 l 199 732 z m 425 -149 b 396 -122 404 -149 396 -135 b 476 -17 396 -78 425 -51 b 744 322 631 19 744 157 b 397 669 744 514 589 669 b 50 322 206 669 50 514 b 364 -24 50 142 188 -7 b 353 -32 360 -26 357 -29 b 306 -137 306 -75 306 -117 b 425 -249 306 -196 354 -249 b 503 -226 449 -249 475 -243 l 454 -140 b 425 -149 444 -146 433 -149 z m 149 322 b 397 571 149 458 261 571 b 644 322 533 571 644 458 b 397 75 644 186 533 75 b 149 322 261 75 149 186 z "},"Ǵ":{"ha":942,"x_min":0,"x_max":0,"o":"m 492 1042 l 631 1181 l 569 1240 l 432 1101 z m 644 347 l 793 347 l 793 178 b 546 75 729 115 632 75 b 149 471 326 75 149 251 b 546 868 149 690 326 868 b 744 815 618 868 686 849 l 744 781 l 843 781 l 843 868 l 833 875 b 546 967 753 933 653 967 b 50 471 272 967 50 744 b 533 -25 50 188 286 -25 b 793 72 622 -25 713 13 l 793 0 l 893 0 l 893 446 l 644 446 z "},"ǵ":{"ha":694,"x_min":0,"x_max":0,"o":"m 317 757 l 456 896 l 394 956 l 257 817 z m 136 49 b 188 29 150 42 168 35 l 482 -42 b 583 -137 557 -58 583 -107 b 493 -199 583 -174 547 -199 l 240 -199 b 110 -53 147 -199 110 -126 b 136 49 110 -17 119 19 z m 210 125 b 168 174 190 131 168 144 b 196 243 168 190 176 214 b 347 199 238 214 290 199 b 596 433 471 199 596 278 b 569 546 596 476 586 515 l 669 546 l 669 644 l 464 644 b 347 669 428 661 388 669 b 99 433 224 669 99 589 b 154 281 99 371 119 321 b 85 129 125 242 85 182 b 96 86 85 114 89 100 b 25 -94 51 36 25 -31 b 240 -297 25 -207 101 -297 l 493 -297 b 682 -137 611 -297 682 -225 b 504 54 682 -51 613 28 z m 199 433 b 347 571 199 528 272 571 b 496 433 422 571 496 529 b 347 297 496 339 422 297 b 199 433 272 297 199 339 z "},"Ȁ":{"ha":843,"x_min":0,"x_max":0,"o":"m 564 1042 l 624 1101 l 486 1240 l 425 1181 z m 315 1042 l 375 1101 l 238 1240 l 176 1181 z m 435 778 l 607 322 l 265 322 z m 76 99 l 50 99 l 50 0 l 146 0 l 229 224 l 643 224 l 735 -17 l 826 17 l 469 967 l 400 967 z "},"ȁ":{"ha":743,"x_min":0,"x_max":0,"o":"m 508 757 l 568 817 l 431 956 l 369 896 z m 260 757 l 319 817 l 182 956 l 121 896 z m 322 297 l 546 297 l 546 168 b 322 75 513 118 419 75 b 149 193 219 75 149 121 b 322 297 149 233 189 297 z m 682 0 l 682 99 l 644 99 l 644 446 b 378 669 644 622 497 669 b 178 628 307 669 232 654 l 149 613 l 149 515 l 249 515 l 249 550 b 378 571 283 563 329 571 b 546 446 458 571 546 547 l 546 397 l 322 397 b 50 193 144 397 50 300 b 297 -25 50 47 193 -25 b 546 75 388 -25 482 13 l 546 0 z "},"Ș":{"ha":843,"x_min":0,"x_max":0,"o":"m 364 -279 l 406 -310 b 488 -132 453 -261 488 -201 b 425 -69 488 -97 460 -69 b 364 -132 390 -69 364 -97 b 403 -190 364 -158 379 -182 b 364 -279 403 -212 388 -251 z m 149 169 l 149 204 l 50 204 l 50 125 l 65 110 b 422 -25 125 56 271 -25 b 793 211 650 -25 793 76 b 199 744 793 560 199 522 b 422 868 199 819 303 868 b 644 797 500 868 586 842 l 644 763 l 744 763 l 744 840 l 728 856 b 422 967 642 942 511 967 b 99 744 243 967 99 878 b 694 211 99 426 694 476 b 422 75 694 150 614 75 b 149 169 318 75 206 126 z "},"ș":{"ha":644,"x_min":0,"x_max":0,"o":"m 264 -279 l 307 -310 b 388 -132 354 -261 388 -201 b 326 -69 388 -97 361 -69 b 264 -132 292 -69 264 -97 b 304 -190 264 -158 281 -182 b 264 -279 304 -212 288 -251 z m 446 536 l 446 504 l 546 504 l 546 582 l 529 596 b 322 669 472 649 397 669 b 99 496 196 669 99 589 b 496 161 99 269 496 304 b 322 75 496 108 421 75 b 149 128 228 75 176 103 l 149 156 l 50 156 l 50 89 l 63 75 b 322 -25 92 40 167 -25 b 596 161 486 -25 596 50 b 199 496 596 386 199 374 b 322 571 199 515 224 565 b 446 536 371 571 413 560 z "},"Ț":{"ha":892,"x_min":0,"x_max":0,"o":"m 388 -279 l 431 -310 b 513 -132 478 -261 513 -201 b 450 -69 513 -97 485 -69 b 388 -132 415 -69 388 -97 b 428 -190 388 -158 404 -182 b 388 -279 428 -212 411 -251 z m 50 943 l 50 806 l 149 806 l 149 843 l 397 843 l 397 0 l 496 0 l 496 843 l 744 843 l 744 806 l 843 806 l 843 943 z "},"ț":{"ha":594,"x_min":0,"x_max":0,"o":"m 239 -279 l 282 -310 b 364 -132 329 -261 364 -201 b 301 -69 364 -97 336 -69 b 239 -132 267 -69 239 -97 b 279 -190 239 -158 256 -182 b 239 -279 279 -212 263 -251 z m 149 793 l 149 644 l 50 644 l 50 546 l 149 546 l 149 186 b 360 -25 149 69 243 -25 b 539 75 435 -25 501 15 l 546 86 l 546 136 l 446 136 l 446 117 b 360 75 426 90 394 75 b 249 186 297 75 249 124 l 249 546 l 496 546 l 496 644 l 249 644 l 249 793 z "},"Ȧ":{"ha":843,"x_min":0,"x_max":0,"o":"m 435 1215 b 365 1147 397 1215 365 1185 b 435 1078 365 1110 397 1078 b 503 1147 472 1078 503 1110 b 435 1215 503 1185 472 1215 z m 435 778 l 607 322 l 265 322 z m 76 99 l 50 99 l 50 0 l 146 0 l 229 224 l 643 224 l 735 -17 l 826 17 l 469 967 l 400 967 z "},"ȧ":{"ha":743,"x_min":0,"x_max":0,"o":"m 379 918 b 310 850 342 918 310 888 b 379 781 310 813 342 781 b 447 850 417 781 447 813 b 379 918 447 888 417 918 z m 322 297 l 546 297 l 546 168 b 322 75 513 118 419 75 b 149 193 219 75 149 121 b 322 297 149 233 189 297 z m 682 0 l 682 99 l 644 99 l 644 446 b 378 669 644 622 497 669 b 178 628 307 669 232 654 l 149 613 l 149 515 l 249 515 l 249 550 b 378 571 283 563 329 571 b 546 446 458 571 546 547 l 546 397 l 322 397 b 50 193 144 397 50 300 b 297 -25 50 47 193 -25 b 546 75 388 -25 482 13 l 546 0 z "},"ȷ":{"ha":272,"x_min":0,"x_max":0,"o":"m -50 -172 l -50 -149 l -149 -149 l -149 -206 l -140 -218 b 13 -297 -107 -265 -51 -297 b 199 -111 115 -297 199 -214 l 199 644 l 63 644 l 63 546 l 99 546 l 99 -111 b 13 -199 99 -160 61 -199 b -50 -172 -11 -199 -33 -189 z "},"ˆ":{"ha":544,"x_min":0,"x_max":0,"o":"m 275 856 l 446 735 l 490 785 l 293 943 l 253 943 l 56 785 l 99 735 l 271 856 z "},"ˇ":{"ha":544,"x_min":0,"x_max":0,"o":"m 275 843 l 271 843 l 99 965 l 56 914 l 253 757 l 293 757 l 490 914 l 446 965 z "},"ˉ":{"ha":496,"x_min":0,"x_max":0,"o":"m 446 843 l 446 918 l 50 918 l 50 843 z "},"ˊ":{"ha":297,"x_min":0,"x_max":0,"o":"m 107 757 l 246 896 l 185 956 l 47 817 z "},"ˋ":{"ha":297,"x_min":0,"x_max":0,"o":"m 143 757 l 203 817 l 64 956 l 4 896 z "},"˘":{"ha":446,"x_min":0,"x_max":0,"o":"m 364 939 b 224 868 332 890 285 868 b 83 939 163 868 115 890 l 76 949 l 15 907 l 22 896 b 224 793 46 861 103 793 b 424 896 344 793 400 861 l 432 907 l 369 949 z "},"˙":{"ha":247,"x_min":0,"x_max":0,"o":"m 124 918 b 56 850 86 918 56 888 b 124 781 56 813 86 781 b 192 850 161 781 192 813 b 124 918 192 888 161 918 z "},"˚":{"ha":347,"x_min":0,"x_max":0,"o":"m 174 881 b 215 861 182 881 196 879 b 236 818 228 849 236 835 b 215 776 236 801 228 789 b 174 757 196 758 182 757 b 132 776 164 757 150 758 b 111 818 114 794 111 808 b 132 861 111 835 119 849 b 174 881 151 879 165 881 z m 174 943 b 89 906 144 943 115 931 b 50 818 63 881 50 850 b 89 733 50 786 63 758 b 174 694 115 708 144 694 b 258 732 203 694 232 707 b 297 818 285 757 297 786 b 258 906 297 850 285 881 b 174 943 232 931 203 943 z "},"˛":{"ha":347,"x_min":0,"x_max":0,"o":"m 169 -149 b 140 -122 149 -149 140 -135 b 283 25 140 -61 194 -32 l 261 72 b 99 -32 161 14 128 -6 b 50 -137 51 -75 50 -117 b 169 -249 50 -196 99 -249 b 249 -226 193 -249 221 -243 l 199 -140 b 169 -149 189 -146 178 -149 z "},"˜":{"ha":446,"x_min":0,"x_max":0,"o":"m 342 904 b 313 871 336 875 325 871 b 276 882 306 871 293 874 l 200 924 b 133 939 179 935 154 939 b 29 846 86 939 42 913 l 21 800 l 94 786 l 104 832 b 133 865 110 861 121 865 b 169 854 140 865 153 863 l 247 813 b 313 797 268 801 292 797 b 417 890 360 797 404 824 l 425 936 l 353 950 z "},"˝":{"ha":594,"x_min":0,"x_max":0,"o":"m 183 757 l 321 896 l 261 956 l 124 817 z m 432 757 l 571 896 l 510 956 l 372 817 z "},"˵":{"ha":544,"x_min":0,"x_max":0,"o":"m 192 757 l 251 817 l 114 956 l 53 896 z m 440 757 l 500 817 l 363 956 l 301 896 z "},"̀":{"ha":0,"x_min":0,"x_max":0,"o":"m -156 757 l -96 817 l -233 956 l -294 896 z "},"́":{"ha":0,"x_min":0,"x_max":0,"o":"m -215 757 l -76 896 l -137 956 l -275 817 z "},"̂":{"ha":0,"x_min":0,"x_max":0,"o":"m -271 893 l -99 771 l -56 822 l -253 979 l -293 979 l -490 822 l -446 771 l -275 893 z "},"̃":{"ha":0,"x_min":0,"x_max":0,"o":"m -92 904 b -122 871 -97 875 -110 871 b -157 882 -129 871 -140 874 l -235 924 b -300 939 -256 935 -279 939 b -404 846 -347 939 -392 913 l -412 800 l -340 786 l -331 832 b -300 865 -325 861 -312 865 b -264 854 -293 865 -281 863 l -187 813 b -122 797 -167 801 -143 797 b -17 890 -75 797 -29 824 l -8 936 l -82 950 z "},"̄":{"ha":0,"x_min":0,"x_max":0,"o":"m -50 843 l -50 918 l -446 918 l -446 843 z "},"̅":{"ha":0,"x_min":0,"x_max":0,"o":"m 0 843 l 0 918 l -496 918 l -496 843 z "},"̆":{"ha":0,"x_min":0,"x_max":0,"o":"m -58 939 b -199 868 -90 890 -137 868 b -339 939 -260 868 -307 890 l -344 949 l -407 907 l -400 896 b -199 793 -376 861 -319 793 b 3 896 -78 793 -21 861 l 10 907 l -53 949 z "},"̇":{"ha":0,"x_min":0,"x_max":0,"o":"m -99 918 b -168 850 -136 918 -168 888 b -99 781 -168 813 -136 781 b -31 850 -61 781 -31 813 b -99 918 -31 888 -61 918 z "},"̈":{"ha":0,"x_min":0,"x_max":0,"o":"m -111 918 b -179 850 -149 918 -179 888 b -111 781 -179 813 -149 781 b -43 850 -74 781 -43 813 b -111 918 -43 888 -74 918 z m -378 918 b -446 850 -415 918 -446 888 b -378 781 -446 813 -415 781 b -310 850 -340 781 -310 813 b -378 918 -310 888 -340 918 z "},"̉":{"ha":197,"x_min":0,"x_max":0,"o":"m 38 831 b 99 553 38 796 64 553 b 161 831 133 553 161 796 b 99 893 161 865 133 893 b 38 831 64 893 38 865 z "},"̊":{"ha":0,"x_min":0,"x_max":0,"o":"m -174 868 b -140 850 -167 868 -157 867 b -124 818 -131 842 -124 832 b -140 786 -124 804 -131 794 b -174 769 -157 769 -167 769 b -207 785 -181 769 -190 768 b -224 818 -224 801 -224 811 b -207 850 -224 832 -217 842 b -174 868 -190 867 -181 868 z m -174 943 b -258 906 -203 943 -232 931 b -297 818 -285 881 -297 850 b -258 733 -297 786 -285 758 b -174 694 -232 708 -203 694 b -89 732 -144 694 -115 707 b -50 818 -62 757 -50 786 b -89 906 -50 850 -62 881 b -174 943 -115 931 -144 943 z "},"̋":{"ha":0,"x_min":0,"x_max":0,"o":"m -185 757 l -46 896 l -107 956 l -244 817 z m -433 757 l -294 896 l -356 956 l -493 817 z "},"̌":{"ha":0,"x_min":0,"x_max":0,"o":"m -271 843 l -275 843 l -446 965 l -490 914 l -293 757 l -253 757 l -56 914 l -99 965 z "},"̍":{"ha":197,"x_min":0,"x_max":0,"o":"m 38 831 b 99 769 38 796 64 769 b 161 831 133 769 161 796 b 99 893 161 865 133 893 b 38 831 64 893 38 865 z "},"̏":{"ha":0,"x_min":0,"x_max":0,"o":"m -81 757 l -21 817 l -158 956 l -219 896 z m -329 757 l -269 817 l -407 956 l -468 896 z "},"̑":{"ha":0,"x_min":0,"x_max":0,"o":"m -339 799 b -199 868 -307 847 -260 868 b -58 799 -137 868 -90 847 l -53 789 l 10 829 l 3 840 b -199 943 -21 875 -78 943 b -400 840 -319 943 -376 875 l -407 829 l -344 789 z "},"Ω":{"ha":1042,"x_min":0,"x_max":0,"o":"m 918 0 l 918 99 l 774 99 b 992 496 906 183 992 328 b 521 967 992 757 782 967 b 50 496 261 967 50 756 b 268 99 50 328 136 183 l 124 99 l 124 0 l 446 0 l 446 125 l 385 150 b 149 496 247 204 149 339 b 521 868 149 700 317 868 b 893 496 726 868 893 701 b 657 150 893 339 794 204 l 596 125 l 596 0 z "},"π":{"ha":743,"x_min":0,"x_max":0,"o":"m 694 644 l 50 644 l 50 546 l 149 546 l 149 0 l 249 0 l 249 546 l 496 546 l 496 99 b 510 50 501 68 500 67 b 546 14 518 35 531 22 b 596 0 558 7 576 0 l 619 0 l 619 99 l 597 546 l 694 546 z "},"Ẁ":{"ha":1389,"x_min":0,"x_max":0,"o":"m 725 1042 l 785 1101 l 647 1240 l 586 1181 z m 1364 925 l 1271 960 l 967 160 l 744 718 l 744 843 l 644 843 l 644 718 l 422 160 l 125 943 l 25 943 l 25 843 l 56 843 l 386 -24 l 457 -24 l 694 574 l 932 -24 l 1003 -24 z "},"ẁ":{"ha":1140,"x_min":0,"x_max":0,"o":"m 594 757 l 654 817 l 517 956 l 456 896 z m 1117 644 l 1017 644 l 1017 631 l 793 142 l 614 518 l 614 619 l 515 619 l 515 518 l 336 142 l 106 644 l 18 644 l 18 546 l 40 546 l 301 -24 l 368 -24 l 564 392 l 760 -24 l 828 -24 l 1117 608 z "},"Ẃ":{"ha":1389,"x_min":0,"x_max":0,"o":"m 665 1042 l 804 1181 l 743 1240 l 606 1101 z m 1364 925 l 1271 960 l 967 160 l 744 718 l 744 843 l 644 843 l 644 718 l 422 160 l 125 943 l 25 943 l 25 843 l 56 843 l 386 -24 l 457 -24 l 694 574 l 932 -24 l 1003 -24 z "},"ẃ":{"ha":1140,"x_min":0,"x_max":0,"o":"m 535 757 l 674 896 l 613 956 l 475 817 z m 1117 644 l 1017 644 l 1017 631 l 793 142 l 614 518 l 614 619 l 515 619 l 515 518 l 336 142 l 106 644 l 18 644 l 18 546 l 40 546 l 301 -24 l 368 -24 l 564 392 l 760 -24 l 828 -24 l 1117 608 z "},"Ẅ":{"ha":1389,"x_min":0,"x_max":0,"o":"m 832 1215 b 764 1147 794 1215 764 1185 b 832 1078 764 1110 794 1078 b 900 1147 869 1078 900 1110 b 832 1215 900 1185 869 1215 z m 565 1215 b 497 1147 528 1215 497 1185 b 565 1078 497 1110 528 1078 b 633 1147 603 1078 633 1110 b 565 1215 633 1185 603 1215 z m 1364 925 l 1271 960 l 967 160 l 744 718 l 744 843 l 644 843 l 644 718 l 422 160 l 125 943 l 25 943 l 25 843 l 56 843 l 386 -24 l 457 -24 l 694 574 l 932 -24 l 1003 -24 z "},"ẅ":{"ha":1140,"x_min":0,"x_max":0,"o":"m 701 918 b 633 850 664 918 633 888 b 701 781 633 813 664 781 b 769 850 739 781 769 813 b 701 918 769 888 739 918 z m 435 918 b 367 850 397 918 367 888 b 435 781 367 813 397 781 b 503 850 472 781 503 813 b 435 918 503 888 472 918 z m 1117 644 l 1017 644 l 1017 631 l 793 142 l 614 518 l 614 619 l 515 619 l 515 518 l 336 142 l 106 644 l 18 644 l 18 546 l 40 546 l 301 -24 l 368 -24 l 564 392 l 760 -24 l 828 -24 l 1117 608 z "},"Ẇ":{"ha":1389,"x_min":0,"x_max":0,"o":"m 694 1215 b 625 1147 657 1215 625 1185 b 694 1078 625 1110 657 1078 b 763 1147 732 1078 763 1110 b 694 1215 763 1185 732 1215 z m 1364 925 l 1271 960 l 967 160 l 744 718 l 744 843 l 644 843 l 644 718 l 422 160 l 125 943 l 25 943 l 25 843 l 56 843 l 386 -24 l 457 -24 l 694 574 l 932 -24 l 1003 -24 z "},"ẇ":{"ha":1140,"x_min":0,"x_max":0,"o":"m 565 918 b 496 850 528 918 496 888 b 565 781 496 813 528 781 b 633 850 603 781 633 813 b 565 918 633 888 603 918 z m 1117 644 l 1017 644 l 1017 631 l 793 142 l 614 518 l 614 619 l 515 619 l 515 518 l 336 142 l 106 644 l 18 644 l 18 546 l 40 546 l 301 -24 l 368 -24 l 564 392 l 760 -24 l 828 -24 l 1117 608 z "},"Ẏ":{"ha":892,"x_min":0,"x_max":0,"o":"m 447 1215 b 378 1147 410 1215 378 1185 b 447 1078 378 1110 410 1078 b 515 1147 485 1078 515 1110 b 447 1215 515 1185 485 1215 z m 868 943 l 769 943 l 769 936 l 446 436 l 118 943 l 25 943 l 25 843 l 64 843 l 397 331 l 397 0 l 496 0 l 496 331 l 868 908 z "},"ẏ":{"ha":743,"x_min":0,"x_max":0,"o":"m 372 918 b 303 850 335 918 303 888 b 372 781 303 813 335 781 b 440 850 410 781 440 813 b 372 918 440 888 410 918 z m 344 -164 l 719 614 l 719 644 l 619 644 l 619 636 l 360 96 l 115 644 l 25 644 l 25 546 l 51 546 l 303 -22 l 256 -122 b 179 -199 239 -156 214 -199 b 124 -168 160 -199 138 -183 l 124 -150 l 25 -150 l 25 -203 l 33 -214 b 179 -297 65 -261 121 -297 b 344 -164 278 -297 328 -194 z "},"ẞ":{"ha":892,"x_min":0,"x_max":0,"o":"m 50 546 l 99 546 l 99 0 l 199 0 l 199 757 b 397 868 199 824 290 868 b 632 725 521 868 624 806 b 590 725 618 726 604 725 b 272 521 331 725 272 603 b 540 289 272 382 424 329 b 744 161 738 221 744 190 b 546 75 744 119 671 78 b 347 129 444 75 378 103 l 347 174 l 249 174 l 249 89 l 260 75 b 546 -25 322 1 444 -25 b 843 161 774 -19 843 82 b 572 382 843 269 747 325 b 372 521 435 428 372 464 b 590 626 372 606 494 626 b 665 622 614 626 639 625 l 719 618 l 719 714 b 397 967 719 867 581 967 b 99 757 231 967 99 883 l 99 644 l 50 644 z "},"Ỳ":{"ha":892,"x_min":0,"x_max":0,"o":"m 476 1042 l 536 1101 l 399 1240 l 338 1181 z m 868 943 l 769 943 l 769 936 l 446 436 l 118 943 l 25 943 l 25 843 l 64 843 l 397 331 l 397 0 l 496 0 l 496 331 l 868 908 z "},"ỳ":{"ha":743,"x_min":0,"x_max":0,"o":"m 403 757 l 463 817 l 325 956 l 264 896 z m 344 -164 l 719 614 l 719 644 l 619 644 l 619 636 l 360 96 l 115 644 l 25 644 l 25 546 l 51 546 l 303 -22 l 256 -122 b 179 -199 239 -156 214 -199 b 124 -168 160 -199 138 -183 l 124 -150 l 25 -150 l 25 -203 l 33 -214 b 179 -297 65 -261 121 -297 b 344 -164 278 -297 328 -194 z "}," ":{"ha":644,"x_min":0,"x_max":0,"o":""}," ":{"ha":1239,"x_min":0,"x_max":0,"o":""}," ":{"ha":644,"x_min":0,"x_max":0,"o":""}," ":{"ha":1239,"x_min":0,"x_max":0,"o":""}," ":{"ha":446,"x_min":0,"x_max":0,"o":""}," ":{"ha":347,"x_min":0,"x_max":0,"o":""}," ":{"ha":197,"x_min":0,"x_max":0,"o":""}," ":{"ha":743,"x_min":0,"x_max":0,"o":""}," ":{"ha":247,"x_min":0,"x_max":0,"o":""}," ":{"ha":247,"x_min":0,"x_max":0,"o":""}," ":{"ha":99,"x_min":0,"x_max":0,"o":""},"​":{"ha":0,"x_min":0,"x_max":0,"o":""},"‐":{"ha":446,"x_min":0,"x_max":0,"o":"m 397 347 l 397 446 l 50 446 l 50 347 z "},"‑":{"ha":446,"x_min":0,"x_max":0,"o":"m 397 347 l 397 446 l 50 446 l 50 347 z "},"‒":{"ha":743,"x_min":0,"x_max":0,"o":"m 694 347 l 694 446 l 50 446 l 50 347 z "},"–":{"ha":644,"x_min":0,"x_max":0,"o":"m 596 347 l 596 446 l 50 446 l 50 347 z "},"—":{"ha":1239,"x_min":0,"x_max":0,"o":"m 1190 347 l 1190 446 l 50 446 l 50 347 z "},"―":{"ha":1389,"x_min":0,"x_max":0,"o":"m 1339 347 l 1339 446 l 50 446 l 50 347 z "},"‘":{"ha":297,"x_min":0,"x_max":0,"o":"m 135 879 b 182 978 135 904 154 950 l 146 1014 b 50 821 92 963 50 897 b 113 760 50 786 78 760 b 174 821 147 760 174 786 b 135 879 174 847 158 871 z "},"’":{"ha":297,"x_min":0,"x_max":0,"o":"m 114 893 b 67 794 114 868 94 822 l 103 758 b 199 951 157 810 199 875 b 136 1013 199 986 171 1013 b 75 951 101 1013 75 986 b 114 893 75 925 90 901 z "},"‚":{"ha":297,"x_min":0,"x_max":0,"o":"m 114 -21 b 67 -119 114 -46 94 -92 l 103 -156 b 199 38 157 -104 199 -39 b 136 99 199 72 171 99 b 75 38 101 99 75 72 b 114 -21 75 11 90 -12 z "},"‛":{"ha":297,"x_min":0,"x_max":0,"o":"m 133 893 b 174 951 157 901 174 925 b 111 1013 174 986 146 1013 b 50 951 76 1013 50 986 b 144 758 50 875 90 810 l 181 794 b 133 893 153 822 133 868 z "},"“":{"ha":496,"x_min":0,"x_max":0,"o":"m 133 879 b 181 978 133 904 153 950 l 144 1014 b 49 821 90 963 49 897 b 111 760 49 786 76 760 b 172 821 146 760 172 786 b 133 879 172 847 157 871 z m 332 879 b 379 978 332 904 351 950 l 343 1014 b 247 821 289 963 247 897 b 310 760 247 786 275 760 b 371 821 344 760 371 786 b 332 879 371 847 356 871 z "},"”":{"ha":496,"x_min":0,"x_max":0,"o":"m 313 893 b 265 794 313 868 293 822 l 301 758 b 397 951 356 810 397 875 b 335 1013 397 986 369 1013 b 274 951 300 1013 274 986 b 313 893 274 925 289 901 z m 114 893 b 67 794 114 868 94 822 l 103 758 b 199 951 157 810 199 875 b 136 1013 199 986 171 1013 b 75 951 101 1013 75 986 b 114 893 75 925 90 901 z "},"„":{"ha":496,"x_min":0,"x_max":0,"o":"m 313 -21 b 265 -119 313 -46 293 -92 l 301 -156 b 397 38 356 -104 397 -39 b 335 99 397 72 369 99 b 274 38 300 99 274 72 b 313 -21 274 11 289 -12 z m 114 -21 b 67 -119 114 -46 94 -92 l 103 -156 b 199 38 157 -104 199 -39 b 136 99 199 72 171 99 b 75 38 101 99 75 72 b 114 -21 75 11 90 -12 z "},"‟":{"ha":496,"x_min":0,"x_max":0,"o":"m 133 893 b 174 951 157 901 174 925 b 111 1013 174 986 146 1013 b 50 951 76 1013 50 986 b 144 758 50 875 90 810 l 181 794 b 133 893 153 822 133 868 z m 332 893 b 372 951 356 901 372 925 b 310 1013 372 986 344 1013 b 249 951 275 1013 249 986 b 343 758 249 875 289 810 l 379 794 b 332 893 351 822 332 868 z "},"†":{"ha":743,"x_min":0,"x_max":0,"o":"m 50 571 l 335 583 l 322 -199 l 422 -199 l 410 583 l 694 571 l 694 669 l 410 657 l 422 943 l 322 943 l 335 657 l 50 669 z "},"‡":{"ha":743,"x_min":0,"x_max":0,"o":"m 50 571 l 335 583 l 335 161 l 50 174 l 50 75 l 335 86 l 322 -199 l 422 -199 l 410 86 l 694 75 l 694 174 l 410 161 l 410 583 l 694 571 l 694 669 l 410 657 l 422 943 l 322 943 l 335 657 l 50 669 z "},"•":{"ha":347,"x_min":0,"x_max":0,"o":"m 50 322 b 174 199 50 254 106 199 b 297 322 242 199 297 254 b 174 446 297 390 242 446 b 50 322 106 446 50 390 z "},"‣":{"ha":297,"x_min":0,"x_max":0,"o":"m 50 446 l 50 199 l 249 322 z "},"․":{"ha":247,"x_min":0,"x_max":0,"o":"m 75 38 b 136 -25 75 3 101 -25 b 199 38 171 -25 199 3 b 136 99 199 72 171 99 b 75 38 101 99 75 72 z "},"‥":{"ha":446,"x_min":0,"x_max":0,"o":"m 63 38 b 124 -25 63 3 89 -25 b 186 38 158 -25 186 3 b 124 99 186 72 158 99 b 63 38 89 99 63 72 z m 261 38 b 322 -25 261 3 288 -25 b 385 38 357 -25 385 3 b 322 99 385 72 357 99 b 261 38 288 99 261 72 z "},"…":{"ha":644,"x_min":0,"x_max":0,"o":"m 63 38 b 124 -25 63 3 89 -25 b 186 38 158 -25 186 3 b 124 99 186 72 158 99 b 63 38 89 99 63 72 z m 458 38 b 521 -25 458 3 486 -25 b 583 38 556 -25 583 3 b 521 99 583 72 556 99 b 458 38 486 99 458 72 z m 261 38 b 322 -25 261 3 288 -25 b 385 38 357 -25 385 3 b 322 99 385 72 357 99 b 261 38 288 99 261 72 z "},"‰":{"ha":1389,"x_min":0,"x_max":0,"o":"m 893 174 b 719 347 893 261 835 347 b 546 174 610 347 546 267 b 719 0 546 85 606 0 b 893 174 832 0 893 85 z m 719 249 b 793 174 789 249 793 190 b 719 99 793 139 778 99 b 644 174 663 99 644 139 b 719 249 644 206 661 249 z m 397 719 b 224 893 397 807 339 893 b 50 719 114 893 50 813 b 224 546 50 631 110 546 b 397 719 336 546 397 631 z m 224 793 b 297 719 293 793 297 736 b 224 644 297 685 282 644 b 149 719 167 644 149 685 b 224 793 149 751 165 793 z m 788 892 l 93 99 l 168 33 l 863 828 z m 1339 174 b 1165 347 1339 261 1281 347 b 992 174 1056 347 992 267 b 1165 0 992 85 1051 0 b 1339 174 1278 0 1339 85 z m 1165 249 b 1240 174 1235 249 1240 190 b 1165 99 1240 139 1224 99 b 1092 174 1108 99 1092 139 b 1165 249 1092 206 1107 249 z "},"‹":{"ha":347,"x_min":0,"x_max":0,"o":"m 150 322 l 286 490 l 210 551 l 38 342 l 38 303 l 210 93 l 286 157 z "},"›":{"ha":347,"x_min":0,"x_max":0,"o":"m 197 322 l 61 157 l 138 93 l 310 303 l 310 342 l 138 551 l 61 490 z "},"⁄":{"ha":197,"x_min":0,"x_max":0,"o":"m -211 1 l 483 794 l 410 860 l -285 65 z "},"⁰":{"ha":496,"x_min":0,"x_max":0,"o":"m 136 876 b 249 1079 136 1022 207 1079 b 360 876 290 1079 360 1022 b 249 657 360 721 289 657 b 136 876 204 657 136 726 z m 249 1154 b 63 876 150 1154 63 1047 b 249 583 63 696 150 583 b 433 876 347 583 433 696 b 249 1154 433 1047 347 1154 z "},"⁴":{"ha":471,"x_min":0,"x_max":0,"o":"m 297 943 l 297 769 l 125 769 b 269 1142 225 925 269 1024 l 194 1142 b 31 760 194 1033 153 946 l 25 751 l 25 694 l 297 694 l 297 596 l 372 596 l 372 694 l 422 694 l 422 769 l 372 769 l 372 943 z "},"⁵":{"ha":446,"x_min":0,"x_max":0,"o":"m 40 853 l 113 840 b 224 918 128 886 188 918 b 335 794 283 918 335 865 b 217 657 335 717 279 657 b 111 707 178 657 133 675 l 111 719 l 38 719 l 38 688 l 42 679 b 217 583 79 613 158 583 b 410 794 326 583 410 682 b 224 992 410 903 329 992 b 122 961 192 992 154 981 l 131 1067 l 285 1067 l 285 1054 l 360 1054 l 360 1142 l 61 1142 z "},"⁶":{"ha":446,"x_min":0,"x_max":0,"o":"m 231 979 b 128 938 190 979 156 964 l 126 939 b 224 1079 142 1013 171 1079 b 293 1061 253 1079 282 1069 l 293 1049 l 367 1049 l 367 1089 l 358 1100 b 224 1154 326 1139 268 1154 b 50 782 78 1154 50 947 b 231 583 50 672 131 583 b 397 782 322 583 397 672 b 231 979 397 892 322 979 z m 124 782 b 231 906 124 850 172 906 b 322 782 282 906 322 850 b 231 657 322 714 282 657 b 124 782 172 657 124 714 z "},"⁷":{"ha":421,"x_min":0,"x_max":0,"o":"m 25 1142 l 25 1042 l 99 1042 l 99 1067 l 283 1067 l 271 1049 b 149 596 168 907 149 725 l 224 596 b 331 1003 224 726 243 882 l 401 1100 l 401 1142 z "},"⁸":{"ha":471,"x_min":0,"x_max":0,"o":"m 236 583 b 422 760 332 583 422 664 b 325 903 422 822 382 875 b 379 1007 358 928 379 965 b 236 1154 379 1086 317 1154 b 92 1007 156 1154 92 1086 b 146 903 92 965 113 928 b 50 760 89 875 50 822 b 236 583 50 664 140 583 z m 347 760 b 236 657 347 708 294 657 b 124 760 176 657 124 708 b 236 861 124 817 183 861 b 347 760 289 861 347 817 z m 167 1007 b 236 1079 167 1046 199 1079 b 306 1007 274 1079 306 1046 b 236 935 306 968 274 935 b 167 1007 199 935 167 968 z "},"⁹":{"ha":446,"x_min":0,"x_max":0,"o":"m 215 757 b 318 799 256 757 290 772 l 319 797 b 224 657 304 724 276 657 b 154 676 194 657 165 668 l 154 694 l 79 694 l 79 647 l 88 636 b 224 583 119 597 179 583 b 397 956 369 583 397 790 b 215 1154 397 1065 315 1154 b 50 956 124 1154 50 1065 b 215 757 50 846 124 757 z m 322 956 b 215 831 322 888 274 831 b 124 956 164 831 124 888 b 215 1079 124 1024 164 1079 b 322 956 274 1079 322 1024 z "},"₀":{"ha":496,"x_min":0,"x_max":0,"o":"m 136 -17 b 249 186 136 129 207 186 b 360 -17 290 186 360 129 b 249 -236 360 -172 289 -236 b 136 -17 204 -236 136 -167 z m 249 261 b 63 -17 150 261 63 154 b 249 -310 63 -197 150 -310 b 433 -17 347 -310 433 -197 b 249 261 433 154 347 261 z "},"₁":{"ha":272,"x_min":0,"x_max":0,"o":"m 25 146 l 79 97 l 99 122 l 99 -297 l 174 -297 l 174 249 l 113 249 z "},"₂":{"ha":446,"x_min":0,"x_max":0,"o":"m 397 -297 l 397 -199 l 322 -199 l 322 -224 l 157 -224 l 282 -93 b 385 99 368 -1 385 44 b 224 261 385 188 313 261 b 63 99 135 261 63 188 l 136 99 b 224 186 136 146 176 186 b 310 99 271 186 310 146 b 226 -40 310 64 300 36 l 38 -242 l 38 -297 z "},"₃":{"ha":471,"x_min":0,"x_max":0,"o":"m 124 -133 l 50 -133 b 236 -310 50 -229 140 -310 b 422 -133 332 -310 422 -229 b 325 10 422 -71 382 -18 b 379 114 358 35 379 72 b 236 261 379 193 317 261 b 92 114 156 261 92 193 l 167 114 b 236 186 167 153 199 186 b 306 114 274 186 306 153 b 236 42 306 75 274 42 l 236 -32 b 347 -133 289 -32 347 -76 b 236 -236 347 -185 294 -236 b 124 -133 176 -236 124 -185 z "},"₄":{"ha":471,"x_min":0,"x_max":0,"o":"m 297 50 l 297 -124 l 125 -124 b 269 249 225 32 269 131 l 194 249 b 31 -133 194 140 153 53 l 25 -142 l 25 -199 l 297 -199 l 297 -297 l 372 -297 l 372 -199 l 422 -199 l 422 -124 l 372 -124 l 372 50 z "},"₅":{"ha":446,"x_min":0,"x_max":0,"o":"m 40 -40 l 113 -53 b 224 25 128 -7 188 25 b 335 -99 283 25 335 -28 b 217 -236 335 -176 279 -236 b 111 -186 178 -236 133 -218 l 111 -174 l 38 -174 l 38 -206 l 42 -214 b 217 -310 79 -281 158 -310 b 410 -99 326 -310 410 -211 b 224 99 410 10 329 99 b 122 68 192 99 154 88 l 131 174 l 285 174 l 285 161 l 360 161 l 360 249 l 61 249 z "},"₆":{"ha":446,"x_min":0,"x_max":0,"o":"m 231 86 b 128 44 190 86 156 71 l 126 46 b 224 186 142 119 171 186 b 293 168 253 186 282 176 l 293 156 l 367 156 l 367 196 l 358 207 b 224 261 326 246 268 261 b 50 -111 78 261 50 54 b 231 -310 50 -221 131 -310 b 397 -111 322 -310 397 -221 b 231 86 397 -1 322 86 z m 124 -111 b 231 13 124 -43 172 13 b 322 -111 282 13 322 -43 b 231 -236 322 -179 282 -236 b 124 -111 172 -236 124 -179 z "},"₇":{"ha":421,"x_min":0,"x_max":0,"o":"m 25 249 l 25 149 l 99 149 l 99 174 l 283 174 l 271 156 b 149 -297 168 14 149 -168 l 224 -297 b 331 110 224 -167 243 -11 l 401 207 l 401 249 z "},"₈":{"ha":471,"x_min":0,"x_max":0,"o":"m 236 -310 b 422 -133 332 -310 422 -229 b 325 10 422 -71 382 -18 b 379 114 358 35 379 72 b 236 261 379 193 317 261 b 92 114 156 261 92 193 b 146 10 92 72 113 35 b 50 -133 89 -18 50 -71 b 236 -310 50 -229 140 -310 z m 347 -133 b 236 -236 347 -185 294 -236 b 124 -133 176 -236 124 -185 b 236 -32 124 -76 183 -32 b 347 -133 289 -32 347 -76 z m 167 114 b 236 186 167 153 199 186 b 306 114 274 186 306 153 b 236 42 306 75 274 42 b 167 114 199 42 167 75 z "},"₉":{"ha":446,"x_min":0,"x_max":0,"o":"m 215 -136 b 318 -94 256 -136 290 -121 l 319 -96 b 224 -236 304 -169 276 -236 b 154 -217 194 -236 165 -225 l 154 -199 l 79 -199 l 79 -246 l 88 -257 b 224 -310 119 -296 179 -310 b 397 63 369 -310 397 -103 b 215 261 397 172 315 261 b 50 63 124 261 50 172 b 215 -136 50 -47 124 -136 z m 322 63 b 215 -62 322 -6 274 -62 b 124 63 164 -62 124 -6 b 215 186 124 131 164 186 b 322 63 274 186 322 131 z "},"€":{"ha":992,"x_min":0,"x_max":0,"o":"m 25 297 l 131 297 b 596 -25 201 108 382 -25 b 882 65 703 -25 801 7 l 825 147 b 596 75 760 101 682 75 b 238 297 439 75 301 164 l 632 297 l 639 397 l 206 397 b 199 471 200 421 199 444 b 200 496 199 479 200 488 l 657 496 l 664 596 l 218 596 b 596 868 271 754 419 868 b 793 815 668 868 735 849 l 793 793 l 893 793 l 893 868 l 871 883 b 596 967 793 936 697 967 b 115 596 365 967 169 810 l 56 596 l 50 496 l 99 496 l 99 471 b 104 397 99 446 100 422 l 31 397 z "},"™":{"ha":1339,"x_min":0,"x_max":0,"o":"m 669 778 l 886 307 l 947 307 l 1165 779 l 1224 328 l 1297 336 l 1218 946 l 1161 946 l 917 418 l 672 946 l 615 946 l 550 397 l 547 397 l 547 322 l 615 322 z m 546 943 l 75 943 l 75 868 l 272 868 l 272 322 l 347 322 l 347 868 l 546 868 z "},"Ω":{"ha":1042,"x_min":0,"x_max":0,"o":"m 918 0 l 918 99 l 774 99 b 992 496 906 183 992 328 b 521 967 992 757 782 967 b 50 496 261 967 50 756 b 268 99 50 328 136 183 l 124 99 l 124 0 l 446 0 l 446 125 l 385 150 b 149 496 247 204 149 339 b 521 868 149 700 317 868 b 893 496 726 868 893 701 b 657 150 893 339 794 204 l 596 125 l 596 0 z "},"←":{"ha":992,"x_min":0,"x_max":0,"o":"m 196 397 l 319 550 l 243 611 l 50 376 l 50 318 l 243 83 l 319 144 l 196 297 l 943 297 l 943 397 z "},"↑":{"ha":594,"x_min":0,"x_max":0,"o":"m 347 747 l 500 622 l 561 700 l 326 893 l 269 893 l 33 700 l 96 622 l 249 747 l 249 0 l 347 0 z "},"→":{"ha":992,"x_min":0,"x_max":0,"o":"m 796 397 l 50 397 l 50 297 l 796 297 l 672 144 l 749 83 l 943 318 l 943 376 l 749 611 l 672 550 z "},"↓":{"ha":594,"x_min":0,"x_max":0,"o":"m 347 146 l 347 893 l 249 893 l 249 146 l 96 271 l 33 193 l 269 0 l 326 0 l 561 193 l 500 271 z "},"↔":{"ha":992,"x_min":0,"x_max":0,"o":"m 196 297 l 796 297 l 672 144 l 749 83 l 943 318 l 943 376 l 749 611 l 672 550 l 796 397 l 196 397 l 319 550 l 243 611 l 50 376 l 50 318 l 243 83 l 319 144 z "},"↕":{"ha":594,"x_min":0,"x_max":0,"o":"m 347 146 l 347 747 l 500 622 l 561 700 l 326 893 l 269 893 l 33 700 l 96 622 l 249 747 l 249 146 l 96 271 l 33 193 l 269 0 l 326 0 l 561 193 l 500 271 z "},"⇐":{"ha":992,"x_min":0,"x_max":0,"o":"m 156 347 l 196 397 l 943 397 l 943 496 l 276 496 l 319 550 l 243 611 l 50 376 l 50 318 l 243 83 l 319 144 l 276 199 l 943 199 l 943 297 l 196 297 z "},"⇑":{"ha":594,"x_min":0,"x_max":0,"o":"m 297 788 l 347 747 l 347 0 l 446 0 l 446 665 l 500 622 l 561 700 l 326 893 l 269 893 l 33 700 l 96 622 l 149 665 l 149 0 l 249 0 l 249 747 z "},"⇒":{"ha":992,"x_min":0,"x_max":0,"o":"m 838 347 l 796 297 l 50 297 l 50 199 l 715 199 l 672 144 l 749 83 l 943 318 l 943 376 l 749 611 l 672 550 l 715 496 l 50 496 l 50 397 l 796 397 z "},"⇓":{"ha":594,"x_min":0,"x_max":0,"o":"m 297 106 l 249 146 l 249 893 l 149 893 l 149 226 l 96 271 l 33 193 l 269 0 l 326 0 l 561 193 l 500 271 l 446 226 l 446 893 l 347 893 l 347 146 z "},"⇔":{"ha":992,"x_min":0,"x_max":0,"o":"m 276 199 l 715 199 l 672 144 l 749 83 l 943 318 l 943 376 l 749 611 l 672 550 l 715 496 l 276 496 l 319 550 l 243 611 l 50 376 l 50 318 l 243 83 l 319 144 z m 796 297 l 196 297 l 156 347 l 196 397 l 796 397 l 838 347 z "},"⇕":{"ha":594,"x_min":0,"x_max":0,"o":"m 446 226 l 446 665 l 500 622 l 561 700 l 326 893 l 269 893 l 33 700 l 96 622 l 149 665 l 149 226 l 96 271 l 33 193 l 269 0 l 326 0 l 561 193 l 500 271 z m 347 747 l 347 146 l 297 106 l 249 146 l 249 747 l 297 788 z "},"∂":{"ha":644,"x_min":0,"x_max":0,"o":"m 481 583 b 308 663 424 633 374 663 b 50 322 168 663 50 510 b 288 -25 50 104 157 -25 b 596 389 472 -25 596 163 b 322 918 596 614 542 918 b 194 874 279 918 235 903 l 174 860 l 174 781 l 272 781 l 272 806 b 322 818 289 814 307 818 b 481 583 404 818 457 722 z m 328 571 b 492 496 393 571 444 539 b 496 389 494 461 496 426 b 288 75 496 218 413 75 b 149 322 211 75 149 169 b 328 571 149 500 264 571 z "},"∅":{"ha":992,"x_min":0,"x_max":0,"o":"m 704 724 l 218 238 b 149 446 175 296 149 368 b 496 793 149 638 304 793 b 704 724 574 793 646 767 z m 775 654 b 843 446 818 596 843 524 b 496 99 843 254 688 99 b 288 168 418 99 346 125 z m 158 40 l 217 99 b 496 0 293 38 390 0 b 943 446 743 0 943 199 b 846 724 943 551 907 647 l 903 782 l 833 851 l 775 794 b 496 893 699 857 601 893 b 50 446 249 893 50 693 b 147 168 50 340 86 244 l 89 110 z "},"∆":{"ha":694,"x_min":0,"x_max":0,"o":"m 347 599 l 519 99 l 175 99 z m 386 793 l 308 793 l 36 0 l 658 0 z "},"∊":{"ha":644,"x_min":0,"x_max":0,"o":"m 347 50 l 546 50 l 546 149 l 347 149 b 156 297 256 149 178 213 l 546 297 l 546 397 l 156 397 b 347 546 178 483 257 546 l 546 546 l 546 644 l 347 644 b 50 347 183 644 50 511 b 347 50 50 183 185 51 z "},"∏":{"ha":843,"x_min":0,"x_max":0,"o":"m 50 -249 l 149 -249 l 149 843 l 694 843 l 694 -249 l 793 -249 l 793 943 l 50 943 z "},"∑":{"ha":843,"x_min":0,"x_max":0,"o":"m 793 -124 l 694 -124 l 694 -149 l 203 -149 l 628 322 l 628 372 l 203 843 l 694 843 l 694 818 l 793 818 l 793 943 l 50 943 l 50 867 l 517 347 l 50 -172 l 50 -249 l 793 -249 z "},"−":{"ha":644,"x_min":0,"x_max":0,"o":"m 596 397 l 596 496 l 50 496 l 50 397 z "},"√":{"ha":743,"x_min":0,"x_max":0,"o":"m 32 301 l 57 207 l 168 236 l 263 -25 l 343 -25 l 633 943 l 744 943 l 744 1042 l 560 1042 l 297 171 l 233 353 z "},"∞":{"ha":1438,"x_min":0,"x_max":0,"o":"m 719 276 b 1092 75 803 192 910 75 b 1389 347 1279 75 1389 199 b 1092 619 1389 497 1278 619 b 719 418 908 619 801 503 b 347 619 638 503 531 619 b 50 347 161 619 50 497 b 347 75 50 199 160 75 b 719 276 529 75 636 192 z m 649 347 b 347 174 563 261 482 174 b 149 347 225 174 149 243 b 347 521 149 451 225 521 b 649 347 483 521 563 435 z m 790 347 b 1092 521 876 435 956 521 b 1290 347 1214 521 1290 451 b 1092 174 1290 243 1214 174 b 790 347 957 174 876 261 z "},"∧":{"ha":743,"x_min":0,"x_max":0,"o":"m 372 425 l 603 49 l 688 100 l 414 546 l 331 546 l 57 100 l 142 49 z "},"∨":{"ha":743,"x_min":0,"x_max":0,"o":"m 372 169 l 142 547 l 57 494 l 331 50 l 414 50 l 688 494 l 603 547 z "},"∩":{"ha":694,"x_min":0,"x_max":0,"o":"m 50 249 l 50 50 l 149 50 l 149 249 b 347 446 150 358 239 446 b 546 249 456 446 546 357 l 546 50 l 644 50 l 644 249 b 347 546 644 413 511 546 b 50 249 183 546 51 411 z "},"∪":{"ha":694,"x_min":0,"x_max":0,"o":"m 50 347 b 347 50 51 185 183 50 b 644 347 511 50 644 183 l 644 546 l 546 546 l 546 347 b 347 149 546 239 456 149 b 149 347 239 149 150 238 l 149 546 l 50 546 z "},"∫":{"ha":499,"x_min":0,"x_max":0,"o":"m 133 -149 b 110 -142 121 -149 114 -144 l 50 -221 b 133 -249 78 -240 108 -249 b 276 -108 213 -249 272 -183 l 324 897 b 367 943 325 915 336 943 b 392 935 379 943 388 938 l 451 1014 b 367 1042 424 1033 392 1042 b 225 901 289 1042 229 976 l 178 -103 b 133 -149 176 -121 164 -149 z "},"∬":{"ha":743,"x_min":0,"x_max":0,"o":"m 133 -149 b 110 -142 121 -149 114 -144 l 50 -221 b 133 -249 78 -240 108 -249 b 276 -108 213 -249 272 -183 l 324 897 b 367 943 325 915 336 943 b 392 935 379 943 388 938 l 451 1014 b 367 1042 424 1033 392 1042 b 225 901 289 1042 229 976 l 178 -103 b 133 -149 176 -121 164 -149 z m 378 -149 b 353 -142 365 -149 357 -144 l 294 -221 b 378 -249 322 -240 353 -249 b 521 -108 457 -249 517 -183 l 568 897 b 611 943 569 915 581 943 b 636 935 624 943 632 938 l 696 1014 b 611 1042 668 1033 636 1042 b 469 901 533 1042 474 976 l 422 -103 b 378 -149 421 -121 408 -149 z "},"∭":{"ha":992,"x_min":0,"x_max":0,"o":"m 133 -149 b 110 -142 121 -149 114 -144 l 50 -221 b 133 -249 78 -240 108 -249 b 276 -108 213 -249 272 -183 l 324 897 b 367 943 325 915 336 943 b 392 935 379 943 388 938 l 451 1014 b 367 1042 424 1033 392 1042 b 225 901 289 1042 229 976 l 178 -103 b 133 -149 176 -121 164 -149 z m 378 -149 b 353 -142 365 -149 357 -144 l 294 -221 b 378 -249 322 -240 353 -249 b 521 -108 457 -249 517 -183 l 568 897 b 611 943 569 915 581 943 b 636 935 624 943 632 938 l 696 1014 b 611 1042 668 1033 636 1042 b 469 901 533 1042 474 976 l 422 -103 b 378 -149 421 -121 408 -149 z m 626 -149 b 601 -142 614 -149 606 -144 l 542 -221 b 626 -249 569 -240 601 -249 b 769 -108 706 -249 765 -183 l 817 897 b 860 943 818 915 829 943 b 885 935 872 943 881 938 l 943 1014 b 860 1042 915 1033 885 1042 b 717 901 782 1042 721 976 l 669 -103 b 626 -149 668 -121 657 -149 z "},"∼":{"ha":594,"x_min":0,"x_max":0,"o":"m 199 435 l 364 378 b 429 364 381 372 403 364 b 549 465 476 364 521 392 l 557 489 l 463 521 l 454 499 b 425 463 444 471 435 463 b 397 472 417 463 408 468 l 231 529 b 168 544 231 529 203 544 b 47 443 119 544 74 518 l 39 418 l 133 388 l 142 411 b 168 446 150 438 158 446 b 199 435 176 446 189 439 z "},"∽":{"ha":594,"x_min":0,"x_max":0,"o":"m 199 457 b 168 447 189 453 176 447 b 142 481 158 447 150 454 l 133 504 l 39 475 l 47 450 b 168 349 74 375 119 349 b 231 364 203 349 231 364 l 397 421 b 425 431 408 425 417 431 b 454 394 435 431 444 422 l 463 372 l 557 404 l 549 428 b 429 528 521 501 476 528 b 364 515 403 528 381 521 z "},"≈":{"ha":594,"x_min":0,"x_max":0,"o":"m 199 311 l 364 254 b 429 240 381 249 403 240 b 549 342 476 240 521 268 l 557 364 l 463 397 l 454 375 b 425 339 444 347 435 339 b 397 349 417 339 408 344 l 231 406 b 168 421 231 406 203 421 b 47 318 119 421 74 393 l 39 294 l 133 264 l 142 288 b 168 321 150 314 158 321 b 199 311 176 321 189 315 z m 199 560 l 364 503 b 429 489 381 497 403 489 b 549 589 476 489 521 515 l 557 613 l 463 644 l 454 622 b 425 586 444 594 435 586 b 397 596 417 586 408 592 l 231 654 b 168 668 231 654 203 668 b 47 567 119 668 74 642 l 39 542 l 133 513 l 142 536 b 168 569 150 563 158 569 b 199 560 176 569 189 564 z "},"≠":{"ha":644,"x_min":0,"x_max":0,"o":"m 203 136 l 268 249 l 596 249 l 596 347 l 325 347 l 442 546 l 596 546 l 596 644 l 499 644 l 550 732 l 463 781 l 383 644 l 50 644 l 50 546 l 325 546 l 210 347 l 50 347 l 50 249 l 151 249 l 115 186 z "},"≤":{"ha":496,"x_min":0,"x_max":0,"o":"m 446 0 l 446 99 l 50 99 l 50 0 z m 182 446 l 449 626 l 394 708 l 50 475 l 50 418 l 393 175 l 450 257 z "},"≥":{"ha":496,"x_min":0,"x_max":0,"o":"m 50 0 l 446 0 l 446 99 l 50 99 z m 314 446 l 46 257 l 103 175 l 446 418 l 446 475 l 101 708 l 47 626 z "},"⊂":{"ha":644,"x_min":0,"x_max":0,"o":"m 347 50 l 546 50 l 546 149 l 347 149 b 149 347 238 150 149 239 b 347 546 149 456 239 546 l 546 546 l 546 644 l 347 644 b 50 347 183 644 50 511 b 347 50 50 183 185 51 z "},"⋀":{"ha":1042,"x_min":0,"x_max":0,"o":"m 521 799 l 883 -251 l 978 -219 l 576 943 l 465 943 l 64 -219 l 158 -251 z "},"⋁":{"ha":1042,"x_min":0,"x_max":0,"o":"m 978 914 l 883 946 l 521 -104 l 158 946 l 64 914 l 465 -249 l 576 -249 z "},"⌀":{"ha":793,"x_min":0,"x_max":0,"o":"m 568 547 b 596 446 585 518 596 482 b 397 249 596 338 506 249 b 296 275 361 249 325 258 z m 497 618 l 225 346 b 199 446 208 375 199 410 b 397 644 199 554 289 644 b 497 618 433 644 468 635 z m 622 742 l 569 689 b 397 744 521 724 461 744 b 99 446 233 744 99 610 b 156 274 99 382 121 322 l 101 221 l 171 151 l 225 204 b 397 149 274 169 333 149 b 694 446 561 149 694 282 b 639 619 694 510 674 571 l 692 672 z "},"◊":{"ha":594,"x_min":0,"x_max":0,"o":"m 297 176 l 157 471 l 297 767 l 438 471 z m 325 943 l 271 943 l 49 471 l 271 0 l 325 0 l 547 471 z "},"":{"ha":594,"x_min":0,"x_max":0,"o":"m 149 793 l 149 644 l 50 644 l 50 546 l 149 546 l 149 186 b 360 -25 149 69 243 -25 b 539 75 435 -25 501 15 l 546 86 l 546 136 l 446 136 l 446 117 b 360 75 426 90 394 75 b 249 186 297 75 249 124 l 249 546 l 546 546 l 546 644 l 249 644 l 249 793 z "},"":{"ha":496,"x_min":0,"x_max":0,"o":"m 496 924 l 458 943 b 360 967 426 960 394 967 b 149 757 243 967 149 874 l 149 644 l 50 644 l 50 546 l 149 546 l 149 0 l 249 0 l 249 546 l 446 546 l 446 644 l 249 644 l 249 757 b 360 868 249 819 297 868 b 397 863 372 868 386 867 l 397 843 l 496 843 z "},"":{"ha":496,"x_min":0,"x_max":0,"o":"m 136 232 b 249 435 136 378 207 435 b 360 232 290 435 360 378 b 249 13 360 76 289 13 b 136 232 204 13 136 82 z m 249 510 b 63 232 150 510 63 403 b 249 -61 63 51 150 -61 b 433 232 347 -61 433 51 b 249 510 433 403 347 510 z "},"":{"ha":272,"x_min":0,"x_max":0,"o":"m 25 394 l 79 346 l 99 371 l 99 -49 l 174 -49 l 174 497 l 113 497 z "},"":{"ha":446,"x_min":0,"x_max":0,"o":"m 397 -49 l 397 50 l 322 50 l 322 25 l 157 25 l 282 156 b 385 347 368 247 385 293 b 224 510 385 436 313 510 b 63 347 135 510 63 436 l 136 347 b 224 435 136 394 176 435 b 310 347 271 435 310 394 b 226 208 310 313 300 285 l 38 7 l 38 -49 z "},"":{"ha":471,"x_min":0,"x_max":0,"o":"m 124 115 l 50 115 b 236 -61 50 19 140 -61 b 422 115 332 -61 422 19 b 325 258 422 178 382 231 b 379 363 358 283 379 321 b 236 510 379 442 317 510 b 92 363 156 510 92 442 l 167 363 b 236 435 167 401 199 435 b 306 363 274 435 306 401 b 236 290 306 324 274 290 l 236 217 b 347 115 289 217 347 172 b 236 13 347 64 294 13 b 124 115 176 13 124 64 z "},"":{"ha":471,"x_min":0,"x_max":0,"o":"m 297 299 l 297 125 l 125 125 b 269 497 225 281 269 379 l 194 497 b 31 115 194 389 153 301 l 25 107 l 25 50 l 297 50 l 297 -49 l 372 -49 l 372 50 l 422 50 l 422 125 l 372 125 l 372 299 z "},"":{"ha":446,"x_min":0,"x_max":0,"o":"m 40 208 l 113 196 b 224 274 128 242 188 274 b 335 150 283 274 335 221 b 217 13 335 72 279 13 b 111 63 178 13 133 31 l 111 75 l 38 75 l 38 43 l 42 35 b 217 -61 79 -32 158 -61 b 410 150 326 -61 410 38 b 224 347 410 258 329 347 b 122 317 192 347 154 336 l 131 422 l 285 422 l 285 410 l 360 410 l 360 497 l 61 497 z "},"":{"ha":446,"x_min":0,"x_max":0,"o":"m 231 335 b 128 293 190 335 156 319 l 126 294 b 224 435 142 368 171 435 b 293 417 253 435 282 425 l 293 404 l 367 404 l 367 444 l 358 456 b 224 510 326 494 268 510 b 50 138 78 510 50 303 b 231 -61 50 28 131 -61 b 397 138 322 -61 397 28 b 231 335 397 247 322 335 z m 124 138 b 231 261 124 206 172 261 b 322 138 282 261 322 206 b 231 13 322 69 282 13 b 124 138 172 13 124 69 z "},"":{"ha":421,"x_min":0,"x_max":0,"o":"m 25 497 l 25 397 l 99 397 l 99 422 l 283 422 l 271 404 b 149 -49 168 263 149 81 l 224 -49 b 331 358 224 82 243 238 l 401 456 l 401 497 z "},"":{"ha":471,"x_min":0,"x_max":0,"o":"m 236 -61 b 422 115 332 -61 422 19 b 325 258 422 178 382 231 b 379 363 358 283 379 321 b 236 510 379 442 317 510 b 92 363 156 510 92 442 b 146 258 92 321 113 283 b 50 115 89 231 50 178 b 236 -61 50 19 140 -61 z m 347 115 b 236 13 347 64 294 13 b 124 115 176 13 124 64 b 236 217 124 172 183 217 b 347 115 289 217 347 172 z m 167 363 b 236 435 167 401 199 435 b 306 363 274 435 306 401 b 236 290 306 324 274 290 b 167 363 199 290 167 324 z "},"":{"ha":446,"x_min":0,"x_max":0,"o":"m 215 113 b 318 154 256 113 290 128 l 319 153 b 224 13 304 79 276 13 b 154 32 194 13 165 24 l 154 50 l 79 50 l 79 3 l 88 -8 b 224 -61 119 -47 179 -61 b 397 311 369 -61 397 146 b 215 510 397 421 315 510 b 50 311 124 510 50 421 b 215 113 50 201 124 113 z m 322 311 b 215 186 322 243 274 186 b 124 311 164 186 124 243 b 215 435 124 379 164 435 b 322 311 274 435 322 379 z "},"":{"ha":496,"x_min":0,"x_max":0,"o":"m 136 690 b 249 893 136 836 207 893 b 360 690 290 893 360 836 b 249 471 360 535 289 471 b 136 690 204 471 136 540 z m 249 968 b 63 690 150 968 63 861 b 249 397 63 510 150 397 b 433 690 347 397 433 510 b 249 968 433 861 347 968 z "},"":{"ha":272,"x_min":0,"x_max":0,"o":"m 25 853 l 79 804 l 99 829 l 99 410 l 174 410 l 174 956 l 113 956 z "},"":{"ha":446,"x_min":0,"x_max":0,"o":"m 397 410 l 397 508 l 322 508 l 322 483 l 157 483 l 282 614 b 385 806 368 706 385 751 b 224 968 385 894 313 968 b 63 806 135 968 63 894 l 136 806 b 224 893 136 853 176 893 b 310 806 271 893 310 853 b 226 667 310 771 300 743 l 38 465 l 38 410 z "},"":{"ha":471,"x_min":0,"x_max":0,"o":"m 124 574 l 50 574 b 236 397 50 478 140 397 b 422 574 332 397 422 478 b 325 717 422 636 382 689 b 379 821 358 742 379 779 b 236 968 379 900 317 968 b 92 821 156 968 92 900 l 167 821 b 236 893 167 860 199 893 b 306 821 274 893 306 860 b 236 749 306 782 274 749 l 236 675 b 347 574 289 675 347 631 b 236 471 347 522 294 471 b 124 574 176 471 124 522 z "},"":{"ha":471,"x_min":0,"x_max":0,"o":"m 297 757 l 297 583 l 125 583 b 269 956 225 739 269 838 l 194 956 b 31 574 194 847 153 760 l 25 565 l 25 508 l 297 508 l 297 410 l 372 410 l 372 508 l 422 508 l 422 583 l 372 583 l 372 757 z "},"":{"ha":446,"x_min":0,"x_max":0,"o":"m 40 667 l 113 654 b 224 732 128 700 188 732 b 335 608 283 732 335 679 b 217 471 335 531 279 471 b 111 521 178 471 133 489 l 111 533 l 38 533 l 38 501 l 42 493 b 217 397 79 426 158 397 b 410 608 326 397 410 496 b 224 806 410 717 329 806 b 122 775 192 806 154 794 l 131 881 l 285 881 l 285 868 l 360 868 l 360 956 l 61 956 z "},"":{"ha":446,"x_min":0,"x_max":0,"o":"m 231 793 b 128 751 190 793 156 778 l 126 753 b 224 893 142 826 171 893 b 293 875 253 893 282 883 l 293 863 l 367 863 l 367 903 l 358 914 b 224 968 326 953 268 968 b 50 596 78 968 50 761 b 231 397 50 486 131 397 b 397 596 322 397 397 486 b 231 793 397 706 322 793 z m 124 596 b 231 719 124 664 172 719 b 322 596 282 719 322 664 b 231 471 322 528 282 471 b 124 596 172 471 124 528 z "},"":{"ha":421,"x_min":0,"x_max":0,"o":"m 25 956 l 25 856 l 99 856 l 99 881 l 283 881 l 271 863 b 149 410 168 721 149 539 l 224 410 b 331 817 224 540 243 696 l 401 914 l 401 956 z "},"":{"ha":471,"x_min":0,"x_max":0,"o":"m 236 397 b 422 574 332 397 422 478 b 325 717 422 636 382 689 b 379 821 358 742 379 779 b 236 968 379 900 317 968 b 92 821 156 968 92 900 b 146 717 92 779 113 742 b 50 574 89 689 50 636 b 236 397 50 478 140 397 z m 347 574 b 236 471 347 522 294 471 b 124 574 176 471 124 522 b 236 675 124 631 183 675 b 347 574 289 675 347 631 z m 167 821 b 236 893 167 860 199 893 b 306 821 274 893 306 860 b 236 749 306 782 274 749 b 167 821 199 749 167 782 z "},"":{"ha":446,"x_min":0,"x_max":0,"o":"m 215 571 b 318 613 256 571 290 586 l 319 611 b 224 471 304 538 276 471 b 154 490 194 471 165 482 l 154 508 l 79 508 l 79 461 l 88 450 b 224 397 119 411 179 397 b 397 769 369 397 397 604 b 215 968 397 879 315 968 b 50 769 124 968 50 879 b 215 571 50 660 124 571 z m 322 769 b 215 644 322 701 274 644 b 124 769 164 644 124 701 b 215 893 124 838 164 893 b 322 769 274 893 322 838 z "},"":{"ha":322,"x_min":0,"x_max":0,"o":"m 199 918 b 129 850 161 918 129 888 b 199 781 129 813 161 781 b 267 850 236 781 267 813 b 199 918 267 888 236 918 z m 63 -199 l 50 -199 l 50 -297 l 63 -297 b 249 -111 165 -297 249 -214 l 249 644 l 124 644 l 124 546 l 149 546 l 149 -111 b 63 -199 149 -160 111 -199 z "},"":{"ha":322,"x_min":0,"x_max":0,"o":"m 63 -199 l 50 -199 l 50 -297 l 63 -297 b 249 -111 165 -297 249 -214 l 249 644 l 124 644 l 124 546 l 149 546 l 149 -111 b 63 -199 149 -160 111 -199 z m 201 893 l 342 796 l 385 847 l 218 979 l 179 979 l 13 847 l 56 796 l 196 893 z "},"":{"ha":322,"x_min":0,"x_max":0,"o":"m 63 -199 l 50 -199 l 50 -297 l 63 -297 b 249 -111 165 -297 249 -214 l 249 644 l 124 644 l 124 546 l 149 546 l 149 -111 b 63 -199 149 -160 111 -199 z "},"":{"ha":594,"x_min":0,"x_max":0,"o":"m 319 -137 b 363 -119 329 -125 346 -119 b 419 -183 392 -119 419 -139 b 357 -249 419 -226 388 -249 b 294 -212 332 -249 308 -235 l 288 -201 l 233 -232 l 239 -243 b 361 -310 265 -286 314 -310 b 493 -189 428 -310 493 -265 b 364 -57 493 -124 446 -57 b 343 -58 358 -57 350 -57 l 353 -25 l 360 -25 b 539 75 435 -25 501 15 l 546 86 l 546 136 l 446 136 l 446 117 b 360 75 426 90 394 75 b 249 186 297 75 249 124 l 249 546 l 546 546 l 546 644 l 249 644 l 249 793 l 149 793 l 149 644 l 50 644 l 50 546 l 149 546 l 149 186 b 292 -14 149 93 208 15 l 261 -124 z "},"":{"ha":594,"x_min":0,"x_max":0,"o":"m 99 372 l 149 372 l 149 186 b 360 -25 149 69 243 -25 b 539 75 435 -25 501 15 l 546 86 l 546 136 l 446 136 l 446 117 b 360 75 426 90 394 75 b 249 186 297 75 249 124 l 249 372 l 446 372 l 446 446 l 249 446 l 249 546 l 546 546 l 546 644 l 249 644 l 249 793 l 149 793 l 149 644 l 50 644 l 50 546 l 149 546 l 149 446 l 99 446 z "},"":{"ha":594,"x_min":0,"x_max":0,"o":"m 239 -279 l 282 -310 b 364 -132 329 -261 364 -201 b 301 -69 364 -97 336 -69 b 239 -132 267 -69 239 -97 b 279 -190 239 -158 256 -182 b 239 -279 279 -212 263 -251 z m 149 793 l 149 644 l 50 644 l 50 546 l 149 546 l 149 186 b 360 -25 149 69 243 -25 b 539 75 435 -25 501 15 l 546 86 l 546 136 l 446 136 l 446 117 b 360 75 426 90 394 75 b 249 186 297 75 249 124 l 249 546 l 546 546 l 546 644 l 249 644 l 249 793 z "},"":{"ha":693,"x_min":0,"x_max":0,"o":"m 496 415 l 496 390 l 571 390 l 571 460 l 551 469 b 425 508 513 492 471 508 b 161 310 303 508 197 425 l 69 310 l 63 249 l 149 249 b 147 224 147 240 147 232 b 150 186 147 211 149 199 l 44 186 l 38 124 l 165 124 b 426 -62 206 15 307 -62 b 592 -6 476 -62 538 -46 l 549 56 b 426 13 508 26 464 13 b 247 124 350 13 282 57 l 433 124 l 442 186 l 225 186 b 222 224 222 199 222 211 b 224 249 222 232 222 240 l 458 249 l 467 310 l 240 310 b 425 433 272 383 344 433 b 496 415 447 433 471 428 z "},"":{"ha":693,"x_min":0,"x_max":0,"o":"m 496 849 l 496 824 l 571 824 l 571 893 l 551 903 b 425 942 513 925 471 942 b 161 743 303 942 197 858 l 69 743 l 63 682 l 149 682 b 147 657 147 674 147 665 b 150 619 147 644 149 632 l 44 619 l 38 557 l 165 557 b 426 371 206 449 307 371 b 592 428 476 371 538 388 l 549 489 b 426 446 508 460 464 446 b 247 557 350 446 282 490 l 433 557 l 442 619 l 225 619 b 222 657 222 632 222 644 b 224 682 222 665 222 674 l 458 682 l 467 743 l 240 743 b 425 867 272 817 344 867 b 496 849 447 867 471 861 z "},"":{"ha":619,"x_min":0,"x_max":0,"o":"m 347 -124 l 347 -61 b 571 97 474 -50 571 18 b 347 275 571 214 457 251 l 347 431 b 446 385 383 424 417 410 l 446 364 l 521 364 l 521 415 l 510 426 b 347 507 464 472 406 499 l 347 571 l 272 571 l 272 508 b 75 356 185 500 83 456 b 272 211 75 261 171 233 l 272 14 b 124 85 213 24 154 58 l 124 111 l 50 111 l 50 53 l 60 43 b 272 -61 90 11 176 -49 l 272 -124 z m 272 290 b 149 356 201 304 149 319 b 272 433 149 385 197 425 z m 347 196 b 496 97 426 178 492 156 b 347 13 496 57 432 21 z "},"":{"ha":594,"x_min":0,"x_max":0,"o":"m 347 322 l 347 385 b 571 543 474 396 571 464 b 347 721 571 660 457 697 l 347 876 b 446 831 383 869 417 856 l 446 810 l 521 810 l 521 861 l 510 872 b 347 953 464 918 406 944 l 347 1017 l 272 1017 l 272 954 b 75 801 185 946 83 901 b 272 657 75 707 171 679 l 272 460 b 124 531 213 469 154 504 l 124 557 l 50 557 l 50 499 l 60 489 b 272 385 90 457 176 397 l 272 322 z m 272 736 b 149 801 201 750 149 765 b 272 879 149 831 197 871 z m 347 642 b 496 543 426 624 492 601 b 347 458 496 503 432 467 z "},"":{"ha":247,"x_min":0,"x_max":0,"o":"m 132 50 b 75 -6 101 50 75 25 b 118 -61 75 -32 94 -56 b 60 -149 108 -89 88 -121 l 51 -157 l 90 -197 l 99 -189 b 186 -6 144 -143 186 -79 b 132 50 186 24 163 50 z "},"":{"ha":247,"x_min":0,"x_max":0,"o":"m 132 483 b 75 428 101 483 75 458 b 118 372 75 401 94 378 b 60 285 108 344 88 313 l 51 276 l 90 236 l 99 244 b 186 428 144 290 186 354 b 132 483 186 457 163 483 z "},"":{"ha":496,"x_min":0,"x_max":0,"o":"m 446 224 l 446 297 l 50 297 l 50 224 z "},"":{"ha":496,"x_min":0,"x_max":0,"o":"m 446 644 l 446 719 l 50 719 l 50 644 z "},"":{"ha":247,"x_min":0,"x_max":0,"o":"m 118 38 b 63 -18 88 38 63 13 b 118 -75 63 -49 88 -75 b 174 -18 149 -75 174 -49 b 118 38 174 13 149 38 z "},"":{"ha":247,"x_min":0,"x_max":0,"o":"m 118 483 b 63 428 88 483 63 458 b 118 371 63 397 88 371 b 174 428 149 371 174 397 b 118 483 174 458 149 483 z "},"":{"ha":521,"x_min":0,"x_max":0,"o":"m 322 -75 l 322 -12 b 456 61 357 -7 407 10 l 401 113 b 322 64 379 89 353 71 l 322 383 b 397 344 351 376 376 363 l 397 322 l 471 322 l 471 375 l 461 385 b 322 458 426 422 378 450 l 322 521 l 249 521 l 249 458 b 50 224 136 439 50 342 b 249 -11 50 106 136 8 l 249 -75 z m 249 64 b 124 224 178 82 124 147 b 249 382 124 300 176 364 z "},"":{"ha":496,"x_min":0,"x_max":0,"o":"m 322 371 l 322 433 b 456 507 357 439 407 456 l 401 558 b 322 510 379 535 353 517 l 322 829 b 397 790 351 822 376 808 l 397 768 l 471 768 l 471 821 l 461 831 b 322 904 426 868 378 896 l 322 967 l 249 967 l 249 904 b 50 669 136 885 50 788 b 249 435 50 551 136 454 l 249 371 z m 249 510 b 124 669 178 528 124 593 b 249 828 124 746 176 810 z "},"":{"ha":521,"x_min":0,"x_max":0,"o":"m 50 25 l 50 -50 l 471 -50 l 471 25 l 175 25 b 199 110 190 50 199 79 l 199 199 l 314 199 l 314 272 l 199 272 l 199 350 b 283 433 199 396 238 433 b 354 392 314 433 339 417 l 419 429 b 283 508 392 475 342 508 b 124 350 196 508 124 438 l 124 272 l 65 272 l 65 199 l 124 199 l 124 110 b 50 25 124 65 92 31 z "},"":{"ha":544,"x_min":0,"x_max":0,"o":"m 50 471 l 50 396 l 471 396 l 471 471 l 175 471 b 199 556 190 496 199 525 l 199 644 l 314 644 l 314 718 l 199 718 l 199 796 b 283 879 199 842 238 879 b 354 838 314 879 339 863 l 419 875 b 283 954 392 921 342 954 b 124 796 196 954 124 883 l 124 718 l 65 718 l 65 644 l 124 644 l 124 556 b 50 471 124 511 92 476 z "},"":{"ha":297,"x_min":0,"x_max":0,"o":"m 124 235 b 260 654 124 365 157 532 l 203 701 b 50 235 83 558 50 372 b 203 -231 50 64 99 -106 l 260 -183 b 124 235 156 -58 124 106 z "},"":{"ha":297,"x_min":0,"x_max":0,"o":"m 174 235 b 39 -183 174 106 143 -58 l 96 -231 b 249 235 200 -106 249 64 b 96 701 249 372 215 558 l 39 654 b 174 235 142 532 174 367 z "},"":{"ha":297,"x_min":0,"x_max":0,"o":"m 124 681 b 260 1100 124 811 157 978 l 203 1147 b 50 681 83 1004 50 818 b 203 215 50 510 99 340 l 260 263 b 124 681 156 388 124 551 z "},"":{"ha":297,"x_min":0,"x_max":0,"o":"m 174 681 b 39 263 174 551 143 388 l 96 215 b 249 681 200 340 249 510 b 96 1147 249 818 215 1004 l 39 1100 b 174 681 142 978 174 813 z "},"":{"ha":496,"x_min":0,"x_max":0,"o":"m 149 1140 l 149 -199 l 50 -199 l 50 -297 l 85 -297 l 85 -310 l 117 -310 l 117 -297 l 285 -297 l 285 -199 l 249 -199 l 249 0 l 397 0 l 397 99 l 249 99 l 249 546 l 397 546 l 397 644 l 249 644 l 249 843 l 397 843 l 397 943 l 249 943 l 249 1140 l 285 1140 l 285 1240 l 50 1240 l 50 1140 z "},"ﬁ":{"ha":793,"x_min":0,"x_max":0,"o":"m 496 924 l 458 943 b 360 967 426 960 394 967 b 149 757 243 967 149 874 l 149 644 l 50 644 l 50 546 l 149 546 l 149 0 l 249 0 l 249 546 l 446 546 l 446 644 l 249 644 l 249 757 b 360 868 249 819 297 868 b 397 863 372 868 386 867 l 397 843 l 496 843 z m 594 546 l 594 0 l 694 0 l 694 644 l 558 644 l 558 546 z m 644 918 b 576 850 607 918 576 888 b 644 781 576 813 607 781 b 713 850 682 781 713 813 b 644 918 713 888 682 918 z "},"ﬂ":{"ha":793,"x_min":0,"x_max":0,"o":"m 496 924 l 458 943 b 360 967 426 960 394 967 b 149 757 243 967 149 874 l 149 644 l 50 644 l 50 546 l 149 546 l 149 0 l 249 0 l 249 546 l 446 546 l 446 644 l 249 644 l 249 757 b 360 868 249 819 297 868 b 397 863 372 868 386 867 l 397 843 l 496 843 z m 558 943 l 558 843 l 594 843 l 594 0 l 694 0 l 694 943 z "},"ﬃ":{"ha":1239,"x_min":0,"x_max":0,"o":"m 1042 546 l 1042 0 l 1140 0 l 1140 644 l 1004 644 l 1004 546 z m 1092 918 b 1024 850 1054 918 1024 888 b 1092 781 1024 813 1054 781 b 1160 850 1129 781 1160 813 b 1092 918 1160 888 1129 918 z m 943 924 l 906 943 b 806 967 874 960 840 967 b 596 757 689 967 596 874 l 596 644 l 496 644 l 496 546 l 596 546 l 596 0 l 694 0 l 694 546 l 918 546 l 918 644 l 694 644 l 694 757 b 806 868 694 819 743 868 b 843 863 818 868 832 867 l 843 843 l 943 843 z m 521 924 l 483 942 b 361 967 451 958 396 967 b 149 757 244 967 149 874 l 149 644 l 50 644 l 50 546 l 149 546 l 149 0 l 249 0 l 249 546 l 410 546 l 410 644 l 249 644 l 249 757 b 361 868 249 819 299 868 b 422 861 374 868 411 865 l 422 843 l 521 843 z "},"ﬄ":{"ha":1239,"x_min":0,"x_max":0,"o":"m 1004 943 l 1004 843 l 1042 843 l 1042 0 l 1140 0 l 1140 943 z m 943 922 l 906 943 b 806 967 874 960 842 967 b 596 757 689 967 596 874 l 596 644 l 496 644 l 496 546 l 596 546 l 596 0 l 694 0 l 694 546 l 893 546 l 893 644 l 694 644 l 694 757 b 806 868 694 819 743 868 b 843 863 818 868 832 867 l 843 843 l 943 843 z m 521 922 l 483 942 b 361 967 451 958 397 967 b 149 757 244 967 149 874 l 149 644 l 50 644 l 50 546 l 149 546 l 149 0 l 249 0 l 249 546 l 410 546 l 410 644 l 249 644 l 249 757 b 361 868 249 819 299 868 b 422 861 374 868 411 865 l 422 843 l 521 843 z "}}}
